<svg width="500" height="329" viewBox="0 0 500 329" fill="none" xmlns="http://www.w3.org/2000/svg">
<path d="M419.912 153.956C419.253 154.339 405.723 156.698 399.179 157.801C397.049 158.154 395.318 159.701 394.72 161.77L392.345 169.798" fill="white"/>
<path d="M419.912 153.956C419.253 154.339 405.723 156.698 399.179 157.801C397.049 158.154 395.318 159.701 394.72 161.77L392.345 169.798" stroke="#272E33" stroke-width="2" stroke-linecap="round" stroke-linejoin="round"/>
<path d="M420.852 160.913C420.852 160.913 430.812 153.635 433.386 156.025C435.96 158.415 435.194 161.771 426.858 165.356C418.522 168.941 420.852 160.913 420.852 160.913Z" fill="white" stroke="#272E33" stroke-width="2" stroke-linecap="round" stroke-linejoin="round"/>
<path d="M420.041 169.325C420.041 169.325 430.001 162.048 432.576 164.438C435.15 166.828 434.384 170.183 426.048 173.769C417.712 177.354 420.041 169.325 420.041 169.325Z" fill="white" stroke="#272E33" stroke-width="2" stroke-linecap="round" stroke-linejoin="round"/>
<path d="M417.13 172.781C417.13 172.781 428.929 169.195 430.568 172.29C432.208 175.385 430.384 178.312 421.328 178.94C412.272 179.568 417.13 172.781 417.13 172.781Z" fill="white" stroke="#272E33" stroke-width="2" stroke-linecap="round" stroke-linejoin="round"/>
<path d="M409.091 189.272C409.137 208.118 395.622 264.686 377.371 268.761C357.711 273.143 348.563 254.819 361.987 236.846C375.41 218.858 383.945 196.488 389.063 184.124C389.063 184.124 386.948 168.526 391.867 167.546C396.786 166.55 409.091 189.272 409.091 189.272Z" fill="white" stroke="#272E33" stroke-width="2" stroke-linecap="round" stroke-linejoin="round"/>
<path d="M378.943 84.9935V92.0722" stroke="#272E33" stroke-width="2" stroke-linecap="round" stroke-linejoin="round"/>
<path d="M382.466 88.5491H375.386" stroke="#272E33" stroke-width="2" stroke-linecap="round" stroke-linejoin="round"/>
<path d="M316.595 116.875V123.953" stroke="#272E33" stroke-width="2" stroke-linecap="round" stroke-linejoin="round"/>
<path d="M320.133 120.43H313.053" stroke="#272E33" stroke-width="2" stroke-linecap="round" stroke-linejoin="round"/>
<path d="M355.649 163.914V170.992" stroke="#272E33" stroke-width="2" stroke-linecap="round" stroke-linejoin="round"/>
<path d="M359.187 167.469H352.108" stroke="#272E33" stroke-width="2" stroke-linecap="round" stroke-linejoin="round"/>
<path d="M339.421 34.261V41.355" stroke="#272E33" stroke-width="2" stroke-linecap="round" stroke-linejoin="round"/>
<path d="M342.965 37.8033H335.885" stroke="#272E33" stroke-width="2" stroke-linecap="round" stroke-linejoin="round"/>
<path d="M158.528 63.6503V70.7289" stroke="#272E33" stroke-width="2" stroke-linecap="round" stroke-linejoin="round"/>
<path d="M162.067 67.1899H154.987" stroke="#272E33" stroke-width="2" stroke-linecap="round" stroke-linejoin="round"/>
<path d="M240.208 1V8.07866" stroke="#272E33" stroke-width="2" stroke-linecap="round" stroke-linejoin="round"/>
<path d="M243.761 4.53967H236.682" stroke="#272E33" stroke-width="2" stroke-linecap="round" stroke-linejoin="round"/>
<path d="M125.459 163.947V171.041" stroke="#272E33" stroke-width="2" stroke-linecap="round" stroke-linejoin="round"/>
<path d="M128.996 167.499H121.917" stroke="#272E33" stroke-width="2" stroke-linecap="round" stroke-linejoin="round"/>
<path d="M162.091 122.565V129.643" stroke="#272E33" stroke-width="2" stroke-linecap="round" stroke-linejoin="round"/>
<path d="M165.629 126.104H158.55" stroke="#272E33" stroke-width="2" stroke-linecap="round" stroke-linejoin="round"/>
<path d="M4.54102 104.589V111.668" stroke="#272E33" stroke-width="2" stroke-linecap="round" stroke-linejoin="round"/>
<path d="M8.07942 108.129H1" stroke="#272E33" stroke-width="2" stroke-linecap="round" stroke-linejoin="round"/>
<path d="M97.7104 93.6515V100.73" stroke="#272E33" stroke-width="2" stroke-linecap="round" stroke-linejoin="round"/>
<path d="M101.249 97.1912H94.1694" stroke="#272E33" stroke-width="2" stroke-linecap="round" stroke-linejoin="round"/>
<path d="M84.0608 188.302C84.26 184.042 82.8655 179.859 80.1686 176.565C75.6329 171.034 75.5869 167.525 73.0279 164.89C70.4689 162.255 66.4235 163.45 70.0705 172.428C73.7174 181.407 75.2958 185.084 75.2958 185.084L84.0608 188.302Z" fill="white" stroke="#272E33" stroke-width="2" stroke-linecap="round" stroke-linejoin="round"/>
<path d="M63.1772 175.645C63.5757 175.645 88.4149 174.373 91.3877 199.01Z" fill="white"/>
<path d="M63.1772 175.645C63.5757 175.645 88.4149 174.373 91.3877 199.01" stroke="#272E33" stroke-width="2" stroke-linecap="round" stroke-linejoin="round"/>
<path d="M79.9886 224.814C79.9886 224.814 76.9086 206.627 72.8632 200.33C68.8332 194.017 59.8077 194.492 59.8077 194.492C59.8077 194.492 36.8992 174.16 33.574 170.498C30.2488 166.821 31.5206 163.327 37.4508 167.403C43.381 171.479 61.2021 184.41 61.2021 184.41C61.2021 184.41 90.9142 174.344 95.7564 202.888L101.227 219.834L79.9886 224.814Z" fill="white" stroke="#272E33" stroke-width="2" stroke-linecap="round" stroke-linejoin="round"/>
<path d="M59.4269 193.588C59.4269 193.588 47.6586 167.434 45.8964 162.515C44.1342 157.582 46.5093 154.992 50.524 161.519C54.5388 168.047 63.6409 183.2 63.6409 183.2" fill="white"/>
<path d="M59.4269 193.588C59.4269 193.588 47.6586 167.434 45.8964 162.515C44.1342 157.582 46.5093 154.992 50.524 161.519C54.5388 168.047 63.6409 183.2 63.6409 183.2" stroke="#272E33" stroke-width="2" stroke-linecap="round" stroke-linejoin="round"/>
<path d="M58.3024 191.488C58.3024 191.488 57.3677 169.057 57.3677 164.706C57.3677 157.535 61.6736 155.497 62.7768 165.165C63.5124 171.616 64.3398 183.506 64.3398 183.506" fill="white"/>
<path d="M58.3024 191.488C58.3024 191.488 57.3677 169.057 57.3677 164.706C57.3677 157.535 61.6736 155.497 62.7768 165.165C63.5124 171.616 64.3398 183.506 64.3398 183.506" stroke="#272E33" stroke-width="2" stroke-linecap="round" stroke-linejoin="round"/>
<path d="M407.336 215.054C407.826 209.477 407.091 207.255 407.091 207.255C394.25 208.619 383.952 196.346 383.952 196.346C383.952 196.346 382.726 197.74 379.263 202.184C375.8 206.627 369.242 201.601 365.365 208.006C362.239 213.169 351.129 240.258 346.977 250.463C334.366 213.016 318.169 193.986 291.736 189.191C288.288 168.322 273.409 141.846 214.215 146.458C177.423 153.093 166.191 171.938 168.735 191.841H168.566C168.566 191.841 144.738 191.52 131.407 231.157C127.499 221.964 123.531 212.955 121.83 210.136C117.953 203.746 104.698 206.612 101.25 202.168C97.7873 197.725 96.5614 196.331 96.5614 196.331C96.5614 196.331 86.2641 208.619 73.4077 207.24C73.4077 207.24 72.6722 209.446 73.1625 215.039C73.6529 220.616 66.8646 221.259 68.3663 228.568C69.8833 235.876 93.8032 301.377 93.8032 301.377C96.0557 307.46 99.0438 326.52 111.394 327.194C111.456 327.378 111.624 327.5 111.824 327.516C131.422 327.454 371.065 327.669 371.065 327.669C371.065 327.669 371.081 327.409 371.111 326.918C381.792 324.405 384.55 307.122 386.68 301.392C386.68 301.392 410.6 235.892 412.117 228.598C413.634 221.305 406.845 220.631 407.336 215.054Z" fill="#DC303A" stroke="#272E33" stroke-width="2" stroke-miterlimit="10"/>
<path d="M407.442 214.151C408.362 208.313 407.228 206.122 407.228 206.122C395.49 208.666 384.656 195.321 384.656 195.321C384.656 195.321 383.201 196.623 379.707 201.526C378.297 203.502 376.857 203.717 375.386 204.131C380.259 219.973 403.09 222.164 411.043 222.364C410.43 218.931 406.753 218.594 407.442 214.151Z" fill="#272E33" stroke="#272E33" stroke-width="2" stroke-miterlimit="10"/>
<path d="M73.0043 214.196C72.0849 208.358 73.2648 206.137 73.2648 206.137C85.0026 208.68 95.8362 195.335 95.8362 195.335C95.8362 195.335 97.5984 195.534 101.107 200.437C102.517 202.414 104.954 204.084 106.409 204.497C101.537 220.34 77.157 222.485 69.2041 222.684C69.817 219.252 73.7092 218.639 73.0043 214.196Z" fill="#272E33"/>
<path d="M168.608 190.6C161.482 192.055 154.081 195.809 147.553 203.056C153.637 211.866 174.89 241.805 214.057 248.164C214.026 247.888 213.965 247.628 213.888 247.367C192.175 238.465 170.906 213.674 168.608 190.6Z" fill="#272E33"/>
<path d="M291.727 189.021C293.091 197.126 292.708 204.42 292.524 208.71C291.926 222.928 285.551 232.842 281.537 239.905L281.246 247.183C297.795 243.276 310.804 212.617 313.042 197.54C307.173 194.338 306.116 191.932 291.727 189.021Z" fill="#272E33"/>
<path d="M211.273 239.355C211.273 239.355 226.995 266.506 228.634 283.635" stroke="#272E33" stroke-width="2" stroke-linecap="round" stroke-linejoin="round"/>
<path d="M279.099 237.686C279.099 237.686 271.744 264.499 273.537 281.629" stroke="#272E33" stroke-width="2" stroke-linecap="round" stroke-linejoin="round"/>
<path d="M130.422 232.108C130.591 232.613 148.029 269.646 148.029 269.646" stroke="#272E33" stroke-width="2" stroke-linecap="round" stroke-linejoin="round"/>
<path d="M347.903 251.26L335.951 272.067" stroke="#272E33" stroke-width="2" stroke-linecap="round" stroke-linejoin="round"/>
<path d="M182.02 298.773C182.02 298.773 180.564 328.482 165.026 327.793" stroke="#272E33" stroke-width="2" stroke-linecap="round" stroke-linejoin="round"/>
<path d="M270.31 327.745C267.077 302.664 263.629 265.57 268.915 249.865C277.267 225.136 274.018 194.109 268.379 189.62C262.74 185.13 200.42 185.988 200.42 185.988L189.218 189.849C189.218 189.849 231.863 229.472 244.505 301.775C246.482 313.113 247.83 322.015 248.719 329.002" fill="white"/>
<path d="M210.125 164.951L209.221 180.763L199.919 187.183C199.919 187.183 224.299 204.068 246.104 229.272C246.104 229.272 259.482 219.818 262.608 189.849L255.589 188.761L222.016 168.873L210.125 164.951Z" fill="white" stroke="#272E33" stroke-width="2" stroke-linecap="round" stroke-linejoin="round"/>
<path d="M199.573 136.084C199.573 136.084 185.184 138.076 189.275 150.885C193.351 163.694 208.414 154.241 208.414 154.241L204.154 135.854L199.573 136.084Z" fill="white" stroke="#272E33" stroke-width="2" stroke-linecap="round" stroke-linejoin="round"/>
<path d="M233.789 84.8954C237.559 84.1293 263.409 79.3948 268.772 101.136C274.136 122.878 273.86 147.607 272.726 159.022C271.592 170.437 221.147 171.172 218.22 170.513C215.278 169.855 211.539 166.898 211.539 166.898L200.828 133.818C200.828 133.802 193.35 93.1691 233.789 84.8954Z" fill="white" stroke="#272E33" stroke-width="2" stroke-linecap="round" stroke-linejoin="round"/>
<path d="M205.531 132.944C208.213 135.089 216.288 148.357 218.602 154.701C218.602 154.701 233.956 147.315 256.819 144.282C256.819 144.282 269.338 143.056 274.486 143.975C274.486 143.975 276.049 167.264 267.3 180.441C258.55 193.618 236.76 192.806 225.896 186.784C215.032 180.763 212.978 177.515 209.776 170.084C206.573 162.653 197.134 134.614 197.134 134.614L205.531 132.944Z" fill="#B0B0B0"/>
<path d="M198.469 138.705C198.469 138.705 191.589 128.792 187.727 118.021C184.08 107.893 187.635 96.417 196.599 90.6407C204.093 85.8143 210.329 88.1892 210.329 88.1892C210.329 88.1892 200.262 74.5835 211.463 60.2423C215.386 55.1861 221.24 51.9992 227.614 51.4169C243.106 50.0839 249.358 62.7857 249.358 62.7857C249.358 62.7857 262.414 30.0124 298.347 44.3383C301.979 45.7938 306.392 50.467 308.629 53.7152C322.175 73.373 288.096 102.484 269.11 106.683C248.27 111.294 235.536 109.165 228.15 104.721C233.544 107.234 230.388 139.992 198.469 138.705Z" fill="#272E33"/>
<path d="M254.263 129.773L258.845 149.676L252.961 151.009" stroke="#272E33" stroke-width="2" stroke-linecap="round" stroke-linejoin="round"/>
<path d="M262.082 137.771C263.209 137.645 263.962 136.111 263.765 134.345C263.567 132.579 262.494 131.249 261.367 131.375C260.24 131.501 259.486 133.035 259.684 134.801C259.881 136.567 260.955 137.897 262.082 137.771Z" fill="#272E33"/>
<path d="M242.621 139.058C243.748 138.932 244.502 137.398 244.304 135.632C244.107 133.866 243.033 132.537 241.906 132.663C240.779 132.789 240.026 134.322 240.223 136.088C240.421 137.854 241.494 139.184 242.621 139.058Z" fill="#272E33"/>
<path d="M235.045 130.677C235.045 130.677 243.366 130.186 243.259 124.625" stroke="#272E33" stroke-width="2" stroke-linecap="round" stroke-linejoin="round"/>
<path d="M259.009 116.656C259.009 116.656 264.48 114.496 266.426 119.016" stroke="#272E33" stroke-width="2" stroke-linecap="round" stroke-linejoin="round"/>
<path d="M252.459 159.895C249.532 160.431 246.559 160.631 243.587 160.477C241.763 160.401 240.384 161.535 240.92 162.668C241.87 164.676 244.123 167.05 249.486 166.422C254.773 165.794 255.83 163.358 255.815 161.473C255.815 160.34 254.114 159.573 252.459 159.895Z" stroke="#272E33" stroke-width="2" stroke-linecap="round" stroke-linejoin="round"/>
<path d="M28.0161 326.663H478.77" stroke="#272E33" stroke-width="2" stroke-linecap="round" stroke-linejoin="round"/>
<path opacity="0.1" d="M422.069 25.1179H476.563C489.333 25.1179 499.686 34.4613 499.686 45.9854V97.4839C499.686 109.008 489.333 118.351 476.563 118.351H453.662L433.819 131.716L434.086 118.351H422.069C409.3 118.351 398.946 109.008 398.946 97.4839V45.9854C398.946 34.4613 409.3 25.1179 422.069 25.1179Z" fill="#FF4240"/>
<path d="M471.314 96.2841C468.452 96.2841 465.571 96.2841 462.669 96.2841C462.664 97.015 462.659 97.6866 462.654 98.3977C461.949 98.3977 461.284 98.3977 460.579 98.3977C460.583 97.7064 460.588 97.0348 460.593 96.3039C459.848 96.3039 459.162 96.3039 458.457 96.3039C458.462 95.5533 458.467 94.8619 458.472 94.1705C459.177 94.1705 459.862 94.1705 460.568 94.1705C460.573 93.4397 460.577 92.8076 460.582 92.136C459.857 92.136 459.171 92.136 458.406 92.136C458.441 92.8471 458.456 93.5187 458.492 94.1705C457.041 94.1705 455.59 94.1705 454.099 94.1705C454.094 94.8422 454.09 95.5335 454.085 96.2446C454.77 96.2446 455.455 96.2446 456.18 96.2446C456.175 96.9755 456.171 97.6471 456.165 98.378C454.775 98.378 453.405 98.378 451.954 98.378C451.964 96.9755 451.973 95.573 451.983 94.1508C451.238 94.1508 450.553 94.1508 449.807 94.1508C449.802 94.8422 449.797 95.5138 449.792 96.2446C449.027 96.2446 448.321 96.2446 447.616 96.2446L447.636 96.2644C447.641 95.573 447.646 94.8619 447.651 94.1113C446.845 94.1113 446.16 94.1113 445.454 94.1113L445.474 94.131C445.479 93.4594 445.484 92.7878 445.489 92.0767C448.37 92.0767 451.212 92.0767 454.094 92.0767C454.099 91.3261 454.104 90.6347 454.108 89.9434C455.539 89.9434 456.97 89.9434 458.421 89.9434C458.436 87.8298 458.45 85.7557 458.465 83.6026C457.74 83.6026 457.055 83.6026 456.369 83.6026C456.334 82.9112 456.318 82.2396 456.283 81.5285C454.873 81.5285 453.482 81.5285 452.112 81.5285C452.107 82.2396 452.102 82.931 452.097 83.5828C453.548 83.5828 454.959 83.5828 456.39 83.5828C456.345 84.2544 456.3 84.9458 456.254 85.6767C454.844 85.6767 453.453 85.6767 452.083 85.6767C452.078 86.4273 452.073 87.1186 452.068 87.81C451.342 87.81 450.617 87.81 449.851 87.81C449.866 85.6767 449.881 83.6026 449.895 81.4692C449.13 81.4692 448.445 81.4692 447.699 81.4692C447.704 80.7383 447.709 80.0667 447.713 79.3951C446.968 79.3951 446.283 79.3951 445.577 79.3951C445.567 80.8371 445.558 82.2396 445.548 83.6421C444.863 83.6421 444.157 83.6421 443.452 83.6421C443.447 84.3729 443.442 85.0248 443.438 85.6767L443.458 85.6569C442.733 85.6569 442.007 85.6569 441.302 85.6569C441.312 84.2544 441.321 82.8915 441.331 81.5285C442.036 81.5285 442.721 81.5285 443.426 81.5285C443.432 80.7581 443.436 80.0865 443.441 79.3951C442.716 79.3951 442.031 79.3951 441.346 79.3951C441.34 80.126 441.335 80.8371 441.33 81.5482C440.021 81.5285 438.711 81.5087 437.401 81.5087C436.575 81.5087 435.729 81.5087 434.822 81.5087C434.827 80.7976 434.832 80.1062 434.837 79.3556C434.071 79.3556 433.366 79.3556 432.66 79.3556L432.68 79.3754C432.685 78.6643 432.691 77.9334 432.695 77.2223L432.675 77.242C434.106 77.242 435.517 77.2223 436.947 77.2223C436.943 77.9334 436.938 78.6248 436.933 79.3359C437.658 79.3359 438.364 79.3359 439.109 79.3359C439.114 78.605 439.119 77.9136 439.124 77.2223C441.26 77.2223 443.396 77.2223 445.572 77.2223C445.578 76.4717 445.582 75.8 445.587 75.0889C448.489 75.0889 451.371 75.0889 454.232 75.0889C454.222 76.5112 454.213 77.9136 454.203 79.3359C455.654 79.3359 457.084 79.3359 458.555 79.3359C458.561 78.605 458.565 77.9136 458.57 77.2223C459.276 77.2223 460.001 77.2223 460.706 77.2223C460.712 76.4717 460.716 75.8 460.721 75.0889C459.996 75.0889 459.29 75.0889 458.585 75.0889C458.59 74.3976 458.595 73.7259 458.599 73.0346C459.305 73.0346 460.03 73.0346 460.736 73.0346C460.741 72.284 460.745 71.6124 460.75 70.9012C460.025 70.9012 459.32 70.9012 458.614 70.9012C458.619 70.1901 458.624 69.4988 458.629 68.7876C457.118 68.7876 455.687 68.7876 454.276 68.7876C454.266 70.2296 454.256 71.6321 454.247 73.0346C452.836 73.0346 451.425 73.0346 449.995 73.0346C450.005 71.5728 450.015 70.1901 450.025 68.7284C450.75 68.7284 451.435 68.7284 452.181 68.7284C452.186 67.9778 452.191 67.2864 452.196 66.595C452.881 66.595 453.546 66.595 454.272 66.595C454.276 65.8839 454.281 65.2518 454.286 64.5605C455.051 64.5605 455.777 64.5605 456.482 64.5605C456.478 65.2321 456.473 65.9037 456.468 66.5555C457.919 66.5555 459.35 66.5555 460.841 66.5555C460.851 65.153 460.861 63.7901 460.87 62.4073L460.85 62.4271C461.515 62.4271 462.18 62.4271 462.905 62.4271C462.896 63.8296 462.886 65.1728 462.876 66.6345C463.662 66.6345 464.387 66.6345 465.133 66.6345L465.113 66.6148C465.108 67.3061 465.103 67.9975 465.098 68.7284C464.312 68.7284 463.627 68.7284 462.922 68.7284C462.917 69.4592 462.912 70.1309 462.907 70.8815C465.748 70.8815 468.59 70.8815 471.471 70.8815C471.466 71.6123 471.461 72.284 471.456 73.0148C470.791 73.0148 470.126 73.0148 469.421 73.0148C469.411 74.4173 469.402 75.7803 469.392 77.163C468.646 77.163 463.608 77.1828 462.883 77.1828C462.878 77.9136 462.873 78.5852 462.868 79.3359C465.709 79.3359 468.551 79.3359 471.412 79.3359C471.407 80.0667 471.402 80.7383 471.397 81.4495C470.732 81.4495 470.088 81.4495 469.402 81.4495C469.393 82.8519 469.383 84.2149 469.373 85.6964C470.058 85.6964 470.763 85.6964 471.469 85.6964L471.449 85.6767C471.42 86.8421 471.392 88.0273 471.364 89.1927C471.362 89.41 471.36 89.6471 471.358 89.9236C470.653 89.9236 470.008 89.9236 469.323 89.9236C469.313 91.3261 469.304 92.6891 469.294 94.1113C469.999 94.1113 470.684 94.1113 471.369 94.1113L471.349 94.0915C471.304 94.8619 471.299 95.5928 471.314 96.2841ZM467.104 81.568C464.968 81.568 462.852 81.568 460.736 81.568C460.722 83.6618 460.707 85.7359 460.693 87.81C462.849 87.81 464.945 87.81 467.061 87.81C467.075 85.6964 467.09 83.6421 467.104 81.568ZM467.017 94.131C467.026 92.7286 467.036 91.3853 467.045 90.0026C466.32 90.0026 465.635 90.0026 464.869 90.0026C464.864 90.7137 464.859 91.4051 464.854 92.1162C464.109 92.1162 463.423 92.1162 462.718 92.1162C462.713 92.8076 462.709 93.4594 462.704 94.1113C464.155 94.131 465.566 94.131 467.017 94.131ZM452.061 77.2815C451.335 77.2815 450.65 77.2815 449.945 77.2815C449.94 77.9926 449.935 78.6643 449.93 79.3556C450.656 79.3556 451.341 79.3556 452.046 79.3556C452.051 78.6445 452.056 77.9729 452.061 77.2815Z" fill="#FF4240"/>
<path d="M439.182 60.3346C434.164 60.3346 429.186 60.3346 424.189 60.3346C424.223 55.4358 424.257 50.537 424.292 45.6184C429.289 45.6184 434.267 45.6184 439.284 45.6184C439.25 50.5172 439.216 55.3963 439.182 60.3346ZM437.06 58.221C437.085 54.7049 437.109 51.2283 437.133 47.732C433.546 47.732 430.02 47.732 426.453 47.732C426.429 51.2481 426.404 54.7246 426.38 58.221C429.947 58.221 433.493 58.221 437.06 58.221Z" fill="#FF4240"/>
<path d="M463.02 60.3346C463.054 55.416 463.088 50.537 463.123 45.6184C468.12 45.6184 473.098 45.6184 478.115 45.6184C478.081 50.5172 478.047 55.416 478.013 60.3346C473.015 60.3346 468.058 60.3346 463.02 60.3346ZM465.264 47.732C465.239 51.2678 465.215 54.7247 465.191 58.2407C468.778 58.2407 472.324 58.2407 475.911 58.2407C475.936 54.7247 475.96 51.2481 475.985 47.732C472.378 47.732 468.851 47.732 465.264 47.732Z" fill="#FF4240"/>
<path d="M423.903 98.3562C423.937 93.4574 423.971 88.5981 424.005 83.6796C429.003 83.6796 434.001 83.6796 439.018 83.6796C438.984 88.5586 438.95 93.4377 438.916 98.3562C433.918 98.3562 428.961 98.3562 423.903 98.3562ZM426.187 85.7537C426.163 89.3092 426.138 92.7858 426.114 96.2624C429.701 96.2624 433.248 96.2624 436.794 96.2624C436.819 92.7463 436.843 89.2697 436.868 85.7537C433.281 85.7537 429.754 85.7537 426.187 85.7537Z" fill="#FF4240"/>
<path d="M471.428 85.761C471.413 85.0894 471.377 84.4178 471.342 83.7067C472.813 83.7067 474.244 83.7067 475.695 83.7067C475.705 82.2647 475.714 80.8622 475.725 79.4202C475.039 79.4202 474.354 79.4202 473.609 79.4202C473.614 78.6894 473.618 78.0177 473.624 77.2671C472.858 77.2671 472.173 77.2671 471.447 77.2671C471.452 76.5363 471.457 75.8646 471.462 75.1338C472.167 75.1338 472.873 75.1338 473.618 75.1338C473.628 73.7313 473.638 72.3683 473.647 70.9856C475.118 70.9856 476.549 70.9856 478 70.9856C477.995 71.677 477.991 72.3486 477.985 73.0794C477.28 73.0794 476.575 73.0794 475.849 73.0794C475.845 73.7708 475.84 74.4227 475.835 75.114C476.54 75.114 477.226 75.114 477.971 75.114C477.946 78.6696 477.922 82.1462 477.897 85.7413C475.721 85.7413 473.564 85.7413 471.428 85.761C471.428 85.761 471.408 85.7413 471.428 85.761Z" fill="#FF4240"/>
<path d="M430.498 77.2624C430.503 76.5711 430.508 75.8797 430.513 75.1488C429.062 75.1488 427.671 75.1488 426.24 75.1488C426.226 77.2624 426.211 79.3563 426.196 81.4896C425.451 81.4896 424.765 81.4896 424.04 81.4896C424.064 77.9933 424.089 74.497 424.114 70.9414C425.544 70.9414 426.955 70.9414 428.366 70.9414L428.346 70.9216C428.341 71.6327 428.336 72.3241 428.331 73.0352C429.076 73.0352 429.782 73.0352 430.527 73.0352C430.532 72.3044 430.537 71.613 430.542 70.9216L430.522 70.9414C431.973 70.9414 433.404 70.9414 434.834 70.9414C434.824 72.3636 434.815 73.7068 434.805 75.1093C434.08 75.1093 433.374 75.1093 432.669 75.1093C432.664 75.8599 432.659 76.5513 432.654 77.2427L432.675 77.2229C431.949 77.2427 431.223 77.2427 430.498 77.2624Z" fill="#FF4240"/>
<path d="M428.396 66.6582C427.71 66.678 427.025 66.678 426.34 66.6977L426.36 66.7175C426.324 66.0459 426.289 65.3743 426.254 64.6434C425.548 64.6434 424.863 64.6434 424.138 64.6434C424.143 63.9125 424.147 63.2409 424.152 62.5298C427.719 62.5298 431.286 62.5298 434.913 62.5298C434.909 63.2014 434.904 63.8928 434.899 64.6434C435.644 64.6434 436.329 64.6434 437.014 64.6434L436.994 64.6236C436.99 65.2952 436.985 65.9471 436.98 66.678C438.471 66.678 439.922 66.678 441.353 66.678L441.333 66.6582C441.328 67.3693 441.323 68.0607 441.318 68.7718C438.396 68.7718 435.555 68.7718 432.673 68.7718C432.678 68.0607 432.683 67.3891 432.688 66.6582C431.942 66.6582 431.237 66.6582 430.532 66.6582L430.552 66.678C430.556 66.0064 430.561 65.3545 430.566 64.6829C429.78 64.6829 429.074 64.6829 428.369 64.6829C428.385 65.3545 428.38 66.0064 428.396 66.6582Z" fill="#FF4240"/>
<path d="M447.881 58.2207C447.886 57.5689 447.89 56.917 447.895 56.2059C450.737 56.2059 453.578 56.2059 456.52 56.2059C456.531 54.7244 456.54 53.3219 456.55 51.8997L456.53 51.9195C457.235 51.9195 457.961 51.9195 458.727 51.9195C458.732 51.1491 458.737 50.4577 458.742 49.7664L458.721 49.7861C459.427 49.7861 460.132 49.7861 460.857 49.7861C460.843 51.9195 460.828 54.0133 460.813 56.1664C460.128 56.1664 459.422 56.1664 458.677 56.1664C458.672 56.8973 458.667 57.5689 458.662 58.2405L458.683 58.2207C457.957 58.2207 457.252 58.2207 456.466 58.2207C456.461 58.9516 456.456 59.643 456.451 60.3738C455.685 60.3738 454.98 60.3738 454.295 60.3738C454.3 59.6627 454.305 58.9714 454.309 58.2602C453.564 58.2602 452.899 58.2602 452.254 58.2602C452.249 58.9911 452.244 59.6825 452.239 60.3738C451.514 60.3738 450.768 60.3541 450.043 60.3541L450.063 60.3738C450.068 59.6825 450.073 58.9714 450.078 58.2207C449.272 58.201 448.567 58.201 447.881 58.2207Z" fill="#FF4240"/>
<path d="M437.036 64.6404C437.04 63.949 437.045 63.2576 437.05 62.507C439.207 62.507 441.343 62.507 443.6 62.507C443.605 61.7564 443.61 61.0453 443.615 60.3342L443.595 60.3539C444.28 60.3539 444.945 60.3539 445.69 60.3539C445.696 59.5835 445.701 58.8922 445.705 58.2008L445.685 58.2206C446.411 58.2206 447.156 58.2206 447.882 58.2206L447.862 58.2008C447.857 58.8922 447.852 59.6033 447.847 60.3539C448.612 60.3539 449.338 60.3539 450.043 60.3539L450.023 60.3342C450.013 61.7761 450.023 63.1984 450.013 64.6404C449.288 64.6404 448.542 64.6404 447.817 64.6404C447.822 63.9292 447.827 63.2379 447.831 62.5268C447.046 62.5268 446.36 62.5268 445.655 62.5268C445.65 63.2576 445.645 63.949 445.64 64.6404C444.955 64.6404 444.27 64.6404 443.524 64.6404C443.52 65.3317 443.515 65.9638 443.51 66.6552C442.745 66.6552 442.039 66.6552 441.354 66.6552L441.374 66.6749C441.379 66.0033 441.384 65.3317 441.388 64.6206C439.877 64.6206 438.446 64.6206 437.036 64.6404Z" fill="#FF4240"/>
<path d="M447.615 96.2875C447.61 96.9789 447.605 97.6702 447.6 98.4011C445.424 98.4011 443.328 98.4011 441.172 98.4011C441.196 94.9048 441.221 91.4085 441.245 87.8529C441.991 87.8529 442.717 87.8529 443.422 87.8529L443.402 87.8331C443.387 89.927 443.373 92.0011 443.358 94.1542C444.083 94.1542 444.768 94.1542 445.453 94.1542L445.433 94.1344C445.429 94.8258 445.424 95.5369 445.418 96.2875C446.184 96.3073 446.909 96.3073 447.615 96.2875Z" fill="#FF4240"/>
<path d="M452.348 47.694C452.993 47.694 453.638 47.694 454.343 47.694C454.348 47.0224 454.353 46.3508 454.358 45.6396C456.554 45.6396 458.711 45.6396 460.887 45.6396C460.882 46.3113 460.877 47.0026 460.872 47.7335C460.167 47.7335 459.482 47.7335 458.736 47.7335C458.731 48.4446 458.727 49.1162 458.722 49.7878L458.742 49.7681C458.017 49.7681 457.291 49.7681 456.546 49.7681C456.54 50.5385 456.535 51.2298 456.531 51.9212L456.551 51.9014C455.825 51.9014 455.12 51.9014 454.354 51.9014C454.359 51.1903 454.364 50.5187 454.369 49.8076C453.664 49.8076 452.999 49.8076 452.334 49.8076L452.354 49.8273C452.359 49.0965 452.364 48.3853 452.348 47.694Z" fill="#FF4240"/>
<path d="M443.614 60.3313C442.889 60.3313 442.164 60.3313 441.418 60.3313C441.428 58.9288 441.437 57.5856 441.447 56.1831C442.152 56.1831 442.837 56.1831 443.583 56.1831C443.588 55.4522 443.593 54.7806 443.598 54.0498C442.893 54.0498 442.207 54.0498 441.482 54.0498C441.487 53.3189 441.492 52.6473 441.497 51.9362C443.613 51.9362 445.708 51.9362 447.865 51.9362C447.86 52.6275 447.855 53.2991 447.85 54.03C447.145 54.03 446.46 54.03 445.714 54.03C445.704 55.4522 445.694 56.835 445.685 58.2177L445.705 58.1979C445.02 58.1979 444.315 58.1979 443.609 58.1979C443.604 58.9683 443.599 59.6597 443.614 60.3313Z" fill="#FF4240"/>
<path d="M475.682 94.1561C475.678 94.8475 475.673 95.5388 475.668 96.2895C476.373 96.2895 477.078 96.2895 477.804 96.2895C477.799 97.0203 477.794 97.6919 477.789 98.4031C475.633 98.4031 473.497 98.4031 471.3 98.4031C471.305 97.6919 471.31 97.0006 471.315 96.2895L471.295 96.3092C472 96.3092 472.725 96.3092 473.491 96.3092C473.496 95.5389 473.501 94.8475 473.506 94.1561L473.486 94.1759C474.231 94.1759 474.957 94.1759 475.682 94.1561Z" fill="#FF4240"/>
<path d="M469.48 64.6631C469.453 65.6903 469.425 66.7175 469.398 67.7446C469.396 68.0804 469.393 68.4162 469.391 68.7718C468.665 68.7718 467.98 68.7718 467.235 68.7718C467.239 68.1002 467.244 67.4088 467.249 66.678C466.484 66.678 465.778 66.678 465.093 66.678L465.113 66.6977C465.123 65.315 465.132 63.9323 465.142 62.5298C465.807 62.5298 466.492 62.5298 467.238 62.5298C467.233 63.2014 467.228 63.8928 467.223 64.6829C468.029 64.6631 468.755 64.6631 469.48 64.6631Z" fill="#FF4240"/>
<path d="M473.519 92.1376C473.524 91.4463 473.529 90.7549 473.534 90.024C474.965 90.024 476.376 90.024 477.826 90.024C477.817 91.387 477.807 92.75 477.798 94.1525C477.072 94.1525 476.367 94.1525 475.662 94.1525L475.682 94.1722C475.686 93.5006 475.691 92.8487 475.696 92.1179C474.91 92.1179 474.205 92.1179 473.519 92.1376Z" fill="#FF4240"/>
<path d="M452.333 49.7825C452.306 50.7306 452.28 51.6985 452.253 52.6467C452.25 53.0813 452.22 57.2887 452.217 57.7628C451.471 57.7628 450.806 57.7628 450.081 57.7628C450.091 56.3603 450.127 51.2047 450.137 49.8022C450.882 49.7825 451.608 49.7825 452.333 49.7825C452.333 49.7825 452.353 49.7825 452.333 49.7825Z" fill="#FF4240"/>
<path d="M458.682 58.2168C459.387 58.2168 460.092 58.2168 460.858 58.2168C460.848 59.6785 460.838 61.081 460.828 62.5033L460.848 62.4835C460.123 62.4835 459.377 62.4835 458.652 62.5033C458.662 61.0613 458.672 59.6193 458.682 58.2168Z" fill="#FF4240"/>
<path d="M428.366 70.9416C428.376 69.4996 428.386 68.0774 428.396 66.6354L428.375 66.6551C429.101 66.6551 429.846 66.6551 430.572 66.6551L430.552 66.6354C430.542 68.0576 430.532 69.4996 430.522 70.9218L430.542 70.9021C429.817 70.9218 429.091 70.9218 428.366 70.9416Z" fill="#FF4240"/>
<path d="M445.744 49.7073C445.753 48.3444 445.763 47.0011 445.772 45.6184C446.478 45.6184 447.183 45.6184 447.909 45.6184C447.899 46.9616 447.89 48.3049 447.88 49.7073C447.195 49.7073 446.49 49.7073 445.744 49.7073Z" fill="#FF4240"/>
<path d="M475.928 64.5841C475.203 64.5841 474.477 64.5841 473.732 64.5841C473.736 63.9125 473.741 63.2409 473.746 62.5298C474.431 62.5298 475.137 62.5298 475.943 62.5298C475.938 63.2211 475.933 63.9125 475.928 64.5841Z" fill="#FF4240"/>
<path d="M452.369 47.6727C451.643 47.6727 450.918 47.6727 450.152 47.6727C450.157 47.0011 450.162 46.3295 450.167 45.6184C450.852 45.6184 451.557 45.6184 452.363 45.6184C452.358 46.3098 452.353 47.0011 452.369 47.6727C452.369 47.6727 452.349 47.6925 452.369 47.6727Z" fill="#FF4240"/>
<path d="M432.661 79.3773C432.656 80.0687 432.651 80.76 432.646 81.4909C431.901 81.4909 431.215 81.4909 430.47 81.4909C430.475 80.7798 430.48 80.0884 430.485 79.3773L430.464 79.3971C431.21 79.3971 431.935 79.3971 432.661 79.3773Z" fill="#FF4240"/>
<path d="M471.521 66.6725C472.226 66.6725 472.911 66.6725 473.616 66.6725C473.611 67.3638 473.607 68.0552 473.602 68.7663C472.916 68.7663 472.231 68.7663 471.506 68.7663C471.511 68.0947 471.515 67.4034 471.521 66.6725Z" fill="#FF4240"/>
<path d="M426.361 66.6936C426.316 67.385 426.291 68.0566 426.245 68.7677C425.54 68.7677 424.855 68.7677 424.13 68.7677C424.134 68.0763 424.139 67.4047 424.144 66.6936C424.89 66.6936 425.635 66.6936 426.361 66.6936Z" fill="#FF4240"/>
<path d="M430.484 79.378C429.758 79.378 429.053 79.378 428.307 79.378C428.312 78.6669 428.317 77.9755 428.322 77.2644C429.068 77.2644 429.793 77.2644 430.499 77.2644L430.478 77.2446C430.494 77.9557 430.489 78.6866 430.484 79.378Z" fill="#FF4240"/>
<path d="M469.499 64.6618C469.504 63.9507 469.509 63.2593 469.514 62.5087C470.139 62.5087 470.804 62.5087 471.489 62.5087C471.484 63.2 471.48 63.8716 471.474 64.642C470.809 64.6618 470.144 64.6618 469.499 64.6618C469.499 64.6618 469.479 64.6618 469.499 64.6618Z" fill="#FF4240"/>
<path d="M471.329 94.1737C471.334 93.5219 471.339 92.87 471.344 92.1391C472.069 92.1391 472.795 92.1391 473.52 92.1391L473.5 92.1194C473.495 92.8108 473.49 93.4824 473.486 94.1737L473.506 94.154C472.78 94.154 472.035 94.154 471.329 94.1737Z" fill="#FF4240"/>
<path d="M443.628 49.7262C442.923 49.7262 442.238 49.7262 441.512 49.7262C441.517 49.0743 441.521 48.4225 441.526 47.7509C442.231 47.7509 442.916 47.7509 443.642 47.7509C443.637 48.4027 443.633 49.0546 443.628 49.7262Z" fill="#FF4240"/>
<path d="M443.423 87.8534C443.428 87.1423 443.433 86.4114 443.438 85.7003L443.417 85.7201C444.123 85.7201 444.808 85.7003 445.513 85.7003C445.508 86.4114 445.523 87.1226 445.519 87.8139L445.539 87.7942C444.833 87.8139 444.108 87.8337 443.423 87.8534Z" fill="#FF4240"/>
<path d="M475.927 64.6018C476.612 64.6018 477.297 64.6018 478.023 64.6018C478.018 65.3129 478.013 65.9648 478.009 66.6364C477.303 66.6364 476.618 66.6364 475.933 66.6364C475.918 65.945 475.922 65.2734 475.927 64.6018C475.927 64.6018 475.927 64.582 475.927 64.6018Z" fill="#FF4240"/>
<path d="M441.329 73.0776C439.818 73.0776 438.427 73.0776 436.976 73.0776C436.981 72.3665 436.986 71.6949 436.991 70.964C440.558 70.964 444.125 70.964 447.732 70.964C447.727 71.6554 447.723 72.327 447.718 73.0381C446.327 73.0381 444.957 73.0381 443.506 73.0381C443.501 73.7295 443.496 74.3813 443.492 75.0529C442.746 75.0529 442.061 75.0529 441.315 75.0529C441.32 74.4406 441.324 73.7887 441.329 73.0776Z" fill="#FF4240"/>
<path d="M445.64 64.6199C446.365 64.6199 447.111 64.6199 447.836 64.6199C447.827 65.9828 447.769 74.2002 447.759 75.6027C447.014 75.6027 446.309 75.6027 445.563 75.6027C445.573 74.2199 445.63 66.0026 445.64 64.6199Z" fill="#FF4240"/>
<path d="M439.123 77.263C438.398 77.263 437.652 77.263 436.927 77.263C436.931 76.5716 436.936 75.8803 436.941 75.1494C437.647 75.1494 438.352 75.1494 439.138 75.1494C439.133 75.8605 439.128 76.5519 439.123 77.263Z" fill="#FF4240"/>
<path d="M450.012 64.6199C450.718 64.6199 451.423 64.6199 452.209 64.6199C452.204 65.331 452.199 66.0026 452.194 66.6742C451.469 66.6742 450.764 66.6742 449.998 66.6742C450.003 65.9433 450.008 65.2915 450.012 64.6199Z" fill="#FF4240"/>
<path d="M456.404 73.0756C456.399 73.7669 456.394 74.4385 456.389 75.1299C455.664 75.1299 454.918 75.1299 454.193 75.1299C454.198 74.4385 454.202 73.7669 454.207 73.0756C454.932 73.0756 455.678 73.0756 456.404 73.0756Z" fill="#FF4240"/>
<path d="M445.518 87.8115C446.203 87.8115 446.888 87.8115 447.614 87.8115C447.609 88.5621 447.604 89.2338 447.599 89.9449C446.894 89.9449 446.208 89.9449 445.523 89.9449C445.528 89.2338 445.533 88.5226 445.518 87.8115C445.518 87.8115 445.538 87.8115 445.518 87.8115Z" fill="#FF4240"/>
<path d="M452.028 87.8278C452.693 87.8278 453.358 87.8278 454.124 87.8278C454.119 88.5784 454.114 89.2895 454.109 89.9809C453.424 89.9809 452.759 89.9809 452.013 89.9809C452.019 89.2302 452.023 88.5389 452.028 87.8278Z" fill="#FF4240"/>
<path d="M445.493 85.718C445.498 85.0267 445.503 84.3551 445.508 83.6637C446.213 83.6637 446.918 83.6637 447.644 83.6637C447.639 84.3551 447.635 84.9872 447.63 85.718C446.924 85.718 446.219 85.718 445.493 85.718Z" fill="#FF4240"/>
<path d="M458.673 62.4872C458.668 63.1785 458.663 63.8699 458.658 64.6403C457.892 64.6403 457.166 64.6403 456.461 64.6403C456.466 63.9489 456.471 63.2576 456.476 62.4872C457.202 62.4872 457.927 62.4872 458.673 62.4872Z" fill="#FF4240"/>
<path d="M452.22 60.3335C452.926 60.3335 453.611 60.3335 454.316 60.3335C454.311 61.0249 454.306 61.7162 454.301 62.4471C453.576 62.4471 452.931 62.4471 452.205 62.4471C452.21 61.736 452.215 61.0446 452.22 60.3335Z" fill="#FF4240"/>
<path d="M464.88 85.6976C464.175 85.6976 463.489 85.6976 462.784 85.6976C462.789 85.0458 462.793 84.3939 462.798 83.7223C463.483 83.7223 464.168 83.7223 464.894 83.7223C464.889 84.3544 464.885 85.026 464.88 85.6976Z" fill="#FF4240"/>
<path d="M456.369 75.1069C457.095 75.1069 457.84 75.1069 458.566 75.1069C458.561 75.818 458.556 76.5489 458.551 77.26C457.825 77.26 457.12 77.26 456.354 77.26C456.359 76.5094 456.364 75.7983 456.369 75.1069Z" fill="#FF4240"/>
<path d="M458.598 73.096C457.873 73.096 457.127 73.096 456.402 73.096C456.407 72.4046 456.412 71.7132 456.417 70.9429C457.163 70.9429 457.888 70.9429 458.614 70.9429C458.609 71.654 458.604 72.3651 458.598 73.096Z" fill="#FF4240"/>
<path d="M434.938 56.1283C432.742 56.1283 430.646 56.1283 428.51 56.1283C428.525 54.0344 428.539 51.9603 428.554 49.8665C428.614 49.8467 428.675 49.8072 428.756 49.8072C430.71 49.8072 432.645 49.7875 434.6 49.8072C434.741 49.8072 434.981 49.985 434.981 50.0838C434.987 52.0789 434.953 54.0739 434.938 56.1283Z" fill="#FF4240"/>
<path d="M467.387 49.825C469.523 49.825 471.619 49.825 473.755 49.825C473.74 51.9385 473.725 54.0126 473.711 56.1065C471.575 56.1065 469.479 56.1065 467.343 56.1065C467.357 54.0324 467.372 51.9385 467.387 49.825Z" fill="#FF4240"/>
<path d="M434.696 87.8701C434.682 89.964 434.667 92.0183 434.653 94.1319C432.517 94.1319 430.401 94.1319 428.244 94.1319C428.259 92.0578 428.273 89.9837 428.288 87.8701C430.424 87.8701 432.54 87.8701 434.696 87.8701Z" fill="#FF4240"/>
<path fill-rule="evenodd" clip-rule="evenodd" d="M37.0259 113.925C35.1654 114.738 33.0341 113.79 32.3914 111.859C31.9178 110.437 31.5795 109.59 31.4442 108.912C31.275 107.964 32.4252 106.033 33.7445 103.73C34.455 102.545 34.8609 101.529 34.9624 100.682C35.0977 99.869 34.9286 98.9545 34.5226 98.0061C34.0152 96.8207 33.2371 96.0416 32.1884 95.7029C31.1397 95.3304 30.091 95.3981 29.0085 95.8723C26.8773 96.7868 25.9301 98.548 26.1669 101.122C26.336 102.85 25.2197 104.408 23.5621 104.882V104.882C21.3632 105.491 19.1643 103.866 19.0967 101.562C19.029 99.4964 19.4011 97.5997 20.213 95.9062C21.5662 93.0949 23.7989 91.0288 26.9111 89.674C30.091 88.2853 33.1356 88.0483 36.1126 88.9628C39.0557 89.8773 41.1531 91.7062 42.3709 94.5175C43.8932 98.0061 43.3519 101.698 40.7809 105.593C39.6646 107.287 39.0895 108.506 38.988 109.217C38.9542 109.454 38.988 109.759 39.0218 110.098C39.3263 111.724 38.5144 113.282 37.0259 113.925V113.925ZM41.5252 123.172L41.2208 123.307C39.2249 124.188 36.8907 123.24 36.0111 121.241V121.241C35.1316 119.243 36.0788 116.906 38.0747 116.025L38.3792 115.89C40.3751 115.009 42.7092 115.957 43.5888 117.956V117.956C44.4683 119.954 43.555 122.291 41.5252 123.172Z" fill="#FF4240"/>
<path fill-rule="evenodd" clip-rule="evenodd" d="M55.0252 70.57C52.2851 70.4345 50.2554 67.962 50.6275 65.2524C50.8981 63.254 50.9996 62.0008 51.2703 61.0524C51.6424 59.7654 54.2134 58.1396 57.258 56.1413C58.8479 55.0913 59.9643 54.109 60.607 53.1945C61.2497 52.2462 61.6219 51.0946 61.6895 49.6382C61.791 47.8769 61.3174 46.4544 60.2349 45.3705C59.1862 44.2867 57.833 43.7109 56.2431 43.6093C53.0632 43.4399 50.8643 44.9979 49.5788 48.2834C48.7331 50.4849 46.3989 51.7043 44.0985 51.2639V51.2639C41.054 50.6543 39.3625 47.335 40.6818 44.4899C41.8658 41.9158 43.4558 39.8497 45.4855 38.2916C48.8346 35.7175 52.8264 34.532 57.4609 34.803C62.1631 35.074 66.0534 36.632 69.098 39.5448C72.1426 42.4577 73.5634 45.9802 73.3266 50.1462C73.056 55.3284 70.1467 59.4944 64.6326 62.7121C62.2308 64.1008 60.7761 65.2185 60.2349 66.0652C60.0657 66.3362 59.8966 66.7088 59.7613 67.1491C59.1862 69.2829 57.2241 70.6716 55.0252 70.57V70.57ZM54.89 84.5924L54.4502 84.5585C51.4733 84.3892 49.1729 81.8489 49.3421 78.8683V78.8683C49.5112 75.8877 52.0484 73.5846 55.0253 73.7539L55.4651 73.7878C58.442 73.9571 60.7424 76.4974 60.5732 79.478V79.478C60.4379 82.4586 57.8669 84.7617 54.89 84.5924Z" fill="#FF4240"/>
<path fill-rule="evenodd" clip-rule="evenodd" d="M441.889 256.452C439.966 256.356 438.542 254.621 438.803 252.72C438.993 251.318 439.064 250.438 439.254 249.773C439.515 248.87 441.319 247.729 443.455 246.327C444.571 245.59 445.355 244.9 445.806 244.259C446.257 243.593 446.518 242.785 446.565 241.763C446.636 240.527 446.304 239.529 445.544 238.768C444.809 238.008 443.859 237.604 442.743 237.533C440.512 237.414 438.969 238.507 438.067 240.812C437.473 242.357 435.835 243.213 434.221 242.904V242.904C432.085 242.476 430.898 240.147 431.824 238.151C432.654 236.344 433.77 234.894 435.194 233.801C437.545 231.995 440.346 231.163 443.598 231.353C446.898 231.543 449.627 232.636 451.764 234.68C453.9 236.724 454.897 239.196 454.731 242.12C454.541 245.756 452.5 248.68 448.63 250.937C446.945 251.912 445.924 252.696 445.544 253.29C445.426 253.481 445.307 253.742 445.212 254.051C444.809 255.548 443.432 256.523 441.889 256.452V256.452ZM441.794 266.291L441.485 266.267C439.396 266.149 437.782 264.366 437.901 262.274V262.274C438.019 260.183 439.8 258.567 441.889 258.685L442.197 258.709C444.286 258.828 445.901 260.611 445.782 262.702V262.702C445.687 264.794 443.883 266.41 441.794 266.291Z" fill="#FF4240"/>
<path d="M403.069 170.739C401.887 169.66 396.8 163.445 397.877 157.844" stroke="#2E186A" stroke-width="0.911526" stroke-linecap="round" stroke-linejoin="round"/>
<path d="M395.329 167.551C396.961 167.338 399.106 167.393 401.91 169.809C403.473 171.151 406.38 173.586 406.38 173.586C409.828 176.538 415.135 179.293 415.135 179.293C415.135 179.293 414.816 182.419 411.247 182.885C407.679 183.35 404.077 180.288 402.565 179.141C400.623 177.666 398.753 177.067 397.451 177.204" stroke="#2E186A" stroke-width="0.911526" stroke-linecap="round" stroke-linejoin="round"/>
<path d="M427.554 148.227L425.644 144.289V137.324L425.059 132.483C424.961 131.679 424.618 130.926 424.076 130.325C423.534 129.725 422.819 129.306 422.03 129.128C421.973 129.037 421.893 128.963 421.8 128.911C421.706 128.859 421.601 128.832 421.494 128.831H399.978C399.875 128.833 399.774 128.859 399.684 128.908C399.593 128.957 399.515 129.027 399.457 129.112C398.649 129.282 397.916 129.707 397.365 130.323C396.815 130.939 396.476 131.715 396.398 132.538L395.944 137.324V193.161C395.945 194.138 396.284 195.085 396.904 195.841C397.524 196.596 398.386 197.113 399.344 197.305C399.308 197.38 399.289 197.462 399.289 197.546V197.688C399.289 197.84 399.349 197.986 399.457 198.093C399.564 198.201 399.71 198.261 399.862 198.261H421.634C421.786 198.261 421.932 198.201 422.039 198.093C422.147 197.986 422.207 197.84 422.207 197.688V197.546C422.207 197.468 422.191 197.39 422.16 197.318C422.684 197.225 423.185 197.033 423.636 196.752C424.476 196.282 425.109 195.514 425.411 194.601L425.375 194.627C425.478 194.346 425.551 194.055 425.592 193.759L426.316 193.733L427.384 192.836C427.703 192.451 427.878 191.966 427.879 191.465L427.861 150.471C427.861 149.54 428.019 149.353 427.554 148.227Z" fill="#FF504F" stroke="#190C4C" stroke-width="1.29601" stroke-miterlimit="10"/>
<path d="M427.385 192.84L426.317 193.736L425.535 193.764L425.638 144.286L427.548 148.224C428.013 149.35 427.855 149.534 427.855 150.482L427.872 191.475C427.873 191.973 427.7 192.455 427.385 192.84V192.84Z" fill="#2E186A"/>
<path d="M425.632 145.197L427.313 148.541C427.428 148.781 427.497 149.04 427.517 149.305C427.517 149.375 427.517 149.446 427.517 149.516L427.419 191.562C427.42 191.907 427.305 192.243 427.095 192.517L425.78 193.76H425.535L425.632 145.197Z" fill="#190C4C"/>
<path d="M425.888 148.216L425.885 191.713" stroke="#6145A5" stroke-width="0.718565" stroke-miterlimit="10" stroke-linecap="round"/>
<path d="M395.94 137.321H425.634V193.167C425.634 194.288 425.189 195.362 424.397 196.155C423.604 196.947 422.53 197.392 421.409 197.392H400.165C399.044 197.392 397.97 196.947 397.177 196.155C396.385 195.362 395.94 194.288 395.94 193.167V137.321Z" fill="#2E186A"/>
<path d="M396.775 142.809H424.776V192.799C424.776 193.551 424.477 194.273 423.945 194.804C423.414 195.336 422.692 195.635 421.94 195.635H399.611C398.859 195.635 398.137 195.336 397.605 194.804C397.074 194.273 396.775 193.551 396.775 192.799V142.809V142.809Z" fill="#190C4C"/>
<path d="M424.156 144.431H397.488V188.704H424.156V144.431Z" fill="white"/>
<path d="M421.635 196.969H399.857C399.541 196.969 399.284 197.226 399.284 197.543V197.685C399.284 198.001 399.541 198.258 399.857 198.258H421.635C421.951 198.258 422.208 198.001 422.208 197.685V197.543C422.208 197.226 421.951 196.969 421.635 196.969Z" fill="#2E186A"/>
<path d="M400.833 197.385H420.535" stroke="#6145A5" stroke-width="0.718565" stroke-miterlimit="10" stroke-linecap="round"/>
<path d="M424.778 144.436H396.775V139.066C396.775 138.923 396.832 138.785 396.933 138.683L397.975 137.641C398.077 137.54 398.215 137.483 398.359 137.483H423.191C423.334 137.483 423.471 137.54 423.573 137.641L424.615 138.683C424.665 138.733 424.705 138.793 424.733 138.859C424.76 138.925 424.774 138.995 424.774 139.066L424.778 144.436Z" fill="#FF4240"/>
<path d="M410.823 140.773C411.324 140.773 411.73 140.367 411.73 139.866C411.73 139.366 411.324 138.96 410.823 138.96C410.323 138.96 409.917 139.366 409.917 139.866C409.917 140.367 410.323 140.773 410.823 140.773Z" fill="#11073D"/>
<path d="M425.638 137.322H395.943L396.397 132.536C396.487 131.576 396.933 130.684 397.646 130.034C398.359 129.385 399.289 129.025 400.253 129.025H421.154C422.114 129.025 423.041 129.376 423.759 130.013C424.477 130.65 424.937 131.527 425.052 132.48L425.638 137.322Z" fill="#2E186A"/>
<path d="M422.356 135.151H399.207C399.117 135.151 399.028 135.131 398.946 135.093C398.864 135.056 398.791 135.001 398.732 134.932C398.673 134.864 398.63 134.784 398.605 134.697C398.58 134.611 398.574 134.52 398.587 134.431L399.337 129.395C399.358 129.239 399.435 129.095 399.553 128.991C399.671 128.886 399.822 128.827 399.98 128.825H421.488C421.645 128.828 421.796 128.887 421.914 128.991C422.031 129.096 422.107 129.239 422.129 129.395L422.974 134.431C422.988 134.52 422.982 134.611 422.957 134.697C422.932 134.784 422.889 134.864 422.83 134.932C422.772 135.001 422.699 135.056 422.617 135.094C422.535 135.131 422.446 135.151 422.356 135.151V135.151Z" fill="#FF4240" stroke="#2E186A" stroke-width="0.529923" stroke-miterlimit="10"/>
<path d="M407.542 141.903H407.194V143.119H407.542V141.903Z" fill="white"/>
<path d="M407.524 141.36C407.503 141.341 407.479 141.326 407.452 141.315C407.396 141.294 407.335 141.294 407.279 141.315C407.253 141.326 407.229 141.341 407.208 141.36C407.188 141.379 407.172 141.402 407.161 141.426C407.15 141.453 407.145 141.481 407.145 141.51C407.145 141.538 407.15 141.565 407.161 141.591C407.173 141.616 407.188 141.638 407.208 141.657C407.228 141.676 407.252 141.691 407.279 141.701C407.335 141.722 407.396 141.722 407.452 141.701C407.479 141.691 407.503 141.676 407.524 141.657C407.543 141.638 407.558 141.616 407.57 141.591C407.582 141.566 407.588 141.538 407.588 141.51C407.588 141.481 407.582 141.452 407.57 141.426C407.559 141.402 407.543 141.379 407.524 141.36V141.36Z" fill="white"/>
<path d="M409.589 141.36C409.568 141.341 409.545 141.326 409.519 141.315C409.492 141.305 409.462 141.299 409.432 141.299C409.403 141.299 409.373 141.304 409.346 141.315C409.32 141.326 409.295 141.341 409.274 141.36C409.255 141.38 409.239 141.403 409.228 141.428C409.217 141.454 409.212 141.482 409.212 141.51C409.212 141.538 409.217 141.565 409.228 141.591C409.239 141.616 409.254 141.639 409.274 141.657C409.295 141.676 409.319 141.691 409.346 141.701C409.373 141.711 409.403 141.717 409.432 141.716C409.462 141.716 409.492 141.711 409.519 141.701C409.571 141.68 409.613 141.641 409.637 141.591C409.648 141.565 409.654 141.538 409.655 141.51C409.655 141.481 409.649 141.454 409.637 141.428C409.626 141.402 409.61 141.379 409.589 141.36V141.36Z" fill="white"/>
<path d="M409.608 141.903H409.26V143.119H409.608V141.903Z" fill="white"/>
<path d="M411.076 142.059C411.019 142.001 410.952 141.956 410.878 141.925C410.8 141.892 410.716 141.875 410.631 141.876C410.553 141.874 410.475 141.89 410.404 141.922C410.343 141.951 410.29 141.992 410.246 142.043V141.909H409.898V143.618H410.246V142.993C410.29 143.041 410.343 143.079 410.402 143.108C410.472 143.137 410.548 143.151 410.624 143.149C410.71 143.15 410.794 143.134 410.873 143.101C410.947 143.07 411.015 143.025 411.071 142.967C411.127 142.909 411.172 142.841 411.201 142.765C411.263 142.603 411.263 142.423 411.201 142.26C411.173 142.186 411.13 142.117 411.076 142.059V142.059ZM410.876 142.644C410.861 142.683 410.838 142.719 410.81 142.75C410.78 142.779 410.744 142.803 410.706 142.821C410.662 142.839 410.615 142.848 410.567 142.847C410.521 142.848 410.474 142.839 410.432 142.821C410.392 142.805 410.357 142.782 410.327 142.752C410.297 142.722 410.274 142.685 410.26 142.646C410.227 142.56 410.227 142.466 410.26 142.38C410.276 142.341 410.299 142.305 410.327 142.274C410.357 142.244 410.393 142.221 410.432 142.205C410.475 142.188 410.521 142.179 410.567 142.18C410.615 142.179 410.662 142.188 410.706 142.206C410.745 142.223 410.781 142.247 410.81 142.278C410.839 142.308 410.861 142.344 410.876 142.383C410.892 142.424 410.899 142.468 410.899 142.512C410.9 142.557 410.892 142.602 410.876 142.644V142.644Z" fill="#3DD2CE"/>
<path d="M412.453 142.043C412.41 141.992 412.356 141.951 412.295 141.922C412.224 141.89 412.146 141.874 412.068 141.876C411.983 141.875 411.899 141.892 411.821 141.925C411.747 141.956 411.68 142.001 411.623 142.059C411.566 142.116 411.522 142.185 411.491 142.26C411.46 142.341 411.444 142.427 411.444 142.514C411.443 142.6 411.459 142.685 411.491 142.765C411.521 142.841 411.566 142.909 411.623 142.967C411.679 143.025 411.747 143.07 411.821 143.101C411.899 143.134 411.983 143.151 412.068 143.151C412.146 143.153 412.224 143.137 412.295 143.104C412.356 143.076 412.41 143.036 412.453 142.986V143.116H412.792V141.901H412.453V142.043ZM412.439 142.646C412.424 142.685 412.401 142.721 412.372 142.752C412.343 142.782 412.307 142.806 412.267 142.821C412.225 142.839 412.178 142.848 412.132 142.847C412.085 142.848 412.038 142.839 411.995 142.821C411.955 142.804 411.92 142.78 411.889 142.75C411.846 142.7 411.818 142.64 411.806 142.576C411.795 142.511 411.8 142.445 411.823 142.383C411.838 142.344 411.86 142.308 411.889 142.278C411.919 142.247 411.955 142.223 411.995 142.206C412.038 142.188 412.085 142.18 412.132 142.18C412.178 142.18 412.224 142.188 412.267 142.205C412.307 142.22 412.342 142.244 412.372 142.274C412.401 142.305 412.424 142.342 412.439 142.382C412.457 142.424 412.465 142.468 412.464 142.514C412.465 142.559 412.456 142.604 412.439 142.646V142.646Z" fill="#3DD2CE"/>
<path d="M414.036 141.903L413.689 142.525L413.341 141.903H412.947L413.503 142.855L413.051 143.617H413.432L414.416 141.903H414.036Z" fill="#3DD2CE"/>
<path d="M408.234 142.847L408.368 142.727L408.222 142.491L407.817 142.838L407.894 143.109H408.986L408.91 142.838L408.234 142.847Z" fill="white"/>
<path d="M408.985 142.183L408.908 141.914H407.849L407.926 142.185H408.572L408.434 142.305L408.578 142.539L408.985 142.192V142.183Z" fill="white"/>
<path d="M410.823 140.47C411.16 140.47 411.433 140.197 411.433 139.86C411.433 139.524 411.16 139.251 410.823 139.251C410.487 139.251 410.214 139.524 410.214 139.86C410.214 140.197 410.487 140.47 410.823 140.47Z" fill="#2E186A"/>
<path d="M410.823 140.289C411.056 140.289 411.245 140.1 411.245 139.867C411.245 139.634 411.056 139.445 410.823 139.445C410.59 139.445 410.401 139.634 410.401 139.867C410.401 140.1 410.59 140.289 410.823 140.289Z" fill="#6145A5"/>
<path d="M400.444 192.346V192.109C400.454 192.024 400.494 191.945 400.558 191.888C400.623 191.831 400.706 191.8 400.791 191.8H402.113C402.155 191.797 402.198 191.803 402.238 191.817C402.278 191.831 402.315 191.853 402.346 191.882C402.378 191.91 402.403 191.945 402.421 191.983C402.439 192.022 402.448 192.063 402.45 192.106L402.436 192.677C402.426 192.763 402.386 192.841 402.322 192.898C402.257 192.956 402.174 192.987 402.089 192.986H400.767C400.725 192.989 400.682 192.983 400.642 192.969C400.602 192.955 400.565 192.934 400.534 192.905C400.502 192.876 400.477 192.842 400.459 192.803C400.441 192.765 400.431 192.723 400.43 192.681L400.439 192.346" fill="#2E186A"/>
<path d="M400.444 192.346V192.109C400.454 192.024 400.494 191.945 400.558 191.888C400.623 191.831 400.706 191.8 400.791 191.8H402.113C402.155 191.797 402.198 191.803 402.238 191.817C402.278 191.831 402.315 191.853 402.346 191.882C402.378 191.91 402.403 191.945 402.421 191.983C402.439 192.022 402.448 192.063 402.45 192.106L402.436 192.677C402.426 192.763 402.386 192.841 402.322 192.898C402.257 192.956 402.174 192.987 402.089 192.986H400.767C400.725 192.989 400.682 192.983 400.642 192.969C400.602 192.955 400.565 192.934 400.534 192.905C400.502 192.876 400.477 192.842 400.459 192.803C400.441 192.765 400.431 192.723 400.43 192.681L400.439 192.346" stroke="white" stroke-width="0.135361" stroke-miterlimit="10"/>
<path d="M409.819 192.346V192.109C409.829 192.024 409.869 191.945 409.933 191.888C409.997 191.831 410.081 191.8 410.166 191.8H411.488C411.53 191.797 411.573 191.803 411.613 191.817C411.653 191.831 411.69 191.853 411.721 191.882C411.753 191.91 411.778 191.945 411.796 191.983C411.814 192.022 411.823 192.063 411.825 192.106L411.811 192.677C411.801 192.763 411.761 192.841 411.697 192.898C411.632 192.956 411.549 192.987 411.464 192.986H410.142C410.1 192.989 410.057 192.983 410.017 192.969C409.977 192.955 409.94 192.934 409.909 192.905C409.877 192.876 409.852 192.842 409.834 192.803C409.816 192.765 409.806 192.723 409.805 192.681V192.346" fill="#2E186A"/>
<path d="M409.819 192.346V192.109C409.829 192.024 409.869 191.945 409.933 191.888C409.997 191.831 410.081 191.8 410.166 191.8H411.488C411.53 191.797 411.573 191.803 411.613 191.817C411.653 191.831 411.69 191.853 411.721 191.882C411.753 191.91 411.778 191.945 411.796 191.983C411.814 192.022 411.823 192.063 411.825 192.106L411.811 192.677C411.801 192.763 411.761 192.841 411.697 192.898C411.632 192.956 411.549 192.987 411.464 192.986H410.142C410.1 192.989 410.057 192.983 410.017 192.969C409.977 192.955 409.94 192.934 409.909 192.905C409.877 192.876 409.852 192.842 409.834 192.803C409.816 192.765 409.806 192.723 409.805 192.681V192.346" stroke="white" stroke-width="0.135361" stroke-miterlimit="10"/>
<path d="M419.301 192.346V192.11C419.311 192.024 419.352 191.945 419.416 191.888C419.48 191.831 419.563 191.8 419.649 191.801H420.969C421.011 191.797 421.054 191.803 421.094 191.816C421.134 191.83 421.171 191.852 421.203 191.881C421.234 191.909 421.26 191.944 421.277 191.983C421.295 192.022 421.305 192.064 421.305 192.106L421.292 192.677C421.282 192.763 421.241 192.842 421.177 192.899C421.113 192.956 421.03 192.987 420.944 192.987H419.624C419.582 192.99 419.539 192.984 419.499 192.97C419.459 192.956 419.422 192.934 419.391 192.906C419.359 192.877 419.334 192.843 419.316 192.804C419.298 192.765 419.289 192.723 419.288 192.681V192.346" fill="#2E186A"/>
<path d="M419.301 192.346V192.11C419.311 192.024 419.352 191.945 419.416 191.888C419.48 191.831 419.563 191.8 419.649 191.801H420.969C421.011 191.797 421.054 191.803 421.094 191.816C421.134 191.83 421.171 191.852 421.203 191.881C421.234 191.909 421.26 191.944 421.277 191.983C421.295 192.022 421.305 192.064 421.305 192.106L421.292 192.677C421.282 192.763 421.241 192.842 421.177 192.899C421.113 192.956 421.03 192.987 420.944 192.987H419.624C419.582 192.99 419.539 192.984 419.499 192.97C419.459 192.956 419.422 192.934 419.391 192.906C419.359 192.877 419.334 192.843 419.316 192.804C419.298 192.765 419.289 192.723 419.288 192.681V192.346" stroke="white" stroke-width="0.135361" stroke-miterlimit="10"/>
<path d="M423.099 136.504H398.482L398.677 135.181H422.649L423.099 136.504Z" fill="#0B0432"/>
<path d="M399.642 136.2L399.475 136.488H399.809L399.642 136.2Z" fill="#6145A5"/>
<path d="M399.975 136.2L399.808 136.488H400.142L399.975 136.2Z" fill="#6145A5"/>
<path d="M400.308 136.2L400.142 136.488H400.473L400.308 136.2Z" fill="#6145A5"/>
<path d="M400.64 136.2L400.474 136.488H400.807L400.64 136.2Z" fill="#6145A5"/>
<path d="M400.974 136.2L400.807 136.488H401.141L400.974 136.2Z" fill="#6145A5"/>
<path d="M401.305 136.2L401.14 136.488H401.472L401.305 136.2Z" fill="#6145A5"/>
<path d="M401.639 136.2L401.472 136.488H401.806L401.639 136.2Z" fill="#6145A5"/>
<path d="M401.972 136.2L401.806 136.488H402.139L401.972 136.2Z" fill="#6145A5"/>
<path d="M402.304 136.2L402.139 136.488H402.47L402.304 136.2Z" fill="#6145A5"/>
<path d="M402.638 136.2L402.471 136.488H402.805L402.638 136.2Z" fill="#6145A5"/>
<path d="M402.971 136.2L402.804 136.488H403.138L402.971 136.2Z" fill="#6145A5"/>
<path d="M403.303 136.2L403.138 136.488H403.469L403.303 136.2Z" fill="#6145A5"/>
<path d="M403.636 136.2L403.47 136.488H403.803L403.636 136.2Z" fill="#6145A5"/>
<path d="M403.969 136.2L403.803 136.488H404.134L403.969 136.2Z" fill="#6145A5"/>
<path d="M404.301 136.2L404.135 136.488H404.468L404.301 136.2Z" fill="#6145A5"/>
<path d="M404.635 136.2L404.468 136.488H404.802L404.635 136.2Z" fill="#6145A5"/>
<path d="M404.968 136.2L404.801 136.488H405.133L404.968 136.2Z" fill="#6145A5"/>
<path d="M405.299 136.2L405.132 136.488H405.466L405.299 136.2Z" fill="#6145A5"/>
<path d="M405.633 136.2L405.467 136.488H405.8L405.633 136.2Z" fill="#6145A5"/>
<path d="M405.965 136.2L405.8 136.488H406.132L405.965 136.2Z" fill="#6145A5"/>
<path d="M406.298 136.2L406.131 136.488H406.464L406.298 136.2Z" fill="#6145A5"/>
<path d="M406.631 136.2L406.464 136.488H406.798L406.631 136.2Z" fill="#6145A5"/>
<path d="M406.964 136.2L406.799 136.488H407.131L406.964 136.2Z" fill="#6145A5"/>
<path d="M407.297 136.2L407.13 136.488H407.463L407.297 136.2Z" fill="#6145A5"/>
<path d="M407.63 136.2L407.463 136.488H407.796L407.63 136.2Z" fill="#6145A5"/>
<path d="M407.961 136.2L407.796 136.488H408.128L407.961 136.2Z" fill="#6145A5"/>
<path d="M408.295 136.2L408.128 136.488H408.462L408.295 136.2Z" fill="#6145A5"/>
<path d="M408.628 136.2L408.461 136.488H408.793L408.628 136.2Z" fill="#6145A5"/>
<path d="M408.96 136.2L408.793 136.488H409.127L408.96 136.2Z" fill="#6145A5"/>
<path d="M409.294 136.2L409.127 136.488H409.46L409.294 136.2Z" fill="#6145A5"/>
<path d="M409.627 136.2L409.46 136.488H409.792L409.627 136.2Z" fill="#6145A5"/>
<path d="M409.959 136.2L409.792 136.488H410.126L409.959 136.2Z" fill="#6145A5"/>
<path d="M410.292 136.2L410.125 136.488H410.459L410.292 136.2Z" fill="#6145A5"/>
<path d="M410.626 136.2L410.459 136.488H410.791L410.626 136.2Z" fill="#6145A5"/>
<path d="M410.958 136.2L410.791 136.488H411.124L410.958 136.2Z" fill="#6145A5"/>
<path d="M411.291 136.2L411.124 136.488H411.457L411.291 136.2Z" fill="#6145A5"/>
<path d="M411.622 136.2L411.458 136.488H411.789L411.622 136.2Z" fill="#6145A5"/>
<path d="M411.955 136.2L411.789 136.488H412.122L411.955 136.2Z" fill="#6145A5"/>
<path d="M412.29 136.2L412.123 136.488H412.456L412.29 136.2Z" fill="#6145A5"/>
<path d="M412.621 136.2L412.456 136.488H412.788L412.621 136.2Z" fill="#6145A5"/>
<path d="M412.954 136.2L412.787 136.488H413.121L412.954 136.2Z" fill="#6145A5"/>
<path d="M413.287 136.2L413.12 136.488H413.454L413.287 136.2Z" fill="#6145A5"/>
<path d="M413.62 136.2L413.455 136.488H413.786L413.62 136.2Z" fill="#6145A5"/>
<path d="M413.952 136.2L413.786 136.488H414.119L413.952 136.2Z" fill="#6145A5"/>
<path d="M414.286 136.2L414.119 136.488H414.453L414.286 136.2Z" fill="#6145A5"/>
<path d="M414.617 136.2L414.452 136.488H414.784L414.617 136.2Z" fill="#6145A5"/>
<path d="M414.951 136.2L414.784 136.488H415.118L414.951 136.2Z" fill="#6145A5"/>
<path d="M415.284 136.2L415.118 136.488H415.451L415.284 136.2Z" fill="#6145A5"/>
<path d="M415.616 136.2L415.451 136.488H415.782L415.616 136.2Z" fill="#6145A5"/>
<path d="M415.949 136.2L415.783 136.488H416.116L415.949 136.2Z" fill="#6145A5"/>
<path d="M416.283 136.2L416.116 136.488H416.448L416.283 136.2Z" fill="#6145A5"/>
<path d="M416.615 136.2L416.448 136.488H416.782L416.615 136.2Z" fill="#6145A5"/>
<path d="M416.948 136.2L416.782 136.488H417.115L416.948 136.2Z" fill="#6145A5"/>
<path d="M417.281 136.2L417.115 136.488H417.446L417.281 136.2Z" fill="#6145A5"/>
<path d="M417.613 136.2L417.447 136.488H417.78L417.613 136.2Z" fill="#6145A5"/>
<path d="M417.947 136.2L417.78 136.488H418.114L417.947 136.2Z" fill="#6145A5"/>
<path d="M418.28 136.2L418.113 136.488H418.445L418.28 136.2Z" fill="#6145A5"/>
<path d="M418.611 136.2L418.444 136.488H418.778L418.611 136.2Z" fill="#6145A5"/>
<path d="M418.946 136.2L418.779 136.488H419.112L418.946 136.2Z" fill="#6145A5"/>
<path d="M419.277 136.2L419.112 136.488H419.444L419.277 136.2Z" fill="#6145A5"/>
<path d="M419.61 136.2L419.443 136.488H419.776L419.61 136.2Z" fill="#6145A5"/>
<path d="M419.943 136.2L419.776 136.488H420.108L419.943 136.2Z" fill="#6145A5"/>
<path d="M420.275 136.2L420.108 136.488H420.442L420.275 136.2Z" fill="#6145A5"/>
<path d="M420.609 136.2L420.442 136.488H420.775L420.609 136.2Z" fill="#6145A5"/>
<path d="M420.942 136.2L420.775 136.488H421.107L420.942 136.2Z" fill="#6145A5"/>
<path d="M421.274 136.2L421.107 136.488H421.44L421.274 136.2Z" fill="#6145A5"/>
<path d="M421.607 136.2L421.44 136.488H421.774L421.607 136.2Z" fill="#6145A5"/>
<path d="M421.94 136.2L421.773 136.488H422.105L421.94 136.2Z" fill="#6145A5"/>
<path d="M396.775 174.959V192.948C396.776 193.301 396.846 193.651 396.982 193.977C397.118 194.303 397.317 194.599 397.567 194.848C397.818 195.097 398.115 195.295 398.442 195.429C398.768 195.563 399.118 195.632 399.472 195.631H413.346" stroke="#DFD1F7" stroke-width="0.360002" stroke-miterlimit="10" stroke-linecap="round"/>
<path d="M422.256 136.604H422.831C423.264 136.604 423.68 136.777 423.986 137.083L425.028 138.125C425.179 138.277 425.3 138.457 425.381 138.655C425.463 138.853 425.505 139.065 425.505 139.28V142.544" stroke="#DFD1F7" stroke-width="0.360002" stroke-miterlimit="10" stroke-linecap="round"/>
<path d="M422.793 134.755C423.069 134.755 423.335 134.859 423.537 135.047L424.669 136.061" stroke="#DFD1F7" stroke-width="0.360002" stroke-miterlimit="10" stroke-linecap="round"/>
<path d="M398.89 130.076L398.128 134.648" stroke="#DFD1F7" stroke-width="0.360002" stroke-miterlimit="10" stroke-linecap="round"/>
<path d="M425.412 194.603C425.159 195.371 424.671 196.04 424.016 196.514C423.361 196.988 422.574 197.244 421.765 197.244" stroke="#DFD1F7" stroke-width="0.360002" stroke-miterlimit="10" stroke-linecap="round"/>
<path d="M397.6 138.011C397.783 137.829 397.999 137.684 398.238 137.586C398.476 137.488 398.732 137.438 398.989 137.439H403.192" stroke="#DFD1F7" stroke-width="0.360002" stroke-miterlimit="10" stroke-linecap="round"/>
<path d="M420.878 134.073H400.393L400.752 132.248L420.442 132.32L420.878 134.073Z" fill="#FF504F"/>
<path d="M409.876 131.466C411.072 131.466 412.041 131.081 412.041 130.607C412.041 130.132 411.072 129.747 409.876 129.747C408.68 129.747 407.71 130.132 407.71 130.607C407.71 131.081 408.68 131.466 409.876 131.466Z" fill="#FF504F"/>
<path d="M394.75 178.364C395.654 175.974 397.033 173.813 398.811 171.99C410.273 169.86 406.718 165.754 403.132 164.252C399.409 162.705 394.137 164.206 391.241 167.73" fill="white"/>
<path d="M394.75 178.364C395.654 175.974 397.033 173.813 398.811 171.99C410.273 169.86 406.718 165.754 403.132 164.252C399.409 162.705 394.137 164.206 391.241 167.73" stroke="#272E33" stroke-width="2" stroke-linecap="round" stroke-linejoin="round"/>
</svg>
