<svg width="41" height="41" viewBox="0 0 41 41" fill="none" xmlns="http://www.w3.org/2000/svg">
<mask id="mask0_68_4408" style="mask-type:luminance" maskUnits="userSpaceOnUse" x="0" y="0" width="41" height="41">
<path d="M40.487 0H0V40.4827H40.487V0Z" fill="white"/>
</mask>
<g mask="url(#mask0_68_4408)">
<g filter="url(#filter0_d_68_4408)">
<path d="M40.4759 20.9197C40.5733 17.9727 40.0263 15.04 38.873 12.3266C37.7197 9.6131 35.9878 7.18428 33.7986 5.2099C31.6094 3.23553 29.0155 1.76327 26.1983 0.89592C23.3811 0.0285785 20.4086 -0.212869 17.4883 0.188427C14.5682 0.589723 11.7708 1.62405 9.29184 3.21924C6.81278 4.81435 4.71193 6.93183 3.13606 9.42359C1.56016 11.9154 0.54726 14.7214 0.168141 17.6454C-0.210977 20.5695 0.0528384 23.5411 0.941148 26.3526L0.978935 26.4711C1.79442 29.0803 1.75916 31.8813 0.878173 34.4692L0.847943 34.56C0.695273 35.0142 0.626142 35.4923 0.643897 35.9712C0.678463 36.9892 1.09836 37.9559 1.81863 38.6759C2.53887 39.396 3.50567 39.8154 4.52332 39.8493C5.00183 39.8642 5.47932 39.795 5.93404 39.6451L6.02218 39.6124C8.60854 38.728 11.4095 38.6918 14.0178 39.509L14.1387 39.5469C17.117 40.485 20.2718 40.7218 23.3568 40.239C26.4417 39.7562 29.3734 38.5668 31.923 36.7636C34.4725 34.9604 36.571 32.5922 38.0547 29.8439C39.5383 27.0954 40.3669 24.0412 40.4759 20.9197Z" fill="url(#paint0_radial_68_4408)"/>
<path d="M23.1091 15.918H22.7489C22.1381 15.918 21.643 16.4133 21.643 17.0242V24.148C21.643 24.7589 22.1381 25.2542 22.7489 25.2542H23.1091C23.7199 25.2542 24.215 24.7589 24.215 24.148V17.0242C24.215 16.4133 23.7199 15.918 23.1091 15.918Z" fill="white"/>
<path d="M18.7225 12.3901H18.3775C17.7667 12.3901 17.2716 12.8854 17.2716 13.4964V24.148C17.2716 24.759 17.7667 25.2543 18.3775 25.2543H18.7225C19.3333 25.2543 19.8284 24.759 19.8284 24.148V13.4964C19.8284 12.8854 19.3333 12.3901 18.7225 12.3901Z" fill="white"/>
<path d="M22.9301 15.1944C23.6354 15.1944 24.2073 14.6223 24.2073 13.9168C24.2073 13.2111 23.6354 12.6392 22.9301 12.6392C22.2247 12.6392 21.6529 13.2111 21.6529 13.9168C21.6529 14.6223 22.2247 15.1944 22.9301 15.1944Z" fill="#F277C6"/>
<path d="M34.1529 20.0911C34.1529 19.4207 34.1529 18.7504 34.1404 18.0751C34.0899 16.9235 33.4627 15.666 31.3694 15.666C30.3617 15.666 29.9889 16.0944 28.9057 16.0944C28.3565 16.0944 28.1928 15.913 27.3262 15.913C26.6485 15.913 26.0264 16.3313 26.0264 17.0671V24.1758C26.0264 24.4598 26.1391 24.7322 26.3399 24.9331C26.5407 25.1339 26.813 25.2467 27.0969 25.2467H27.5302C27.6711 25.2467 27.8105 25.219 27.9406 25.165C28.0706 25.111 28.1887 25.0319 28.2882 24.9322C28.3876 24.8325 28.4665 24.7141 28.5201 24.5839C28.5738 24.4537 28.6012 24.3141 28.6008 24.1733C28.6008 22.7294 28.6008 20.4589 28.6008 18.9041C28.6008 17.8382 29.2356 17.2032 30.1123 17.2032C30.9638 17.2032 31.6238 17.7727 31.6238 18.9091V24.1758C31.6238 24.4598 31.7365 24.7322 31.9374 24.9331C32.1381 25.1339 32.4104 25.2467 32.6944 25.2467H33.0848C33.3695 25.2468 33.6426 25.1342 33.8446 24.9335C34.0466 24.733 34.161 24.4605 34.163 24.1758C34.1529 22.674 34.1555 20.4312 34.1529 20.0911Z" fill="white"/>
<path d="M11.4847 15.6733C10.2 15.6733 9.90532 16.1017 8.93793 16.1017C8.37617 16.1017 8.07134 15.9203 7.33583 15.9203C6.90506 15.9203 6.32812 16.1722 6.32812 17.0442V22.021V28.0512C6.32812 28.3352 6.44098 28.6076 6.64173 28.8084C6.84248 29.0093 7.11484 29.1221 7.39875 29.1221H7.81695C8.10019 29.1221 8.37187 29.0096 8.5722 28.8092C8.77253 28.6088 8.88504 28.337 8.88504 28.0537C8.88504 27.1692 8.88504 26.2897 8.88504 25.9571C8.88504 25.2465 9.36119 24.9819 9.75661 24.9819C10.0388 24.9819 10.6359 25.2213 11.2883 25.2213C14.7268 25.2213 15.7269 22.8727 15.7269 20.6123C15.7169 17.4851 14.2935 15.6733 11.4847 15.6733ZM13.2204 20.4787C13.2204 22.278 12.4395 23.7371 10.9533 23.7371C9.46696 23.7371 8.68607 22.278 8.68607 20.4787C8.68607 18.6795 9.5551 17.2205 10.9533 17.2205C12.3513 17.2205 13.2154 18.6795 13.2154 20.4787H13.2204Z" fill="white"/>
</g>
</g>
<defs>
<filter id="filter0_d_68_4408" x="-8" y="-8" width="56.487" height="56.4824" filterUnits="userSpaceOnUse" color-interpolation-filters="sRGB">
<feFlood flood-opacity="0" result="BackgroundImageFix"/>
<feColorMatrix in="SourceAlpha" type="matrix" values="0 0 0 0 0 0 0 0 0 0 0 0 0 0 0 0 0 0 127 0" result="hardAlpha"/>
<feOffset/>
<feGaussianBlur stdDeviation="4"/>
<feComposite in2="hardAlpha" operator="out"/>
<feColorMatrix type="matrix" values="0 0 0 0 0 0 0 0 0 0 0 0 0 0 0 0 0 0 0.16 0"/>
<feBlend mode="normal" in2="BackgroundImageFix" result="effect1_dropShadow_68_4408"/>
<feBlend mode="normal" in="SourceGraphic" in2="effect1_dropShadow_68_4408" result="shape"/>
</filter>
<radialGradient id="paint0_radial_68_4408" cx="0" cy="0" r="1" gradientUnits="userSpaceOnUse" gradientTransform="translate(0.00153001 40.5045) scale(35.4059 35.4173)">
<stop stop-color="#2D76FF"/>
<stop offset="1" stop-color="#00E2CD"/>
</radialGradient>
</defs>
</svg>
