<svg width="480" height="740" viewBox="0 0 480 740" fill="none" xmlns="http://www.w3.org/2000/svg">
<rect width="480" height="740" rx="60" fill="white"/>
<g clip-path="url(#clip0_35_4606)">
<rect x="20" y="20" width="440" height="700" rx="52" fill="url(#paint0_linear_35_4606)"/>
<g filter="url(#filter0_d_35_4606)">
<path d="M186.596 62.9248H180.826V84.7744H186.596V62.9248Z" fill="#FF4240"/>
<path d="M186.241 53.0925C185.888 52.7283 185.535 52.4855 185.064 52.2428C184.593 52 184.122 52 183.651 52C183.18 52 182.708 52.1214 182.237 52.2428C181.766 52.4855 181.413 52.7283 181.06 53.0925C180.707 53.4566 180.471 53.8208 180.236 54.3063C180 54.7919 180 55.2774 180 55.763C180 56.2485 180.118 56.7341 180.236 57.2196C180.471 57.7052 180.707 58.0693 181.06 58.4335C181.413 58.7977 181.766 59.0404 182.237 59.2832C182.708 59.526 183.18 59.526 183.651 59.526C184.122 59.526 184.593 59.4046 185.064 59.2832C185.535 59.0404 185.888 58.7977 186.241 58.4335C186.595 58.0693 186.83 57.7052 187.066 57.2196C187.301 56.7341 187.301 56.2485 187.301 55.763C187.301 55.2774 187.183 54.7919 187.066 54.3063C186.83 53.8208 186.477 53.4566 186.241 53.0925Z" fill="#FF4240"/>
<path d="M220.274 53.0925C219.921 52.7283 219.567 52.4855 219.096 52.2428C218.625 52 218.154 52 217.683 52C217.212 52 216.741 52.1214 216.27 52.2428C215.799 52.4855 215.446 52.7283 215.092 53.0925C214.739 53.4566 214.504 53.8208 214.268 54.3063C214.033 54.7919 214.033 55.2774 214.033 55.763C214.033 56.2485 214.15 56.7341 214.268 57.2196C214.504 57.7052 214.739 58.0693 215.092 58.4335C215.446 58.7977 215.799 59.0404 216.27 59.2832C216.741 59.526 217.212 59.526 217.683 59.526C218.154 59.526 218.625 59.4046 219.096 59.2832C219.567 59.0404 219.921 58.7977 220.274 58.4335C220.627 58.0693 220.863 57.7052 221.098 57.2196C221.334 56.7341 221.334 56.2485 221.334 55.763C221.334 55.2774 221.216 54.7919 221.098 54.3063C220.863 53.8208 220.627 53.4566 220.274 53.0925Z" fill="#FF4240"/>
<path d="M220.627 62.9248H214.856V84.7744H220.627V62.9248Z" fill="#FF4240"/>
<path d="M244.767 65.7174C243.825 64.7463 242.765 63.8966 241.47 63.2896C240.174 62.6827 238.879 62.4399 237.348 62.4399C235.935 62.4399 234.64 62.6827 233.58 63.2896C232.52 63.8966 231.696 64.6249 230.989 65.4746V63.0469H225.454V94.0004H231.107V82.7115C231.813 83.5612 232.638 84.2895 233.698 84.7751C234.757 85.2606 235.935 85.5034 237.348 85.5034C238.761 85.5034 240.174 85.2606 241.47 84.6537C242.765 84.0467 243.825 83.3184 244.767 82.2259C245.709 81.2548 246.416 80.041 246.887 78.5843C247.358 77.1277 247.711 75.6711 247.711 73.9717C247.711 72.2722 247.476 70.8156 246.887 69.359C246.416 67.9023 245.709 66.6885 244.767 65.7174ZM241.47 76.278C241.234 77.0063 240.881 77.6133 240.41 78.2202C239.939 78.7057 239.35 79.1913 238.644 79.5554C237.937 79.9196 237.23 80.041 236.406 80.041C235.582 80.041 234.875 79.9196 234.169 79.5554C233.462 79.3127 232.873 78.8271 232.402 78.3416C231.931 77.856 231.578 77.1277 231.342 76.3994C231.107 75.6711 230.989 74.8214 230.989 73.9717C230.989 73.122 231.107 72.2722 231.342 71.5439C231.578 70.8156 231.931 70.2087 232.402 69.6017C232.873 69.1162 233.462 68.6307 234.169 68.3879C234.875 68.1451 235.582 67.9023 236.406 67.9023C237.23 67.9023 238.055 68.0237 238.644 68.3879C239.35 68.752 239.939 69.1162 240.41 69.7231C240.881 70.2087 241.234 70.937 241.47 71.6653C241.705 72.3936 241.823 73.2433 241.823 73.9717C241.823 74.7 241.705 75.5497 241.47 76.278Z" fill="#2AD2C9"/>
<path d="M267.495 65.353C266.789 64.5033 265.964 63.775 264.905 63.1681C263.845 62.5611 262.667 62.3184 261.136 62.3184C259.723 62.3184 258.31 62.5611 257.015 63.1681C255.719 63.775 254.659 64.5033 253.717 65.5958C252.775 66.5669 252.069 67.7807 251.598 69.2374C251.127 70.694 250.773 72.1507 250.773 73.8501C250.773 75.5495 251.009 77.0061 251.598 78.4627C252.069 79.9194 252.893 81.1332 253.717 82.1043C254.659 83.0754 255.719 83.9251 257.015 84.5321C258.31 85.139 259.605 85.3818 261.136 85.3818C262.549 85.3818 263.845 85.139 264.905 84.5321C265.964 83.9251 266.789 83.3182 267.495 82.3471V84.7748H273.03V62.9253H267.495V65.353ZM267.26 76.2778C267.024 77.0061 266.671 77.613 266.2 78.22C265.729 78.7055 265.14 79.1911 264.434 79.4338C263.727 79.6766 263.02 79.9194 262.196 79.9194C261.372 79.9194 260.665 79.798 259.959 79.4338C259.252 79.0697 258.663 78.7055 258.192 78.0986C257.721 77.613 257.368 76.8847 257.132 76.1564C256.897 75.4281 256.779 74.5784 256.779 73.8501C256.779 73.0004 256.897 72.272 257.132 71.5437C257.368 70.8154 257.721 70.2085 258.192 69.6015C258.663 69.116 259.252 68.6304 259.959 68.2663C260.665 67.9021 261.372 67.7807 262.196 67.7807C263.02 67.7807 263.727 67.9021 264.434 68.2663C265.14 68.5091 265.729 68.9946 266.2 69.4802C266.671 69.9657 267.024 70.694 267.26 71.4223C267.495 72.1507 267.613 73.0004 267.613 73.8501C267.613 74.6998 267.495 75.5495 267.26 76.2778Z" fill="#2AD2C9"/>
<path d="M293.64 62.9248L287.987 74.2137L282.099 62.9248H275.623L284.808 80.1617L277.389 93.9998H283.63L299.881 62.9248H293.64Z" fill="#2AD2C9"/>
<path d="M197.899 79.9193L200.136 77.7344L197.663 73.4858L191.069 79.9193L192.246 84.7748L210.264 84.8962L209.086 79.9193H197.899Z" fill="#FF4240"/>
<path d="M210.264 68.0237L209.087 63.0469H191.54L192.836 67.9023L203.434 68.0237L201.197 70.0872L203.552 74.4571L210.264 68.0237Z" fill="#FF4240"/>
</g>
<rect x="80" y="110" width="320" height="410" rx="12" fill="#000308"/>
<rect x="70.25" y="534.75" width="118.5" height="0.5" fill="#3DD2CE"/>
<rect x="70.25" y="534.75" width="118.5" height="0.5" stroke="#3DD2CE" stroke-width="0.5"/>
<path d="M206.238 540L205.244 537.158H201.52L200.54 540H199.112L202.668 530.116H204.124L207.68 540H206.238ZM203.41 531.474H203.382C203.382 531.474 203.158 532.37 202.99 532.874L201.884 536.01H204.88L203.788 532.874C203.62 532.37 203.41 531.474 203.41 531.474ZM208.351 536.458C208.351 534.358 209.919 532.748 212.145 532.748C213.923 532.748 214.805 533.784 214.805 533.784L214.161 534.736C214.161 534.736 213.405 533.924 212.201 533.924C210.773 533.924 209.737 534.988 209.737 536.444C209.737 537.886 210.773 538.992 212.243 538.992C213.559 538.992 214.427 538.04 214.427 538.04L214.973 539.034C214.973 539.034 213.993 540.168 212.145 540.168C209.919 540.168 208.351 538.586 208.351 536.458ZM216.021 536.458C216.021 534.204 217.547 532.748 219.563 532.748C221.565 532.748 222.629 534.232 222.629 536.066C222.629 536.248 222.587 536.654 222.587 536.654H217.421C217.491 538.208 218.597 538.992 219.857 538.992C221.075 538.992 221.957 538.166 221.957 538.166L222.517 539.16C222.517 539.16 221.467 540.168 219.773 540.168C217.547 540.168 216.021 538.558 216.021 536.458ZM217.463 535.632H221.243C221.201 534.414 220.445 533.826 219.535 533.826C218.499 533.826 217.659 534.47 217.463 535.632ZM224.277 542.8V532.916H225.523V533.518C225.523 533.798 225.495 534.036 225.495 534.036H225.523C225.523 534.036 226.125 532.748 227.903 532.748C229.807 532.748 231.011 534.26 231.011 536.458C231.011 538.712 229.653 540.168 227.805 540.168C226.251 540.168 225.635 539.006 225.635 539.006H225.607C225.607 539.006 225.635 539.258 225.635 539.622V542.8H224.277ZM225.593 536.486C225.593 537.746 226.293 539.006 227.595 539.006C228.715 539.006 229.639 538.082 229.639 536.472C229.639 534.932 228.813 533.938 227.637 533.938C226.573 533.938 225.593 534.68 225.593 536.486ZM232.965 537.41V534.106H232.041V533.014H233.007V530.97H234.323V533.014H236.031V534.106H234.323V537.256C234.323 538.67 235.317 538.852 235.835 538.852C236.031 538.852 236.157 538.824 236.157 538.824V540.028C236.157 540.028 235.961 540.056 235.681 540.056C234.771 540.056 232.965 539.776 232.965 537.41ZM237.115 538.012C237.115 535.674 240.195 535.576 241.385 535.576H241.693V535.45C241.693 534.288 241.035 533.896 240.139 533.896C239.047 533.896 238.165 534.582 238.165 534.582L237.605 533.588C237.605 533.588 238.627 532.748 240.251 532.748C242.043 532.748 243.051 533.728 243.051 535.52V540H241.791V539.328C241.791 539.006 241.819 538.768 241.819 538.768H241.791C241.791 538.768 241.217 540.168 239.523 540.168C238.305 540.168 237.115 539.426 237.115 538.012ZM238.487 537.942C238.487 538.516 238.935 539.076 239.817 539.076C240.965 539.076 241.707 537.872 241.707 536.822V536.598H241.357C240.335 536.598 238.487 536.668 238.487 537.942ZM245.085 540V532.916H246.401V533.854C246.401 534.134 246.373 534.372 246.373 534.372H246.401C246.737 533.546 247.731 532.748 248.837 532.748C250.027 532.748 250.727 533.294 250.965 534.358H250.993C251.385 533.504 252.365 532.748 253.513 532.748C255.109 532.748 255.851 533.658 255.851 535.464V540H254.493V535.758C254.493 534.764 254.297 533.98 253.233 533.98C252.239 533.98 251.497 534.82 251.245 535.786C251.175 536.08 251.147 536.402 251.147 536.766V540H249.789V535.758C249.789 534.834 249.649 533.98 248.557 533.98C247.521 533.98 246.793 534.834 246.527 535.842C246.457 536.122 246.443 536.444 246.443 536.766V540H245.085ZM257.364 536.444C257.364 534.302 259.072 532.748 261.186 532.748C263.3 532.748 265.008 534.302 265.008 536.444C265.008 538.6 263.3 540.168 261.186 540.168C259.072 540.168 257.364 538.6 257.364 536.444ZM258.75 536.444C258.75 537.928 259.856 538.992 261.186 538.992C262.53 538.992 263.622 537.928 263.622 536.444C263.622 534.974 262.53 533.924 261.186 533.924C259.856 533.924 258.75 534.974 258.75 536.444ZM266.045 539.132L266.703 538.166C266.703 538.166 267.501 538.992 268.733 538.992C269.321 538.992 269.909 538.684 269.909 538.11C269.909 536.808 266.269 537.074 266.269 534.764C266.269 533.476 267.417 532.748 268.831 532.748C270.385 532.748 271.113 533.532 271.113 533.532L270.567 534.554C270.567 534.554 269.937 533.924 268.817 533.924C268.229 533.924 267.655 534.176 267.655 534.792C267.655 536.066 271.295 535.786 271.295 538.11C271.295 539.286 270.287 540.168 268.733 540.168C266.997 540.168 266.045 539.132 266.045 539.132Z" fill="white"/>
<rect x="282.25" y="534.75" width="118.5" height="0.5" fill="#3DD2CE"/>
<rect x="282.25" y="534.75" width="118.5" height="0.5" stroke="#3DD2CE" stroke-width="0.5"/>
<path d="M97.716 563.676L88.1581 586.887H81.9225L77.2192 568.362C76.9337 567.221 76.6869 566.803 75.8173 566.322C74.3995 565.539 72.0581 564.805 70 564.348L70.138 563.676H80.1758C81.4552 563.676 82.6054 564.543 82.8959 566.043L85.3798 579.474L91.5185 563.676H97.716ZM122.148 579.31C122.174 573.184 113.826 572.846 113.884 570.109C113.902 569.276 114.682 568.391 116.386 568.164C117.231 568.052 119.56 567.966 122.203 569.203L123.239 564.281C121.817 563.753 119.991 563.25 117.719 563.25C111.888 563.25 107.785 566.405 107.75 570.923C107.712 574.265 110.678 576.13 112.914 577.24C115.213 578.378 115.984 579.108 115.976 580.126C115.959 581.683 114.142 582.37 112.443 582.397C109.478 582.444 107.758 581.58 106.387 580.931L105.317 586.017C106.696 586.661 109.24 587.222 111.878 587.25C118.075 587.25 122.129 584.134 122.148 579.308L122.148 579.31ZM137.544 586.887H143L138.238 563.676H133.202C132.664 563.671 132.138 563.831 131.69 564.135C131.243 564.438 130.895 564.872 130.693 565.379L121.84 586.887H128.034L129.264 583.42H136.83L137.544 586.887ZM130.962 578.662L134.067 569.946L135.854 578.662L130.962 578.662ZM106.144 563.676L101.266 586.887H95.3674L100.247 563.676H106.144Z" fill="#2637C6"/>
<path d="M187.043 575.281C187.029 572.969 187.536 570.683 188.527 568.599C189.518 566.514 190.966 564.685 192.761 563.252C190.522 561.474 187.832 560.369 185 560.066C182.169 559.762 179.31 560.271 176.751 561.534C174.193 562.797 172.038 564.763 170.534 567.208C169.031 569.652 168.239 572.475 168.25 575.353C168.26 578.231 169.073 581.048 170.595 583.48C172.117 585.913 174.287 587.863 176.855 589.106C179.423 590.35 182.286 590.837 185.115 590.511C187.944 590.185 190.625 589.061 192.851 587.265C191.045 585.846 189.584 584.028 188.577 581.952C187.571 579.875 187.046 577.594 187.043 575.281Z" fill="#E9001B"/>
<path d="M187.044 575.282C187.045 577.593 187.568 579.874 188.571 581.95C189.575 584.027 191.034 585.845 192.837 587.266C194.631 585.834 196.081 584.01 197.078 581.93C198.074 579.851 198.592 577.57 198.592 575.259C198.592 572.949 198.074 570.668 197.078 568.588C196.081 566.509 194.631 564.685 192.837 563.252C191.033 564.683 189.574 566.509 188.571 568.593C187.567 570.677 187.045 572.964 187.044 575.282Z" fill="#FF5F00"/>
<path d="M202.194 559.906C198.78 559.912 195.469 561.092 192.805 563.252C194.6 564.684 196.049 566.509 197.046 568.588C198.043 570.668 198.561 572.948 198.561 575.259C198.561 577.57 198.043 579.85 197.046 581.93C196.049 584.009 194.6 585.834 192.805 587.266C194.707 588.77 196.937 589.793 199.31 590.25C201.682 590.707 204.128 590.583 206.444 589.891C208.759 589.198 210.878 587.956 212.622 586.268C214.366 584.58 215.686 582.494 216.472 580.186C217.257 577.878 217.485 575.413 217.137 572.998C216.789 570.582 215.874 568.286 214.47 566.3C213.065 564.314 211.212 562.696 209.063 561.582C206.915 560.467 204.534 559.887 202.119 559.891L202.194 559.906Z" fill="#F59C1B"/>
<path fill-rule="evenodd" clip-rule="evenodd" d="M242.545 557.065H278.527V593.435H242.545V557.065Z" fill="#016FCE"/>
<path fill-rule="evenodd" clip-rule="evenodd" d="M255.582 587.68V574.646L278.527 574.666V578.265L275.871 581.132L278.527 584.03V587.701H274.292L272.039 585.189L269.806 587.711L255.582 587.68Z" fill="white"/>
<path fill-rule="evenodd" clip-rule="evenodd" d="M257.111 586.257V576.079H265.641V578.428H259.877V580.014H265.5V582.322H259.877V583.878H265.641V586.257H257.111Z" fill="#016FCE"/>
<path fill-rule="evenodd" clip-rule="evenodd" d="M265.6 586.257L270.318 581.163L265.6 576.079H269.252L272.139 579.302L275.036 576.079H278.527V576.16L273.909 581.163L278.527 586.104V586.257H274.996L272.058 582.993L269.151 586.257H265.6Z" fill="#016FCE"/>
<path fill-rule="evenodd" clip-rule="evenodd" d="M256.648 563.075H262.18L264.122 567.538V563.075H270.952L272.129 566.42L273.316 563.075H278.527V576.11H250.964L256.648 563.075Z" fill="white"/>
<path fill-rule="evenodd" clip-rule="evenodd" d="M257.694 564.498L253.228 574.666H256.246L257.091 572.632H261.658L262.503 574.666H265.681L261.235 564.498H257.694ZM258.077 570.344L259.414 567.111L260.752 570.375L258.077 570.344Z" fill="#016FCE"/>
<path fill-rule="evenodd" clip-rule="evenodd" d="M265.641 574.655V564.488L269.946 564.508L272.159 570.751L274.382 564.488H278.527V574.655L275.861 574.676V567.701L273.346 574.655H270.912L268.347 567.67V574.655H265.641Z" fill="#016FCE"/>
<mask id="mask0_35_4606" style="mask-type:luminance" maskUnits="userSpaceOnUse" x="303" y="555" width="42" height="41">
<path d="M344.263 555.009H303.776V595.491H344.263V555.009Z" fill="white"/>
</mask>
<g mask="url(#mask0_35_4606)">
<g filter="url(#filter1_d_35_4606)">
<path d="M344.252 575.928C344.35 572.982 343.803 570.049 342.649 567.335C341.496 564.622 339.764 562.193 337.575 560.219C335.386 558.244 332.792 556.772 329.975 555.905C327.158 555.037 324.185 554.796 321.265 555.197C318.345 555.599 315.547 556.633 313.068 558.228C310.589 559.823 308.488 561.941 306.913 564.432C305.337 566.924 304.324 569.73 303.945 572.654C303.565 575.578 303.829 578.55 304.718 581.361L304.755 581.48C305.571 584.089 305.536 586.89 304.655 589.478L304.624 589.569C304.472 590.023 304.403 590.501 304.42 590.98C304.455 591.998 304.875 592.965 305.595 593.685C306.315 594.405 307.282 594.824 308.3 594.858C308.778 594.873 309.256 594.804 309.71 594.654L309.799 594.621C312.385 593.737 315.186 593.701 317.794 594.518L317.915 594.556C320.894 595.494 324.048 595.731 327.133 595.248C330.218 594.765 333.15 593.576 335.699 591.772C338.249 589.969 340.347 587.601 341.831 584.853C343.315 582.104 344.143 579.05 344.252 575.928Z" fill="url(#paint1_radial_35_4606)"/>
<path d="M326.886 570.927H326.525C325.915 570.927 325.419 571.422 325.419 572.033V579.157C325.419 579.768 325.915 580.263 326.525 580.263H326.886C327.496 580.263 327.991 579.768 327.991 579.157V572.033C327.991 571.422 327.496 570.927 326.886 570.927Z" fill="white"/>
<path d="M322.499 567.399H322.154C321.543 567.399 321.048 567.894 321.048 568.505V579.157C321.048 579.768 321.543 580.263 322.154 580.263H322.499C323.11 580.263 323.605 579.768 323.605 579.157V568.505C323.605 567.894 323.11 567.399 322.499 567.399Z" fill="white"/>
<path d="M326.707 570.203C327.412 570.203 327.984 569.631 327.984 568.926C327.984 568.22 327.412 567.648 326.707 567.648C326.001 567.648 325.429 568.22 325.429 568.926C325.429 569.631 326.001 570.203 326.707 570.203Z" fill="#F277C6"/>
<path d="M337.929 575.1C337.929 574.429 337.929 573.759 337.917 573.084C337.866 571.932 337.239 570.675 335.146 570.675C334.138 570.675 333.765 571.103 332.682 571.103C332.133 571.103 331.969 570.922 331.103 570.922C330.425 570.922 329.803 571.34 329.803 572.076V579.185C329.803 579.469 329.916 579.741 330.116 579.942C330.317 580.143 330.589 580.256 330.873 580.256H331.307C331.448 580.256 331.587 580.228 331.717 580.174C331.847 580.12 331.965 580.041 332.065 579.941C332.164 579.841 332.243 579.723 332.297 579.593C332.35 579.462 332.378 579.323 332.377 579.182C332.377 577.738 332.377 575.468 332.377 573.913C332.377 572.847 333.012 572.212 333.889 572.212C334.74 572.212 335.4 572.781 335.4 573.918V579.185C335.4 579.469 335.513 579.741 335.714 579.942C335.915 580.143 336.187 580.256 336.471 580.256H336.861C337.146 580.256 337.419 580.143 337.621 579.942C337.823 579.742 337.937 579.469 337.939 579.185C337.929 577.683 337.932 575.44 337.929 575.1Z" fill="white"/>
<path d="M315.261 570.682C313.976 570.682 313.682 571.111 312.714 571.111C312.153 571.111 311.848 570.929 311.112 570.929C310.682 570.929 310.105 571.181 310.105 572.053V577.03V583.06C310.105 583.344 310.217 583.616 310.418 583.817C310.619 584.018 310.891 584.131 311.175 584.131H311.593C311.877 584.131 312.148 584.018 312.349 583.818C312.549 583.618 312.662 583.346 312.662 583.062C312.662 582.178 312.662 581.299 312.662 580.966C312.662 580.255 313.138 579.991 313.533 579.991C313.815 579.991 314.412 580.23 315.065 580.23C318.503 580.23 319.503 577.882 319.503 575.621C319.493 572.494 318.07 570.682 315.261 570.682ZM316.997 575.488C316.997 577.287 316.216 578.746 314.73 578.746C313.243 578.746 312.463 577.287 312.463 575.488C312.463 573.688 313.332 572.229 314.73 572.229C316.128 572.229 316.992 573.688 316.992 575.488H316.997Z" fill="white"/>
</g>
</g>
<mask id="mask1_35_4606" style="mask-type:luminance" maskUnits="userSpaceOnUse" x="369" y="555" width="41" height="41">
<path d="M410 555H369.513V595.5H410V555Z" fill="white"/>
</mask>
<g mask="url(#mask1_35_4606)">
<path fill-rule="evenodd" clip-rule="evenodd" d="M389.757 595.5C378.553 595.5 369.513 586.458 369.513 575.25C369.513 564.042 378.553 555 389.757 555C400.961 555 410 564.042 410 575.25C410 586.458 400.961 595.5 389.757 595.5Z" fill="url(#paint2_linear_35_4606)"/>
<path fill-rule="evenodd" clip-rule="evenodd" d="M395.295 566.271C394.786 563.979 392.494 562.578 390.202 563.087C387.911 563.597 386.447 565.889 386.956 568.118C387.147 568.882 387.465 569.519 387.974 570.028C388.229 570.283 387.656 571.811 387.974 572.002C388.229 572.193 389.375 571.047 389.629 571.111C390.393 571.366 391.221 571.429 392.048 571.238C394.34 570.792 395.804 568.564 395.295 566.271ZM390.202 569.264C389.247 569.264 388.929 568.627 388.866 568.309V568.054C388.866 567.927 388.993 567.8 389.12 567.8C389.247 567.8 389.375 567.927 389.375 568.054V568.309C389.375 568.373 389.375 568.436 389.438 568.5C389.502 568.691 389.693 568.818 390.075 568.882C390.648 568.882 390.775 568.691 390.775 568.5C390.775 568.245 390.712 568.054 390.075 567.8C389.311 567.481 388.866 567.29 388.866 566.653C388.866 566.017 389.438 565.762 390.011 565.762C390.139 565.762 390.266 565.762 390.393 565.825C390.584 565.889 390.839 565.953 391.03 566.144C391.094 566.208 391.094 566.271 391.157 566.335V566.399C391.221 566.526 391.221 566.653 391.221 566.781V566.908V566.972C391.157 567.035 391.094 567.099 390.966 567.099C390.903 567.099 390.775 567.035 390.712 566.972V566.908V566.781V566.717C390.712 566.653 390.712 566.59 390.648 566.526C390.521 566.335 390.202 566.208 390.011 566.208C389.693 566.208 389.438 566.335 389.438 566.653C389.438 566.972 389.693 567.099 390.202 567.29C391.094 567.609 391.285 567.927 391.412 568.245C391.476 568.436 391.348 569.264 390.202 569.264ZM393.831 566.017L392.112 569.137C392.049 569.264 391.858 569.328 391.73 569.264C391.667 569.137 391.603 569.009 391.667 568.882L393.385 565.762C393.449 565.634 393.64 565.571 393.767 565.634C393.831 565.698 393.895 565.889 393.831 566.017Z" fill="#54D1B3"/>
<path fill-rule="evenodd" clip-rule="evenodd" d="M397.905 579.771C397.777 579.58 397.65 579.453 396.95 579.516C396.25 579.516 393.703 579.898 393.003 579.962C392.303 580.026 388.038 580.663 387.338 580.79C387.019 580.854 386.446 580.981 385.81 581.108C385.81 581.108 387.529 574.932 387.592 574.804C387.656 574.613 387.783 574.104 387.592 574.04C387.401 573.976 387.083 573.976 386.828 574.167C386.574 574.358 386.383 574.549 386.255 574.804C386.192 575.059 385.937 575.823 385.81 576.205C385.682 576.523 385.3 577.606 385.046 578.052C384.728 578.498 384.346 578.816 384.091 578.625C383.836 578.498 383.964 577.988 384.027 577.67C384.091 577.351 384.282 576.778 384.409 576.46C384.473 576.141 384.664 575.759 384.664 575.505C384.664 575.186 384.473 574.932 384.218 574.868C384.027 574.804 383.773 574.804 383.645 574.932C383.582 575.123 383.645 575.377 383.582 575.632C383.582 575.887 383.454 576.078 383.391 576.269C383.327 576.523 383.2 576.715 383.136 576.969C383.009 577.351 382.945 577.67 382.818 578.052C382.754 578.434 382.69 578.752 382.69 579.134C382.69 579.389 382.818 579.707 383.072 579.898C383.263 580.026 383.518 580.09 383.709 580.09C384.091 580.09 384.473 579.771 384.728 579.516C384.855 579.389 385.046 579.198 385.11 579.007C384.855 579.771 384.6 580.535 384.346 581.299C384.346 581.342 384.324 581.363 384.282 581.363C384.282 581.363 384.218 581.427 384.155 581.427C384.155 581.427 384.091 581.427 384.091 581.49C383.9 581.554 383.709 581.618 383.518 581.682C383.072 581.873 382.754 582.127 382.436 582.318C382.054 582.573 381.672 582.891 381.354 583.21C380.908 583.656 380.59 584.165 380.335 584.738C380.144 585.248 379.953 585.884 380.08 586.457C380.208 587.031 380.653 587.413 381.226 587.476C381.608 587.54 382.054 587.413 382.372 587.222C382.69 587.031 383.009 586.712 383.263 586.457C384.027 585.566 384.537 584.547 384.918 583.401C385.046 583.146 385.11 582.828 385.237 582.509C386.383 582.191 389.184 581.682 389.884 581.554C390.584 581.427 394.085 580.981 394.977 580.854C395.804 580.726 397.587 580.599 397.777 580.408C398.096 580.217 398.032 579.962 397.905 579.771ZM383.773 583.21C383.709 583.337 383.709 583.465 383.645 583.592C383.518 583.847 383.391 584.101 383.327 584.356C383.072 584.865 382.754 585.375 382.436 585.757C382.245 585.948 381.672 586.521 381.417 586.203C381.163 585.948 381.481 585.12 382.118 584.292C382.881 583.273 383.964 582.891 383.964 582.891C383.836 582.955 383.773 583.21 383.773 583.21Z" fill="white"/>
<path fill-rule="evenodd" clip-rule="evenodd" d="M391.603 577.479C391.603 577.479 391.476 577.861 391.03 577.988C390.584 578.115 391.03 576.269 391.03 576.269C391.03 576.269 391.412 574.486 391.476 574.167C391.539 573.913 391.539 573.658 391.221 573.531C390.903 573.467 390.648 573.403 390.521 573.722L390.457 573.976C390.457 573.976 390.139 573.531 389.502 573.658C388.865 573.722 388.102 574.677 387.592 576.078C387.147 577.479 387.274 578.37 387.401 578.689C387.465 579.007 387.656 579.516 388.356 579.58C388.993 579.707 389.502 579.198 389.757 578.561C389.757 578.561 389.757 579.071 390.202 579.262C390.648 579.389 391.284 578.943 391.539 578.752C391.73 578.561 391.603 577.479 391.603 577.479ZM390.266 575.186C390.202 575.568 390.011 576.269 389.757 576.969C389.502 577.733 389.247 578.37 388.865 578.243C388.42 578.179 388.356 577.479 388.42 577.16C388.42 576.778 388.547 576.332 388.738 575.95C389.056 575.186 389.502 574.931 389.82 574.804C390.075 574.677 390.33 574.74 390.266 575.186Z" fill="white"/>
<path fill-rule="evenodd" clip-rule="evenodd" d="M395.168 573.403C394.849 573.021 394.276 573.021 393.958 573.212C393.64 573.403 393.258 573.913 393.194 574.04L393.258 573.594C393.258 573.594 393.321 573.467 393.003 573.34C392.621 573.276 392.43 573.212 392.367 573.531C392.303 573.849 390.902 581.3 390.902 581.3C390.902 581.3 390.775 581.745 390.902 582C391.03 582.255 391.348 582.382 391.666 582C391.985 581.618 392.112 580.09 392.239 579.389C392.367 578.625 392.367 578.498 392.367 578.498C392.367 578.498 392.621 578.88 393.258 579.007C393.958 579.135 394.531 578.561 394.913 577.797C395.295 577.033 395.55 575.887 395.613 575.25C395.55 574.613 395.422 573.785 395.168 573.403ZM394.404 575.25C394.34 575.696 394.276 576.205 394.085 576.587C393.958 576.969 393.831 577.352 393.513 577.67C393.258 577.925 392.749 578.116 392.494 577.797C392.494 577.797 392.621 577.033 392.812 576.333C393.003 575.632 393.194 574.804 393.703 574.422C394.34 573.977 394.467 574.804 394.404 575.25Z" fill="white"/>
<path fill-rule="evenodd" clip-rule="evenodd" d="M398.86 576.396C398.669 576.332 398.542 576.587 398.414 576.715C398.287 576.842 398.16 576.969 398.032 577.033C397.777 577.288 397.141 577.67 396.759 577.351C396.632 577.224 396.568 576.906 396.632 576.651C396.632 576.46 396.759 576.141 396.759 576.141C397.077 576.141 397.395 576.014 397.523 575.95C398.032 575.759 398.414 575.441 398.732 574.995C399.114 574.358 399.624 573.276 398.86 572.703C398.732 572.639 398.605 572.575 398.477 572.575C398.032 572.512 397.587 572.575 397.205 572.894C396.695 573.34 396.568 573.531 396.123 574.295C395.677 575.186 395.359 576.269 395.422 577.224C395.422 577.479 395.486 577.733 395.55 577.924C395.613 578.179 395.741 578.37 395.995 578.498C396.314 578.752 396.695 578.752 397.077 578.689C397.523 578.561 398.032 578.243 398.16 578.115C398.287 577.988 398.924 577.415 398.987 577.288C399.051 577.097 398.924 576.842 398.924 576.842C399.114 576.715 398.987 576.46 398.86 576.396ZM397.777 573.785C397.842 573.722 397.969 573.658 398.032 573.594C398.16 573.531 398.351 573.658 398.351 573.785C398.414 574.04 398.287 574.295 398.096 574.486C397.969 574.677 397.777 574.804 397.587 574.932C397.523 574.995 397.395 575.059 397.332 575.059C397.077 575.186 397.014 575.123 397.014 575.186C397.077 574.932 397.395 574.167 397.777 573.785Z" fill="white"/>
</g>
<g clip-path="url(#clip1_35_4606)">
<rect x="15" y="606" width="450" height="114" rx="24" fill="#21222B"/>
<g opacity="0.4" clip-path="url(#clip2_35_4606)">
<g filter="url(#filter2_f_35_4606)">
<rect x="-53" y="656" width="217" height="217" rx="108.5" fill="#FF4240"/>
</g>
<g filter="url(#filter3_f_35_4606)">
<rect x="308" y="675" width="198" height="198" rx="99" fill="#3DD2CE"/>
</g>
</g>
<path d="M134.049 637L138.883 623.855H141.246L146.041 637H143.707L142.613 633.719H137.516L136.373 637H134.049ZM138.082 631.834H142.027L140.055 626.082L138.082 631.834ZM151.666 637.146C150.787 637.146 150.003 636.974 149.312 636.629C148.622 636.277 148.076 635.74 147.672 635.018C147.275 634.295 147.076 633.38 147.076 632.273C147.076 631.16 147.268 630.239 147.652 629.51C148.043 628.774 148.58 628.227 149.264 627.869C149.954 627.505 150.755 627.322 151.666 627.322C152.434 627.322 153.128 627.449 153.746 627.703C154.365 627.957 154.856 628.338 155.221 628.846C155.592 629.354 155.787 629.995 155.807 630.77H153.746C153.714 630.216 153.518 629.78 153.16 629.461C152.802 629.142 152.311 628.982 151.686 628.982C150.846 628.982 150.227 629.272 149.83 629.852C149.433 630.424 149.234 631.232 149.234 632.273C149.234 632.951 149.322 633.53 149.498 634.012C149.674 634.493 149.941 634.861 150.299 635.115C150.663 635.369 151.126 635.496 151.686 635.496C152.324 635.496 152.835 635.327 153.219 634.988C153.603 634.65 153.805 634.161 153.824 633.523H155.885C155.865 634.318 155.67 634.985 155.299 635.525C154.928 636.066 154.426 636.473 153.795 636.746C153.17 637.013 152.46 637.146 151.666 637.146ZM162.496 637.176C161.454 637.176 160.585 636.971 159.889 636.561C159.199 636.144 158.681 635.564 158.336 634.822C157.991 634.074 157.818 633.208 157.818 632.225C157.818 631.235 157.984 630.376 158.316 629.646C158.655 628.911 159.156 628.341 159.82 627.938C160.491 627.527 161.327 627.322 162.33 627.322C163.684 627.322 164.752 627.726 165.533 628.533C166.314 629.34 166.705 630.493 166.705 631.99C166.705 632.081 166.699 632.195 166.686 632.332C166.679 632.462 166.669 632.557 166.656 632.615H159.928C159.934 633.156 160.022 633.654 160.191 634.109C160.367 634.559 160.644 634.92 161.021 635.193C161.399 635.467 161.891 635.604 162.496 635.604C163.147 635.604 163.658 635.46 164.029 635.174C164.4 634.881 164.596 634.451 164.615 633.885H166.695C166.663 634.588 166.471 635.187 166.119 635.682C165.774 636.17 165.292 636.541 164.674 636.795C164.062 637.049 163.336 637.176 162.496 637.176ZM159.947 631.199H164.605C164.586 630.431 164.371 629.848 163.961 629.451C163.557 629.048 163.014 628.846 162.33 628.846C161.627 628.846 161.067 629.048 160.65 629.451C160.24 629.855 160.006 630.438 159.947 631.199ZM169.166 637V627.479H171.178L171.227 629.109C171.487 628.582 171.858 628.159 172.34 627.84C172.828 627.514 173.44 627.352 174.176 627.352H174.361V629.197H174.137C173.701 629.197 173.303 629.246 172.945 629.344C172.594 629.435 172.281 629.578 172.008 629.773C171.734 629.962 171.493 630.2 171.285 630.486V637H169.166ZM180.025 637.146C179.146 637.146 178.362 636.974 177.672 636.629C176.982 636.277 176.435 635.74 176.031 635.018C175.634 634.295 175.436 633.38 175.436 632.273C175.436 631.16 175.628 630.239 176.012 629.51C176.402 628.774 176.939 628.227 177.623 627.869C178.313 627.505 179.114 627.322 180.025 627.322C180.794 627.322 181.487 627.449 182.105 627.703C182.724 627.957 183.215 628.338 183.58 628.846C183.951 629.354 184.146 629.995 184.166 630.77H182.105C182.073 630.216 181.878 629.78 181.52 629.461C181.161 629.142 180.67 628.982 180.045 628.982C179.205 628.982 178.587 629.272 178.189 629.852C177.792 630.424 177.594 631.232 177.594 632.273C177.594 632.951 177.682 633.53 177.857 634.012C178.033 634.493 178.3 634.861 178.658 635.115C179.023 635.369 179.485 635.496 180.045 635.496C180.683 635.496 181.194 635.327 181.578 634.988C181.962 634.65 182.164 634.161 182.184 633.523H184.244C184.225 634.318 184.029 634.985 183.658 635.525C183.287 636.066 182.786 636.473 182.154 636.746C181.529 637.013 180.82 637.146 180.025 637.146ZM189.059 637.166C188.512 637.166 188.007 637.065 187.545 636.863C187.089 636.655 186.721 636.346 186.441 635.936C186.161 635.519 186.021 635.001 186.021 634.383C186.021 633.517 186.285 632.863 186.812 632.42C187.346 631.977 188.092 631.674 189.049 631.512C190.012 631.349 191.139 631.258 192.428 631.238V630.652C192.428 629.943 192.252 629.454 191.9 629.188C191.549 628.921 191.103 628.787 190.562 628.787C189.977 628.787 189.488 628.93 189.098 629.217C188.707 629.503 188.512 629.962 188.512 630.594H186.51C186.51 629.799 186.679 629.165 187.018 628.689C187.363 628.208 187.838 627.859 188.443 627.645C189.055 627.43 189.762 627.322 190.562 627.322C191.103 627.322 191.611 627.371 192.086 627.469C192.561 627.566 192.978 627.739 193.336 627.986C193.701 628.227 193.984 628.562 194.186 628.992C194.394 629.415 194.498 629.959 194.498 630.623V637H192.525L192.447 635.662C192.031 636.131 191.542 636.499 190.982 636.766C190.429 637.033 189.788 637.166 189.059 637.166ZM189.693 635.662C190.266 635.662 190.787 635.522 191.256 635.242C191.725 634.962 192.109 634.62 192.408 634.217V632.488C190.859 632.495 189.758 632.638 189.107 632.918C188.456 633.198 188.131 633.65 188.131 634.275C188.131 634.718 188.268 635.06 188.541 635.301C188.821 635.542 189.205 635.662 189.693 635.662ZM209.117 637C208.251 637 207.584 636.883 207.115 636.648C206.646 636.408 206.321 636.053 206.139 635.584C205.963 635.109 205.875 634.516 205.875 633.807V629.139H204.283V627.479H205.875V625.262H207.975V627.479H210.191V629.139H207.975V633.68C207.975 634.227 208.046 634.64 208.189 634.92C208.339 635.2 208.684 635.34 209.225 635.34H210.191V637H209.117ZM215.279 637.137C214.244 637.137 213.473 636.834 212.965 636.229C212.457 635.623 212.203 634.777 212.203 633.689V627.479H214.312V633.426C214.312 633.803 214.361 634.139 214.459 634.432C214.557 634.725 214.729 634.956 214.977 635.125C215.224 635.288 215.566 635.369 216.002 635.369C216.614 635.369 217.132 635.239 217.555 634.979C217.984 634.712 218.342 634.396 218.629 634.031V627.479H220.738V637H218.697L218.658 635.545C218.346 635.942 217.913 636.307 217.359 636.639C216.806 636.971 216.113 637.137 215.279 637.137ZM231.383 637C230.517 637 229.85 636.883 229.381 636.648C228.912 636.408 228.587 636.053 228.404 635.584C228.229 635.109 228.141 634.516 228.141 633.807V629.139H226.549V627.479H228.141V625.262H230.24V627.479H232.457V629.139H230.24V633.68C230.24 634.227 230.312 634.64 230.455 634.92C230.605 635.2 230.95 635.34 231.49 635.34H232.457V637H231.383ZM237.027 637.166C236.48 637.166 235.976 637.065 235.514 636.863C235.058 636.655 234.69 636.346 234.41 635.936C234.13 635.519 233.99 635.001 233.99 634.383C233.99 633.517 234.254 632.863 234.781 632.42C235.315 631.977 236.061 631.674 237.018 631.512C237.981 631.349 239.107 631.258 240.396 631.238V630.652C240.396 629.943 240.221 629.454 239.869 629.188C239.518 628.921 239.072 628.787 238.531 628.787C237.945 628.787 237.457 628.93 237.066 629.217C236.676 629.503 236.48 629.962 236.48 630.594H234.479C234.479 629.799 234.648 629.165 234.986 628.689C235.331 628.208 235.807 627.859 236.412 627.645C237.024 627.43 237.73 627.322 238.531 627.322C239.072 627.322 239.579 627.371 240.055 627.469C240.53 627.566 240.947 627.739 241.305 627.986C241.669 628.227 241.952 628.562 242.154 628.992C242.363 629.415 242.467 629.959 242.467 630.623V637H240.494L240.416 635.662C239.999 636.131 239.511 636.499 238.951 636.766C238.398 637.033 237.757 637.166 237.027 637.166ZM237.662 635.662C238.235 635.662 238.756 635.522 239.225 635.242C239.693 634.962 240.077 634.62 240.377 634.217V632.488C238.827 632.495 237.727 632.638 237.076 632.918C236.425 633.198 236.1 633.65 236.1 634.275C236.1 634.718 236.236 635.06 236.51 635.301C236.79 635.542 237.174 635.662 237.662 635.662ZM245.338 637V627.479H247.35L247.398 629.109C247.659 628.582 248.03 628.159 248.512 627.84C249 627.514 249.612 627.352 250.348 627.352H250.533V629.197H250.309C249.872 629.197 249.475 629.246 249.117 629.344C248.766 629.435 248.453 629.578 248.18 629.773C247.906 629.962 247.665 630.2 247.457 630.486V637H245.338ZM250.543 640.496V638.807H251.031C251.48 638.807 251.816 638.699 252.037 638.484C252.258 638.276 252.369 637.928 252.369 637.439V627.479H254.488V637.273C254.488 638.315 254.234 639.113 253.727 639.666C253.225 640.219 252.424 640.496 251.324 640.496H250.543ZM253.434 625.955C253.036 625.955 252.73 625.851 252.516 625.643C252.301 625.434 252.193 625.174 252.193 624.861C252.193 624.536 252.301 624.269 252.516 624.061C252.73 623.852 253.036 623.748 253.434 623.748C253.824 623.748 254.127 623.852 254.342 624.061C254.563 624.269 254.674 624.536 254.674 624.861C254.674 625.174 254.563 625.434 254.342 625.643C254.127 625.851 253.824 625.955 253.434 625.955ZM261.617 637.176C260.576 637.176 259.706 636.971 259.01 636.561C258.32 636.144 257.802 635.564 257.457 634.822C257.112 634.074 256.939 633.208 256.939 632.225C256.939 631.235 257.105 630.376 257.438 629.646C257.776 628.911 258.277 628.341 258.941 627.938C259.612 627.527 260.449 627.322 261.451 627.322C262.805 627.322 263.873 627.726 264.654 628.533C265.436 629.34 265.826 630.493 265.826 631.99C265.826 632.081 265.82 632.195 265.807 632.332C265.8 632.462 265.79 632.557 265.777 632.615H259.049C259.055 633.156 259.143 633.654 259.312 634.109C259.488 634.559 259.765 634.92 260.143 635.193C260.52 635.467 261.012 635.604 261.617 635.604C262.268 635.604 262.779 635.46 263.15 635.174C263.521 634.881 263.717 634.451 263.736 633.885H265.816C265.784 634.588 265.592 635.187 265.24 635.682C264.895 636.17 264.413 636.541 263.795 636.795C263.183 637.049 262.457 637.176 261.617 637.176ZM259.068 631.199H263.727C263.707 630.431 263.492 629.848 263.082 629.451C262.678 629.048 262.135 628.846 261.451 628.846C260.748 628.846 260.188 629.048 259.771 629.451C259.361 629.855 259.127 630.438 259.068 631.199ZM271.91 637C271.044 637 270.377 636.883 269.908 636.648C269.439 636.408 269.114 636.053 268.932 635.584C268.756 635.109 268.668 634.516 268.668 633.807V629.139H267.076V627.479H268.668V625.262H270.768V627.479H272.984V629.139H270.768V633.68C270.768 634.227 270.839 634.64 270.982 634.92C271.132 635.2 271.477 635.34 272.018 635.34H272.984V637H271.91ZM277.555 637.166C277.008 637.166 276.503 637.065 276.041 636.863C275.585 636.655 275.217 636.346 274.938 635.936C274.658 635.519 274.518 635.001 274.518 634.383C274.518 633.517 274.781 632.863 275.309 632.42C275.842 631.977 276.588 631.674 277.545 631.512C278.508 631.349 279.635 631.258 280.924 631.238V630.652C280.924 629.943 280.748 629.454 280.396 629.188C280.045 628.921 279.599 628.787 279.059 628.787C278.473 628.787 277.984 628.93 277.594 629.217C277.203 629.503 277.008 629.962 277.008 630.594H275.006C275.006 629.799 275.175 629.165 275.514 628.689C275.859 628.208 276.334 627.859 276.939 627.645C277.551 627.43 278.258 627.322 279.059 627.322C279.599 627.322 280.107 627.371 280.582 627.469C281.057 627.566 281.474 627.739 281.832 627.986C282.197 628.227 282.48 628.562 282.682 628.992C282.89 629.415 282.994 629.959 282.994 630.623V637H281.021L280.943 635.662C280.527 636.131 280.038 636.499 279.479 636.766C278.925 637.033 278.284 637.166 277.555 637.166ZM278.189 635.662C278.762 635.662 279.283 635.522 279.752 635.242C280.221 634.962 280.605 634.62 280.904 634.217V632.488C279.355 632.495 278.255 632.638 277.604 632.918C276.952 633.198 276.627 633.65 276.627 634.275C276.627 634.718 276.764 635.06 277.037 635.301C277.317 635.542 277.701 635.662 278.189 635.662ZM290.104 637V623.855H292.34L298.971 633.514V623.855H301.09V637H298.854L292.213 627.303V637H290.104ZM304.4 637V623.855H312.789V625.73H306.646V629.363H312.174V631.17H306.646V637H304.4ZM320.611 637.176C319.264 637.176 318.118 636.896 317.174 636.336C316.23 635.77 315.51 634.982 315.016 633.973C314.521 632.964 314.273 631.785 314.273 630.438C314.273 629.09 314.521 627.911 315.016 626.902C315.51 625.887 316.23 625.096 317.174 624.529C318.118 623.963 319.264 623.68 320.611 623.68C321.568 623.68 322.464 623.846 323.297 624.178C324.13 624.51 324.814 625.011 325.348 625.682C325.882 626.346 326.184 627.179 326.256 628.182H323.971C323.899 627.583 323.704 627.091 323.385 626.707C323.066 626.316 322.665 626.027 322.184 625.838C321.702 625.643 321.178 625.545 320.611 625.545C319.654 625.545 318.88 625.77 318.287 626.219C317.695 626.661 317.265 627.254 316.998 627.996C316.731 628.732 316.598 629.546 316.598 630.438C316.598 631.323 316.731 632.137 316.998 632.879C317.265 633.615 317.695 634.204 318.287 634.646C318.88 635.089 319.654 635.311 320.611 635.311C321.594 635.311 322.382 635.063 322.975 634.568C323.574 634.067 323.915 633.341 324 632.391H326.295C326.204 633.439 325.911 634.321 325.416 635.037C324.921 635.747 324.264 636.281 323.443 636.639C322.623 636.997 321.679 637.176 320.611 637.176Z" fill="white"/>
<g clip-path="url(#clip3_35_4606)">
<path d="M225.919 703.92C215.315 702.99 205.95 699.043 199.859 692.931C196.382 689.449 194.275 685.67 193.326 681.214C192.891 679.186 192.891 675.828 193.333 673.779C194.659 667.586 198.642 662.171 204.922 658.036C219.241 648.616 241.179 648.66 255.368 658.145C257.251 659.402 258.468 660.405 260.177 662.092C262.329 664.221 263.842 666.343 265.436 669.454C265.494 669.571 265.791 669.716 266.088 669.774C267.094 669.985 268.434 670.77 269.513 671.78C270.354 672.565 270.998 673.423 272.599 675.85C274.214 678.3 281.515 689.609 281.957 690.35C282.13 690.641 281.79 691.099 281.406 691.099C281.131 691.099 280.943 690.917 280.537 690.278C280.255 689.827 278.393 686.927 276.401 683.831C269.354 672.885 268.977 672.376 267.015 671.388L265.986 670.872H262.959C259.931 670.872 259.931 670.872 259.859 671.191C259.46 672.943 259.381 673.372 259.468 673.452C259.526 673.503 261.242 674.484 263.285 675.632L267 677.718L266.768 678.205C266.638 678.474 266.493 678.692 266.442 678.692C266.392 678.692 263.263 676.955 259.489 674.825C255.716 672.703 252.406 670.901 252.138 670.828C251.066 670.53 249.415 671.722 249.415 672.798C249.415 673.888 249.733 674.2 256.368 679.652C260.503 683.053 262.872 685.095 263.234 685.575C263.893 686.455 264.559 687.748 265.168 689.34C266.247 692.146 268 693.708 270.875 694.435L271.824 694.675L271.744 695.191C271.701 695.475 271.643 695.736 271.607 695.773C271.483 695.911 269.579 695.3 268.478 694.77C266.754 693.941 265.566 692.756 264.4 690.692C264.393 690.678 263.712 690.91 262.901 691.208C261.452 691.739 261.38 691.782 260.011 693.127C254.166 698.854 245.779 702.51 235.66 703.753C234.002 703.986 227.672 704.08 225.919 703.92ZM235.994 702.161C240.636 701.544 244.243 700.62 248.009 699.072C251.964 697.444 255.701 695.111 258.309 692.625L259.337 691.644L256.744 690.401C253.978 689.071 253.702 688.853 253.347 687.668C253.123 686.92 253.376 686.12 254.086 685.357L254.637 684.754L253.434 683.838C252.486 683.111 252.189 682.799 252 682.319C251.703 681.541 251.812 680.698 252.29 680.022L252.652 679.506L248.857 678.838C246.771 678.467 244.823 678.096 244.533 678.009C243.961 677.842 243.389 677.188 243.236 676.555C243.157 676.214 245.018 667.099 245.431 665.798C245.619 665.217 246.409 664.512 247.01 664.403C247.64 664.287 258.823 666.256 259.381 666.583C260.264 667.099 260.54 667.928 260.264 669.207L260.148 669.738H260.764C261.104 669.738 261.908 669.694 262.553 669.643L263.726 669.549L263.147 668.466C261.401 665.202 258.222 661.903 254.303 659.286C252.471 658.065 248.567 656.132 246.213 655.288C242.867 654.089 238.818 653.188 234.929 652.781C232.792 652.556 227.208 652.563 225.137 652.788C220.175 653.326 215.67 654.453 211.73 656.139C202.604 660.042 196.469 666.511 194.898 673.881C194.485 675.807 194.456 679.179 194.833 680.931C195.665 684.805 197.476 688.155 200.424 691.273C206.436 697.626 215.619 701.536 226.629 702.416C228.106 702.532 234.494 702.358 235.994 702.161ZM233.987 695.227C233.422 695.06 232.843 694.384 232.72 693.737C232.64 693.316 232.734 693.025 233.335 691.855C235.769 687.131 236.826 682.784 236.826 677.515C236.826 672.42 235.892 668.451 233.567 663.698C233.067 662.68 232.662 661.728 232.662 661.59C232.662 661.081 233.082 660.347 233.538 660.064C234.161 659.671 235.211 659.744 235.718 660.216C235.914 660.398 236.414 661.227 236.834 662.055C238.5 665.333 239.637 668.931 240.202 672.674C240.549 674.993 240.622 679.383 240.339 681.505C239.825 685.415 238.797 688.911 237.145 692.327C236.146 694.392 235.523 695.242 235.001 695.242C234.9 695.242 234.726 695.271 234.625 695.3C234.523 695.329 234.234 695.3 233.987 695.227ZM227.215 691.673C226.346 691.419 225.716 690.343 225.969 689.544C226.027 689.347 226.44 688.453 226.882 687.552C228.743 683.736 229.518 679.652 229.142 675.64C228.83 672.34 228.244 670.261 226.759 667.223C225.767 665.181 225.716 664.868 226.295 664.039C226.846 663.254 228.222 663.131 228.939 663.792C229.439 664.25 230.996 667.514 231.597 669.36C233.582 675.465 233.278 682.028 230.735 688.025C229.424 691.099 228.504 692.051 227.215 691.673ZM220.233 688.068C219.697 687.828 219.234 687.254 219.103 686.68C219.024 686.331 219.161 685.939 219.799 684.645C222.145 679.877 222.167 675.291 219.878 670.632C218.871 668.589 218.85 668.182 219.697 667.376C220.117 666.976 220.298 666.91 220.885 666.91C221.877 666.91 222.392 667.412 223.275 669.236C224.637 672.042 225.194 674.477 225.187 677.595C225.18 680.8 224.659 683.002 223.21 685.96C222.377 687.654 221.964 688.105 221.131 688.214C220.878 688.235 220.472 688.177 220.233 688.068ZM213.715 684.71C213.287 684.536 212.802 683.954 212.657 683.446C212.498 682.879 212.628 682.428 213.266 681.374C214.091 680.015 214.28 679.288 214.28 677.515C214.28 675.741 214.091 675.007 213.266 673.655C212.983 673.197 212.708 672.645 212.643 672.427C212.375 671.533 213.121 670.435 214.12 670.246C214.968 670.087 215.547 670.465 216.329 671.686C218.582 675.218 218.582 679.928 216.329 683.431C215.533 684.659 214.649 685.095 213.715 684.71ZM262.263 690.191C263.017 689.922 263.668 689.667 263.712 689.624C263.755 689.58 263.611 689.1 263.386 688.548C262.937 687.421 263.009 687.45 261.401 687.756C259.67 688.09 258.664 687.792 256.766 686.389C256.252 686.004 255.716 685.691 255.585 685.691C255.448 685.691 255.158 685.888 254.926 686.135C254.441 686.658 254.369 687.472 254.76 687.959C255.107 688.381 259.866 690.656 260.431 690.67C260.684 690.678 261.503 690.459 262.263 690.191ZM261.51 686.535C262.213 686.389 262.292 686.346 262.169 686.113C262.032 685.859 255.448 680.378 254.876 680.037C254.405 679.761 254.021 679.826 253.63 680.248C252.486 681.476 252.623 681.738 255.585 684.013C259.163 686.767 259.547 686.927 261.51 686.535ZM252.674 678.227C252.674 678.191 251.928 677.544 251.015 676.795C248.763 674.934 248.277 674.237 248.277 672.856C248.277 671.707 249.045 670.595 250.276 669.956C250.885 669.636 251.979 669.541 252.594 669.745C253.029 669.89 254.999 670.959 257.722 672.529L258.294 672.863L258.765 670.61C259.25 668.306 259.258 667.695 258.809 667.557C258.671 667.514 256.042 667.034 252.971 666.489C247.51 665.522 246.909 665.464 246.655 665.878C246.517 666.096 244.439 675.763 244.439 676.17C244.439 676.374 244.54 676.628 244.67 676.737C244.794 676.846 246.568 677.231 248.611 677.595C252.551 678.307 252.674 678.329 252.674 678.227Z" fill="white"/>
</g>
</g>
</g>
<rect width="19" height="19" transform="translate(461 70)" fill="white"/>
<defs>
<filter id="filter0_d_35_4606" x="176" y="52" width="127.881" height="50.0005" filterUnits="userSpaceOnUse" color-interpolation-filters="sRGB">
<feFlood flood-opacity="0" result="BackgroundImageFix"/>
<feColorMatrix in="SourceAlpha" type="matrix" values="0 0 0 0 0 0 0 0 0 0 0 0 0 0 0 0 0 0 127 0" result="hardAlpha"/>
<feOffset dy="4"/>
<feGaussianBlur stdDeviation="2"/>
<feColorMatrix type="matrix" values="0 0 0 0 0 0 0 0 0 0 0 0 0 0 0 0 0 0 0.08 0"/>
<feBlend mode="normal" in2="BackgroundImageFix" result="effect1_dropShadow_35_4606"/>
<feBlend mode="normal" in="SourceGraphic" in2="effect1_dropShadow_35_4606" result="shape"/>
</filter>
<filter id="filter1_d_35_4606" x="295.776" y="547.009" width="56.487" height="56.4824" filterUnits="userSpaceOnUse" color-interpolation-filters="sRGB">
<feFlood flood-opacity="0" result="BackgroundImageFix"/>
<feColorMatrix in="SourceAlpha" type="matrix" values="0 0 0 0 0 0 0 0 0 0 0 0 0 0 0 0 0 0 127 0" result="hardAlpha"/>
<feOffset/>
<feGaussianBlur stdDeviation="4"/>
<feComposite in2="hardAlpha" operator="out"/>
<feColorMatrix type="matrix" values="0 0 0 0 0 0 0 0 0 0 0 0 0 0 0 0 0 0 0.16 0"/>
<feBlend mode="normal" in2="BackgroundImageFix" result="effect1_dropShadow_35_4606"/>
<feBlend mode="normal" in="SourceGraphic" in2="effect1_dropShadow_35_4606" result="shape"/>
</filter>
<filter id="filter2_f_35_4606" x="-113" y="596" width="337" height="337" filterUnits="userSpaceOnUse" color-interpolation-filters="sRGB">
<feFlood flood-opacity="0" result="BackgroundImageFix"/>
<feBlend mode="normal" in="SourceGraphic" in2="BackgroundImageFix" result="shape"/>
<feGaussianBlur stdDeviation="30" result="effect1_foregroundBlur_35_4606"/>
</filter>
<filter id="filter3_f_35_4606" x="248" y="615" width="318" height="318" filterUnits="userSpaceOnUse" color-interpolation-filters="sRGB">
<feFlood flood-opacity="0" result="BackgroundImageFix"/>
<feBlend mode="normal" in="SourceGraphic" in2="BackgroundImageFix" result="shape"/>
<feGaussianBlur stdDeviation="30" result="effect1_foregroundBlur_35_4606"/>
</filter>
<linearGradient id="paint0_linear_35_4606" x1="20" y1="54.0278" x2="459.5" y2="557.858" gradientUnits="userSpaceOnUse">
<stop stop-color="#111018"/>
<stop offset="0.534137" stop-color="#343442"/>
<stop offset="1" stop-color="#21222B"/>
</linearGradient>
<radialGradient id="paint1_radial_35_4606" cx="0" cy="0" r="1" gradientUnits="userSpaceOnUse" gradientTransform="translate(303.778 595.513) scale(35.4059 35.4173)">
<stop stop-color="#2D76FF"/>
<stop offset="1" stop-color="#00E2CD"/>
</radialGradient>
<linearGradient id="paint2_linear_35_4606" x1="378.088" y1="587.655" x2="399.446" y2="564.96" gradientUnits="userSpaceOnUse">
<stop stop-color="#61167B"/>
<stop offset="1" stop-color="#9934AC"/>
</linearGradient>
<clipPath id="clip0_35_4606">
<rect x="20" y="20" width="440" height="700" rx="52" fill="white"/>
</clipPath>
<clipPath id="clip1_35_4606">
<rect x="15" y="606" width="450" height="114" rx="24" fill="white"/>
</clipPath>
<clipPath id="clip2_35_4606">
<rect width="445" height="220" fill="white" transform="translate(15 606)"/>
</clipPath>
<clipPath id="clip3_35_4606">
<rect width="89" height="53" fill="white" transform="translate(193 651)"/>
</clipPath>
</defs>
</svg>
