<svg width="480" height="740" viewBox="0 0 480 740" fill="none" xmlns="http://www.w3.org/2000/svg">
<rect width="480" height="740" rx="60" fill="white"/>
<g clip-path="url(#clip0_35_4606)">
<rect x="20" y="20" width="440" height="700" rx="52" fill="url(#paint0_linear_35_4606)"/>
<g filter="url(#filter0_d_35_4606)">
<path d="M186.596 41.9248H180.826V63.7744H186.596V41.9248Z" fill="#FF4240"/>
<path d="M186.241 32.0925C185.888 31.7283 185.535 31.4855 185.064 31.2428C184.593 31 184.122 31 183.651 31C183.18 31 182.708 31.1214 182.237 31.2428C181.766 31.4855 181.413 31.7283 181.06 32.0925C180.707 32.4566 180.471 32.8208 180.236 33.3063C180 33.7919 180 34.2774 180 34.763C180 35.2485 180.118 35.7341 180.236 36.2196C180.471 36.7052 180.707 37.0693 181.06 37.4335C181.413 37.7977 181.766 38.0404 182.237 38.2832C182.708 38.526 183.18 38.526 183.651 38.526C184.122 38.526 184.593 38.4046 185.064 38.2832C185.535 38.0404 185.888 37.7977 186.241 37.4335C186.595 37.0693 186.83 36.7052 187.066 36.2196C187.301 35.7341 187.301 35.2485 187.301 34.763C187.301 34.2774 187.183 33.7919 187.066 33.3063C186.83 32.8208 186.477 32.4566 186.241 32.0925Z" fill="#FF4240"/>
<path d="M220.274 32.0925C219.921 31.7283 219.567 31.4855 219.096 31.2428C218.625 31 218.154 31 217.683 31C217.212 31 216.741 31.1214 216.27 31.2428C215.799 31.4855 215.446 31.7283 215.092 32.0925C214.739 32.4566 214.504 32.8208 214.268 33.3063C214.033 33.7919 214.033 34.2774 214.033 34.763C214.033 35.2485 214.15 35.7341 214.268 36.2196C214.504 36.7052 214.739 37.0693 215.092 37.4335C215.446 37.7977 215.799 38.0404 216.27 38.2832C216.741 38.526 217.212 38.526 217.683 38.526C218.154 38.526 218.625 38.4046 219.096 38.2832C219.567 38.0404 219.921 37.7977 220.274 37.4335C220.627 37.0693 220.863 36.7052 221.098 36.2196C221.334 35.7341 221.334 35.2485 221.334 34.763C221.334 34.2774 221.216 33.7919 221.098 33.3063C220.863 32.8208 220.627 32.4566 220.274 32.0925Z" fill="#FF4240"/>
<path d="M220.627 41.9248H214.856V63.7744H220.627V41.9248Z" fill="#FF4240"/>
<path d="M244.767 44.7174C243.825 43.7463 242.765 42.8966 241.47 42.2896C240.174 41.6827 238.879 41.4399 237.348 41.4399C235.935 41.4399 234.64 41.6827 233.58 42.2896C232.52 42.8966 231.696 43.6249 230.989 44.4746V42.0469H225.454V73.0004H231.107V61.7115C231.813 62.5612 232.638 63.2895 233.698 63.7751C234.757 64.2606 235.935 64.5034 237.348 64.5034C238.761 64.5034 240.174 64.2606 241.47 63.6537C242.765 63.0467 243.825 62.3184 244.767 61.2259C245.709 60.2548 246.416 59.041 246.887 57.5843C247.358 56.1277 247.711 54.6711 247.711 52.9717C247.711 51.2722 247.476 49.8156 246.887 48.359C246.416 46.9023 245.709 45.6885 244.767 44.7174ZM241.47 55.278C241.234 56.0063 240.881 56.6133 240.41 57.2202C239.939 57.7057 239.35 58.1913 238.644 58.5554C237.937 58.9196 237.23 59.041 236.406 59.041C235.582 59.041 234.875 58.9196 234.169 58.5554C233.462 58.3127 232.873 57.8271 232.402 57.3416C231.931 56.856 231.578 56.1277 231.342 55.3994C231.107 54.6711 230.989 53.8214 230.989 52.9717C230.989 52.122 231.107 51.2722 231.342 50.5439C231.578 49.8156 231.931 49.2087 232.402 48.6017C232.873 48.1162 233.462 47.6307 234.169 47.3879C234.875 47.1451 235.582 46.9023 236.406 46.9023C237.23 46.9023 238.055 47.0237 238.644 47.3879C239.35 47.752 239.939 48.1162 240.41 48.7231C240.881 49.2087 241.234 49.937 241.47 50.6653C241.705 51.3936 241.823 52.2433 241.823 52.9717C241.823 53.7 241.705 54.5497 241.47 55.278Z" fill="#2AD2C9"/>
<path d="M267.495 44.353C266.789 43.5033 265.964 42.775 264.905 42.1681C263.845 41.5611 262.667 41.3184 261.136 41.3184C259.723 41.3184 258.31 41.5611 257.015 42.1681C255.719 42.775 254.659 43.5033 253.717 44.5958C252.775 45.5669 252.069 46.7807 251.598 48.2374C251.127 49.694 250.773 51.1507 250.773 52.8501C250.773 54.5495 251.009 56.0061 251.598 57.4627C252.069 58.9194 252.893 60.1332 253.717 61.1043C254.659 62.0754 255.719 62.9251 257.015 63.5321C258.31 64.139 259.605 64.3818 261.136 64.3818C262.549 64.3818 263.845 64.139 264.905 63.5321C265.964 62.9251 266.789 62.3182 267.495 61.3471V63.7748H273.03V41.9253H267.495V44.353ZM267.26 55.2778C267.024 56.0061 266.671 56.613 266.2 57.22C265.729 57.7055 265.14 58.1911 264.434 58.4338C263.727 58.6766 263.02 58.9194 262.196 58.9194C261.372 58.9194 260.665 58.798 259.959 58.4338C259.252 58.0697 258.663 57.7055 258.192 57.0986C257.721 56.613 257.368 55.8847 257.132 55.1564C256.897 54.4281 256.779 53.5784 256.779 52.8501C256.779 52.0004 256.897 51.272 257.132 50.5437C257.368 49.8154 257.721 49.2085 258.192 48.6015C258.663 48.116 259.252 47.6304 259.959 47.2663C260.665 46.9021 261.372 46.7807 262.196 46.7807C263.02 46.7807 263.727 46.9021 264.434 47.2663C265.14 47.5091 265.729 47.9946 266.2 48.4802C266.671 48.9657 267.024 49.694 267.26 50.4223C267.495 51.1507 267.613 52.0004 267.613 52.8501C267.613 53.6998 267.495 54.5495 267.26 55.2778Z" fill="#2AD2C9"/>
<path d="M293.64 41.9248L287.987 53.2137L282.099 41.9248H275.623L284.808 59.1617L277.389 72.9998H283.63L299.881 41.9248H293.64Z" fill="#2AD2C9"/>
<path d="M197.899 58.9193L200.136 56.7344L197.663 52.4858L191.069 58.9193L192.246 63.7748L210.264 63.8962L209.086 58.9193H197.899Z" fill="#FF4240"/>
<path d="M210.264 47.0237L209.087 42.0469H191.54L192.836 46.9023L203.434 47.0237L201.197 49.0872L203.552 53.4571L210.264 47.0237Z" fill="#FF4240"/>
</g>
<rect x="80" y="110" width="320" height="410" rx="12" fill="#000308"/>
<path d="M224.238 540L223.244 537.158H219.52L218.54 540H217.112L220.668 530.116H222.124L225.68 540H224.238ZM221.41 531.474H221.382C221.382 531.474 221.158 532.37 220.99 532.874L219.884 536.01H222.88L221.788 532.874C221.62 532.37 221.41 531.474 221.41 531.474ZM226.351 536.458C226.351 534.358 227.919 532.748 230.145 532.748C231.923 532.748 232.805 533.784 232.805 533.784L232.161 534.736C232.161 534.736 231.405 533.924 230.201 533.924C228.773 533.924 227.737 534.988 227.737 536.444C227.737 537.886 228.773 538.992 230.243 538.992C231.559 538.992 232.427 538.04 232.427 538.04L232.973 539.034C232.973 539.034 231.993 540.168 230.145 540.168C227.919 540.168 226.351 538.586 226.351 536.458ZM234.021 536.458C234.021 534.204 235.547 532.748 237.563 532.748C239.565 532.748 240.629 534.232 240.629 536.066C240.629 536.248 240.587 536.654 240.587 536.654H235.421C235.491 538.208 236.597 538.992 237.857 538.992C239.075 538.992 239.957 538.166 239.957 538.166L240.517 539.16C240.517 539.16 239.467 540.168 237.773 540.168C235.547 540.168 234.021 538.558 234.021 536.458ZM235.463 535.632H239.243C239.201 534.414 238.445 533.826 237.535 533.826C236.499 533.826 235.659 534.47 235.463 535.632ZM242.277 542.8V532.916H243.523V533.518C243.523 533.798 243.495 534.036 243.495 534.036H243.523C243.523 534.036 244.125 532.748 245.903 532.748C247.807 532.748 249.011 534.26 249.011 536.458C249.011 538.712 247.653 540.168 245.805 540.168C244.251 540.168 243.635 539.006 243.635 539.006H243.607C243.607 539.006 243.635 539.258 243.635 539.622V542.8H242.277ZM243.593 536.486C243.593 537.746 244.293 539.006 245.595 539.006C246.715 539.006 247.639 538.082 247.639 536.472C247.639 534.932 246.813 533.938 245.637 533.938C244.573 533.938 243.593 534.68 243.593 536.486ZM250.965 537.41V534.106H250.041V533.014H251.007V530.97H252.323V533.014H254.031V534.106H252.323V537.256C252.323 538.67 253.317 538.852 253.835 538.852C254.031 538.852 254.157 538.824 254.157 538.824V540.028C254.157 540.028 253.961 540.056 253.681 540.056C252.771 540.056 250.965 539.776 250.965 537.41ZM255.115 538.012C255.115 535.674 258.195 535.576 259.385 535.576H259.693V535.45C259.693 534.288 259.035 533.896 258.139 533.896C257.047 533.896 256.165 534.582 256.165 534.582L255.605 533.588C255.605 533.588 256.627 532.748 258.251 532.748C260.043 532.748 261.051 533.728 261.051 535.52V540H259.791V539.328C259.791 539.006 259.819 538.768 259.819 538.768H259.791C259.791 538.768 259.217 540.168 257.523 540.168C256.305 540.168 255.115 539.426 255.115 538.012ZM256.487 537.942C256.487 538.516 256.935 539.076 257.817 539.076C258.965 539.076 259.707 537.872 259.707 536.822V536.598H259.357C258.335 536.598 256.487 536.668 256.487 537.942Z" fill="white"/>
<rect x="280.25" y="534.25" width="118.5" height="0.5" fill="#3DD2CE"/>
<rect x="280.25" y="534.25" width="118.5" height="0.5" stroke="#3DD2CE" stroke-width="0.5"/>
<rect x="82.25" y="535.25" width="118.5" height="0.5" fill="#3DD2CE"/>
<rect x="82.25" y="535.25" width="118.5" height="0.5" stroke="#3DD2CE" stroke-width="0.5"/>
<path d="M97.716 563.676L88.1581 586.887H81.9225L77.2192 568.362C76.9337 567.221 76.6869 566.803 75.8173 566.322C74.3995 565.539 72.0581 564.805 70 564.348L70.138 563.676H80.1758C81.4552 563.676 82.6054 564.543 82.8959 566.043L85.3798 579.474L91.5185 563.676H97.716ZM122.148 579.31C122.174 573.184 113.826 572.846 113.884 570.109C113.902 569.276 114.682 568.391 116.386 568.164C117.231 568.052 119.56 567.966 122.203 569.203L123.239 564.281C121.817 563.753 119.991 563.25 117.719 563.25C111.888 563.25 107.785 566.405 107.75 570.923C107.712 574.265 110.678 576.13 112.914 577.24C115.213 578.378 115.984 579.108 115.976 580.126C115.959 581.683 114.142 582.37 112.443 582.397C109.478 582.444 107.758 581.58 106.387 580.931L105.317 586.017C106.696 586.661 109.24 587.222 111.878 587.25C118.075 587.25 122.129 584.134 122.148 579.308L122.148 579.31ZM137.544 586.887H143L138.238 563.676H133.202C132.664 563.671 132.138 563.831 131.69 564.135C131.243 564.438 130.895 564.872 130.693 565.379L121.84 586.887H128.034L129.264 583.42H136.83L137.544 586.887ZM130.962 578.662L134.067 569.946L135.854 578.662L130.962 578.662ZM106.144 563.676L101.266 586.887H95.3674L100.247 563.676H106.144Z" fill="#2637C6"/>
<path d="M187.043 575.281C187.029 572.969 187.536 570.683 188.527 568.599C189.518 566.514 190.966 564.685 192.761 563.252C190.522 561.474 187.832 560.369 185 560.066C182.169 559.762 179.31 560.271 176.751 561.534C174.193 562.797 172.038 564.763 170.534 567.208C169.031 569.652 168.239 572.475 168.25 575.353C168.26 578.231 169.073 581.048 170.595 583.48C172.117 585.913 174.287 587.863 176.855 589.106C179.423 590.35 182.286 590.837 185.115 590.511C187.944 590.185 190.625 589.061 192.851 587.265C191.045 585.846 189.584 584.028 188.577 581.952C187.571 579.875 187.046 577.594 187.043 575.281Z" fill="#E9001B"/>
<path d="M187.044 575.282C187.045 577.593 187.568 579.874 188.571 581.95C189.575 584.027 191.034 585.845 192.837 587.266C194.631 585.834 196.081 584.01 197.078 581.93C198.074 579.851 198.592 577.57 198.592 575.259C198.592 572.949 198.074 570.668 197.078 568.588C196.081 566.509 194.631 564.685 192.837 563.252C191.033 564.683 189.574 566.509 188.571 568.593C187.567 570.677 187.045 572.964 187.044 575.282Z" fill="#FF5F00"/>
<path d="M202.194 559.906C198.78 559.912 195.469 561.092 192.805 563.252C194.6 564.684 196.049 566.509 197.046 568.588C198.043 570.668 198.561 572.948 198.561 575.259C198.561 577.57 198.043 579.85 197.046 581.93C196.049 584.009 194.6 585.834 192.805 587.266C194.707 588.77 196.937 589.793 199.31 590.25C201.682 590.707 204.128 590.583 206.444 589.891C208.759 589.198 210.878 587.956 212.622 586.268C214.366 584.58 215.686 582.494 216.472 580.186C217.257 577.878 217.485 575.413 217.137 572.998C216.789 570.582 215.874 568.286 214.47 566.3C213.065 564.314 211.212 562.696 209.063 561.582C206.915 560.467 204.534 559.887 202.119 559.891L202.194 559.906Z" fill="#F59C1B"/>
<path fill-rule="evenodd" clip-rule="evenodd" d="M242.545 557.065H278.527V593.435H242.545V557.065Z" fill="#016FCE"/>
<path fill-rule="evenodd" clip-rule="evenodd" d="M255.582 587.68V574.646L278.527 574.666V578.265L275.871 581.132L278.527 584.03V587.701H274.292L272.039 585.189L269.806 587.711L255.582 587.68Z" fill="white"/>
<path fill-rule="evenodd" clip-rule="evenodd" d="M257.111 586.257V576.079H265.641V578.428H259.877V580.014H265.5V582.322H259.877V583.878H265.641V586.257H257.111Z" fill="#016FCE"/>
<path fill-rule="evenodd" clip-rule="evenodd" d="M265.6 586.257L270.318 581.163L265.6 576.079H269.252L272.139 579.302L275.036 576.079H278.527V576.16L273.909 581.163L278.527 586.104V586.257H274.996L272.058 582.993L269.151 586.257H265.6Z" fill="#016FCE"/>
<path fill-rule="evenodd" clip-rule="evenodd" d="M256.648 563.075H262.18L264.122 567.538V563.075H270.952L272.129 566.42L273.316 563.075H278.527V576.11H250.964L256.648 563.075Z" fill="white"/>
<path fill-rule="evenodd" clip-rule="evenodd" d="M257.694 564.498L253.228 574.666H256.246L257.091 572.632H261.658L262.503 574.666H265.681L261.235 564.498H257.694ZM258.077 570.344L259.414 567.111L260.752 570.375L258.077 570.344Z" fill="#016FCE"/>
<path fill-rule="evenodd" clip-rule="evenodd" d="M265.641 574.655V564.488L269.946 564.508L272.159 570.751L274.382 564.488H278.527V574.655L275.861 574.676V567.701L273.346 574.655H270.912L268.347 567.67V574.655H265.641Z" fill="#016FCE"/>
<mask id="mask0_35_4606" style="mask-type:luminance" maskUnits="userSpaceOnUse" x="303" y="555" width="42" height="41">
<path d="M344.263 555.009H303.776V595.491H344.263V555.009Z" fill="white"/>
</mask>
<g mask="url(#mask0_35_4606)">
<g filter="url(#filter1_d_35_4606)">
<path d="M344.252 575.928C344.35 572.982 343.803 570.049 342.649 567.335C341.496 564.622 339.764 562.193 337.575 560.219C335.386 558.244 332.792 556.772 329.975 555.905C327.158 555.037 324.185 554.796 321.265 555.197C318.345 555.599 315.547 556.633 313.068 558.228C310.589 559.823 308.488 561.941 306.913 564.432C305.337 566.924 304.324 569.73 303.945 572.654C303.565 575.578 303.829 578.55 304.718 581.361L304.755 581.48C305.571 584.089 305.536 586.89 304.655 589.478L304.624 589.569C304.472 590.023 304.403 590.501 304.42 590.98C304.455 591.998 304.875 592.965 305.595 593.685C306.315 594.405 307.282 594.824 308.3 594.858C308.778 594.873 309.256 594.804 309.71 594.654L309.799 594.621C312.385 593.737 315.186 593.701 317.794 594.518L317.915 594.556C320.894 595.494 324.048 595.731 327.133 595.248C330.218 594.765 333.15 593.576 335.699 591.772C338.249 589.969 340.347 587.601 341.831 584.853C343.315 582.104 344.143 579.05 344.252 575.928Z" fill="url(#paint1_radial_35_4606)"/>
<path d="M326.886 570.927H326.525C325.915 570.927 325.419 571.422 325.419 572.033V579.157C325.419 579.768 325.915 580.263 326.525 580.263H326.886C327.496 580.263 327.991 579.768 327.991 579.157V572.033C327.991 571.422 327.496 570.927 326.886 570.927Z" fill="white"/>
<path d="M322.499 567.399H322.154C321.543 567.399 321.048 567.894 321.048 568.505V579.157C321.048 579.768 321.543 580.263 322.154 580.263H322.499C323.11 580.263 323.605 579.768 323.605 579.157V568.505C323.605 567.894 323.11 567.399 322.499 567.399Z" fill="white"/>
<path d="M326.707 570.203C327.412 570.203 327.984 569.631 327.984 568.926C327.984 568.22 327.412 567.648 326.707 567.648C326.001 567.648 325.429 568.22 325.429 568.926C325.429 569.631 326.001 570.203 326.707 570.203Z" fill="#F277C6"/>
<path d="M337.929 575.1C337.929 574.429 337.929 573.759 337.917 573.084C337.866 571.932 337.239 570.675 335.146 570.675C334.138 570.675 333.765 571.103 332.682 571.103C332.133 571.103 331.969 570.922 331.103 570.922C330.425 570.922 329.803 571.34 329.803 572.076V579.185C329.803 579.469 329.916 579.741 330.116 579.942C330.317 580.143 330.589 580.256 330.873 580.256H331.307C331.448 580.256 331.587 580.228 331.717 580.174C331.847 580.12 331.965 580.041 332.065 579.941C332.164 579.841 332.243 579.723 332.297 579.593C332.35 579.462 332.378 579.323 332.377 579.182C332.377 577.738 332.377 575.468 332.377 573.913C332.377 572.847 333.012 572.212 333.889 572.212C334.74 572.212 335.4 572.781 335.4 573.918V579.185C335.4 579.469 335.513 579.741 335.714 579.942C335.915 580.143 336.187 580.256 336.471 580.256H336.861C337.146 580.256 337.419 580.143 337.621 579.942C337.823 579.742 337.937 579.469 337.939 579.185C337.929 577.683 337.932 575.44 337.929 575.1Z" fill="white"/>
<path d="M315.261 570.682C313.976 570.682 313.682 571.111 312.714 571.111C312.153 571.111 311.848 570.929 311.112 570.929C310.682 570.929 310.105 571.181 310.105 572.053V577.03V583.06C310.105 583.344 310.217 583.616 310.418 583.817C310.619 584.018 310.891 584.131 311.175 584.131H311.593C311.877 584.131 312.148 584.018 312.349 583.818C312.549 583.618 312.662 583.346 312.662 583.062C312.662 582.178 312.662 581.299 312.662 580.966C312.662 580.255 313.138 579.991 313.533 579.991C313.815 579.991 314.412 580.23 315.065 580.23C318.503 580.23 319.503 577.882 319.503 575.621C319.493 572.494 318.07 570.682 315.261 570.682ZM316.997 575.488C316.997 577.287 316.216 578.746 314.73 578.746C313.243 578.746 312.463 577.287 312.463 575.488C312.463 573.688 313.332 572.229 314.73 572.229C316.128 572.229 316.992 573.688 316.992 575.488H316.997Z" fill="white"/>
</g>
</g>
<mask id="mask1_35_4606" style="mask-type:luminance" maskUnits="userSpaceOnUse" x="369" y="555" width="41" height="41">
<path d="M410 555H369.513V595.5H410V555Z" fill="white"/>
</mask>
<g mask="url(#mask1_35_4606)">
<path fill-rule="evenodd" clip-rule="evenodd" d="M389.757 595.5C378.553 595.5 369.513 586.458 369.513 575.25C369.513 564.042 378.553 555 389.757 555C400.961 555 410 564.042 410 575.25C410 586.458 400.961 595.5 389.757 595.5Z" fill="url(#paint2_linear_35_4606)"/>
<path fill-rule="evenodd" clip-rule="evenodd" d="M395.295 566.271C394.786 563.979 392.494 562.578 390.202 563.087C387.911 563.597 386.447 565.889 386.956 568.118C387.147 568.882 387.465 569.519 387.974 570.028C388.229 570.283 387.656 571.811 387.974 572.002C388.229 572.193 389.375 571.047 389.629 571.111C390.393 571.366 391.221 571.429 392.048 571.238C394.34 570.792 395.804 568.564 395.295 566.271ZM390.202 569.264C389.247 569.264 388.929 568.627 388.866 568.309V568.054C388.866 567.927 388.993 567.8 389.12 567.8C389.247 567.8 389.375 567.927 389.375 568.054V568.309C389.375 568.373 389.375 568.436 389.438 568.5C389.502 568.691 389.693 568.818 390.075 568.882C390.648 568.882 390.775 568.691 390.775 568.5C390.775 568.245 390.712 568.054 390.075 567.8C389.311 567.481 388.866 567.29 388.866 566.653C388.866 566.017 389.438 565.762 390.011 565.762C390.139 565.762 390.266 565.762 390.393 565.825C390.584 565.889 390.839 565.953 391.03 566.144C391.094 566.208 391.094 566.271 391.157 566.335V566.399C391.221 566.526 391.221 566.653 391.221 566.781V566.908V566.972C391.157 567.035 391.094 567.099 390.966 567.099C390.903 567.099 390.775 567.035 390.712 566.972V566.908V566.781V566.717C390.712 566.653 390.712 566.59 390.648 566.526C390.521 566.335 390.202 566.208 390.011 566.208C389.693 566.208 389.438 566.335 389.438 566.653C389.438 566.972 389.693 567.099 390.202 567.29C391.094 567.609 391.285 567.927 391.412 568.245C391.476 568.436 391.348 569.264 390.202 569.264ZM393.831 566.017L392.112 569.137C392.049 569.264 391.858 569.328 391.73 569.264C391.667 569.137 391.603 569.009 391.667 568.882L393.385 565.762C393.449 565.634 393.64 565.571 393.767 565.634C393.831 565.698 393.895 565.889 393.831 566.017Z" fill="#54D1B3"/>
<path fill-rule="evenodd" clip-rule="evenodd" d="M397.905 579.771C397.777 579.58 397.65 579.453 396.95 579.516C396.25 579.516 393.703 579.898 393.003 579.962C392.303 580.026 388.038 580.663 387.338 580.79C387.019 580.854 386.446 580.981 385.81 581.108C385.81 581.108 387.529 574.932 387.592 574.804C387.656 574.613 387.783 574.104 387.592 574.04C387.401 573.976 387.083 573.976 386.828 574.167C386.574 574.358 386.383 574.549 386.255 574.804C386.192 575.059 385.937 575.823 385.81 576.205C385.682 576.523 385.3 577.606 385.046 578.052C384.728 578.498 384.346 578.816 384.091 578.625C383.836 578.498 383.964 577.988 384.027 577.67C384.091 577.351 384.282 576.778 384.409 576.46C384.473 576.141 384.664 575.759 384.664 575.505C384.664 575.186 384.473 574.932 384.218 574.868C384.027 574.804 383.773 574.804 383.645 574.932C383.582 575.123 383.645 575.377 383.582 575.632C383.582 575.887 383.454 576.078 383.391 576.269C383.327 576.523 383.2 576.715 383.136 576.969C383.009 577.351 382.945 577.67 382.818 578.052C382.754 578.434 382.69 578.752 382.69 579.134C382.69 579.389 382.818 579.707 383.072 579.898C383.263 580.026 383.518 580.09 383.709 580.09C384.091 580.09 384.473 579.771 384.728 579.516C384.855 579.389 385.046 579.198 385.11 579.007C384.855 579.771 384.6 580.535 384.346 581.299C384.346 581.342 384.324 581.363 384.282 581.363C384.282 581.363 384.218 581.427 384.155 581.427C384.155 581.427 384.091 581.427 384.091 581.49C383.9 581.554 383.709 581.618 383.518 581.682C383.072 581.873 382.754 582.127 382.436 582.318C382.054 582.573 381.672 582.891 381.354 583.21C380.908 583.656 380.59 584.165 380.335 584.738C380.144 585.248 379.953 585.884 380.08 586.457C380.208 587.031 380.653 587.413 381.226 587.476C381.608 587.54 382.054 587.413 382.372 587.222C382.69 587.031 383.009 586.712 383.263 586.457C384.027 585.566 384.537 584.547 384.918 583.401C385.046 583.146 385.11 582.828 385.237 582.509C386.383 582.191 389.184 581.682 389.884 581.554C390.584 581.427 394.085 580.981 394.977 580.854C395.804 580.726 397.587 580.599 397.777 580.408C398.096 580.217 398.032 579.962 397.905 579.771ZM383.773 583.21C383.709 583.337 383.709 583.465 383.645 583.592C383.518 583.847 383.391 584.101 383.327 584.356C383.072 584.865 382.754 585.375 382.436 585.757C382.245 585.948 381.672 586.521 381.417 586.203C381.163 585.948 381.481 585.12 382.118 584.292C382.881 583.273 383.964 582.891 383.964 582.891C383.836 582.955 383.773 583.21 383.773 583.21Z" fill="white"/>
<path fill-rule="evenodd" clip-rule="evenodd" d="M391.603 577.479C391.603 577.479 391.476 577.861 391.03 577.988C390.584 578.115 391.03 576.269 391.03 576.269C391.03 576.269 391.412 574.486 391.476 574.167C391.539 573.913 391.539 573.658 391.221 573.531C390.903 573.467 390.648 573.403 390.521 573.722L390.457 573.976C390.457 573.976 390.139 573.531 389.502 573.658C388.865 573.722 388.102 574.677 387.592 576.078C387.147 577.479 387.274 578.37 387.401 578.689C387.465 579.007 387.656 579.516 388.356 579.58C388.993 579.707 389.502 579.198 389.757 578.561C389.757 578.561 389.757 579.071 390.202 579.262C390.648 579.389 391.284 578.943 391.539 578.752C391.73 578.561 391.603 577.479 391.603 577.479ZM390.266 575.186C390.202 575.568 390.011 576.269 389.757 576.969C389.502 577.733 389.247 578.37 388.865 578.243C388.42 578.179 388.356 577.479 388.42 577.16C388.42 576.778 388.547 576.332 388.738 575.95C389.056 575.186 389.502 574.931 389.82 574.804C390.075 574.677 390.33 574.74 390.266 575.186Z" fill="white"/>
<path fill-rule="evenodd" clip-rule="evenodd" d="M395.168 573.403C394.849 573.021 394.276 573.021 393.958 573.212C393.64 573.403 393.258 573.913 393.194 574.04L393.258 573.594C393.258 573.594 393.321 573.467 393.003 573.34C392.621 573.276 392.43 573.212 392.367 573.531C392.303 573.849 390.902 581.3 390.902 581.3C390.902 581.3 390.775 581.745 390.902 582C391.03 582.255 391.348 582.382 391.666 582C391.985 581.618 392.112 580.09 392.239 579.389C392.367 578.625 392.367 578.498 392.367 578.498C392.367 578.498 392.621 578.88 393.258 579.007C393.958 579.135 394.531 578.561 394.913 577.797C395.295 577.033 395.55 575.887 395.613 575.25C395.55 574.613 395.422 573.785 395.168 573.403ZM394.404 575.25C394.34 575.696 394.276 576.205 394.085 576.587C393.958 576.969 393.831 577.352 393.513 577.67C393.258 577.925 392.749 578.116 392.494 577.797C392.494 577.797 392.621 577.033 392.812 576.333C393.003 575.632 393.194 574.804 393.703 574.422C394.34 573.977 394.467 574.804 394.404 575.25Z" fill="white"/>
<path fill-rule="evenodd" clip-rule="evenodd" d="M398.86 576.396C398.669 576.332 398.542 576.587 398.414 576.715C398.287 576.842 398.16 576.969 398.032 577.033C397.777 577.288 397.141 577.67 396.759 577.351C396.632 577.224 396.568 576.906 396.632 576.651C396.632 576.46 396.759 576.141 396.759 576.141C397.077 576.141 397.395 576.014 397.523 575.95C398.032 575.759 398.414 575.441 398.732 574.995C399.114 574.358 399.624 573.276 398.86 572.703C398.732 572.639 398.605 572.575 398.477 572.575C398.032 572.512 397.587 572.575 397.205 572.894C396.695 573.34 396.568 573.531 396.123 574.295C395.677 575.186 395.359 576.269 395.422 577.224C395.422 577.479 395.486 577.733 395.55 577.924C395.613 578.179 395.741 578.37 395.995 578.498C396.314 578.752 396.695 578.752 397.077 578.689C397.523 578.561 398.032 578.243 398.16 578.115C398.287 577.988 398.924 577.415 398.987 577.288C399.051 577.097 398.924 576.842 398.924 576.842C399.114 576.715 398.987 576.46 398.86 576.396ZM397.777 573.785C397.842 573.722 397.969 573.658 398.032 573.594C398.16 573.531 398.351 573.658 398.351 573.785C398.414 574.04 398.287 574.295 398.096 574.486C397.969 574.677 397.777 574.804 397.587 574.932C397.523 574.995 397.395 575.059 397.332 575.059C397.077 575.186 397.014 575.123 397.014 575.186C397.077 574.932 397.395 574.167 397.777 573.785Z" fill="white"/>
</g>
<g clip-path="url(#clip1_35_4606)">
<rect x="10" y="606" width="450" height="114" rx="24" fill="#21222B"/>
<g opacity="0.4" clip-path="url(#clip2_35_4606)">
<g filter="url(#filter2_f_35_4606)">
<rect x="-58" y="656" width="217" height="217" rx="108.5" fill="#FF4240"/>
</g>
<g filter="url(#filter3_f_35_4606)">
<rect x="303" y="675" width="198" height="198" rx="99" fill="#3DD2CE"/>
</g>
</g>
<path d="M129.049 642L133.883 628.855H136.246L141.041 642H138.707L137.613 638.719H132.516L131.373 642H129.049ZM133.082 636.834H137.027L135.055 631.082L133.082 636.834ZM146.666 642.146C145.787 642.146 145.003 641.974 144.312 641.629C143.622 641.277 143.076 640.74 142.672 640.018C142.275 639.295 142.076 638.38 142.076 637.273C142.076 636.16 142.268 635.239 142.652 634.51C143.043 633.774 143.58 633.227 144.264 632.869C144.954 632.505 145.755 632.322 146.666 632.322C147.434 632.322 148.128 632.449 148.746 632.703C149.365 632.957 149.856 633.338 150.221 633.846C150.592 634.354 150.787 634.995 150.807 635.77H148.746C148.714 635.216 148.518 634.78 148.16 634.461C147.802 634.142 147.311 633.982 146.686 633.982C145.846 633.982 145.227 634.272 144.83 634.852C144.433 635.424 144.234 636.232 144.234 637.273C144.234 637.951 144.322 638.53 144.498 639.012C144.674 639.493 144.941 639.861 145.299 640.115C145.663 640.369 146.126 640.496 146.686 640.496C147.324 640.496 147.835 640.327 148.219 639.988C148.603 639.65 148.805 639.161 148.824 638.523H150.885C150.865 639.318 150.67 639.985 150.299 640.525C149.928 641.066 149.426 641.473 148.795 641.746C148.17 642.013 147.46 642.146 146.666 642.146ZM157.496 642.176C156.454 642.176 155.585 641.971 154.889 641.561C154.199 641.144 153.681 640.564 153.336 639.822C152.991 639.074 152.818 638.208 152.818 637.225C152.818 636.235 152.984 635.376 153.316 634.646C153.655 633.911 154.156 633.341 154.82 632.938C155.491 632.527 156.327 632.322 157.33 632.322C158.684 632.322 159.752 632.726 160.533 633.533C161.314 634.34 161.705 635.493 161.705 636.99C161.705 637.081 161.699 637.195 161.686 637.332C161.679 637.462 161.669 637.557 161.656 637.615H154.928C154.934 638.156 155.022 638.654 155.191 639.109C155.367 639.559 155.644 639.92 156.021 640.193C156.399 640.467 156.891 640.604 157.496 640.604C158.147 640.604 158.658 640.46 159.029 640.174C159.4 639.881 159.596 639.451 159.615 638.885H161.695C161.663 639.588 161.471 640.187 161.119 640.682C160.774 641.17 160.292 641.541 159.674 641.795C159.062 642.049 158.336 642.176 157.496 642.176ZM154.947 636.199H159.605C159.586 635.431 159.371 634.848 158.961 634.451C158.557 634.048 158.014 633.846 157.33 633.846C156.627 633.846 156.067 634.048 155.65 634.451C155.24 634.855 155.006 635.438 154.947 636.199ZM164.166 642V632.479H166.178L166.227 634.109C166.487 633.582 166.858 633.159 167.34 632.84C167.828 632.514 168.44 632.352 169.176 632.352H169.361V634.197H169.137C168.701 634.197 168.303 634.246 167.945 634.344C167.594 634.435 167.281 634.578 167.008 634.773C166.734 634.962 166.493 635.2 166.285 635.486V642H164.166ZM175.025 642.146C174.146 642.146 173.362 641.974 172.672 641.629C171.982 641.277 171.435 640.74 171.031 640.018C170.634 639.295 170.436 638.38 170.436 637.273C170.436 636.16 170.628 635.239 171.012 634.51C171.402 633.774 171.939 633.227 172.623 632.869C173.313 632.505 174.114 632.322 175.025 632.322C175.794 632.322 176.487 632.449 177.105 632.703C177.724 632.957 178.215 633.338 178.58 633.846C178.951 634.354 179.146 634.995 179.166 635.77H177.105C177.073 635.216 176.878 634.78 176.52 634.461C176.161 634.142 175.67 633.982 175.045 633.982C174.205 633.982 173.587 634.272 173.189 634.852C172.792 635.424 172.594 636.232 172.594 637.273C172.594 637.951 172.682 638.53 172.857 639.012C173.033 639.493 173.3 639.861 173.658 640.115C174.023 640.369 174.485 640.496 175.045 640.496C175.683 640.496 176.194 640.327 176.578 639.988C176.962 639.65 177.164 639.161 177.184 638.523H179.244C179.225 639.318 179.029 639.985 178.658 640.525C178.287 641.066 177.786 641.473 177.154 641.746C176.529 642.013 175.82 642.146 175.025 642.146ZM184.059 642.166C183.512 642.166 183.007 642.065 182.545 641.863C182.089 641.655 181.721 641.346 181.441 640.936C181.161 640.519 181.021 640.001 181.021 639.383C181.021 638.517 181.285 637.863 181.812 637.42C182.346 636.977 183.092 636.674 184.049 636.512C185.012 636.349 186.139 636.258 187.428 636.238V635.652C187.428 634.943 187.252 634.454 186.9 634.188C186.549 633.921 186.103 633.787 185.562 633.787C184.977 633.787 184.488 633.93 184.098 634.217C183.707 634.503 183.512 634.962 183.512 635.594H181.51C181.51 634.799 181.679 634.165 182.018 633.689C182.363 633.208 182.838 632.859 183.443 632.645C184.055 632.43 184.762 632.322 185.562 632.322C186.103 632.322 186.611 632.371 187.086 632.469C187.561 632.566 187.978 632.739 188.336 632.986C188.701 633.227 188.984 633.562 189.186 633.992C189.394 634.415 189.498 634.959 189.498 635.623V642H187.525L187.447 640.662C187.031 641.131 186.542 641.499 185.982 641.766C185.429 642.033 184.788 642.166 184.059 642.166ZM184.693 640.662C185.266 640.662 185.787 640.522 186.256 640.242C186.725 639.962 187.109 639.62 187.408 639.217V637.488C185.859 637.495 184.758 637.638 184.107 637.918C183.456 638.198 183.131 638.65 183.131 639.275C183.131 639.718 183.268 640.06 183.541 640.301C183.821 640.542 184.205 640.662 184.693 640.662ZM204.117 642C203.251 642 202.584 641.883 202.115 641.648C201.646 641.408 201.321 641.053 201.139 640.584C200.963 640.109 200.875 639.516 200.875 638.807V634.139H199.283V632.479H200.875V630.262H202.975V632.479H205.191V634.139H202.975V638.68C202.975 639.227 203.046 639.64 203.189 639.92C203.339 640.2 203.684 640.34 204.225 640.34H205.191V642H204.117ZM210.279 642.137C209.244 642.137 208.473 641.834 207.965 641.229C207.457 640.623 207.203 639.777 207.203 638.689V632.479H209.312V638.426C209.312 638.803 209.361 639.139 209.459 639.432C209.557 639.725 209.729 639.956 209.977 640.125C210.224 640.288 210.566 640.369 211.002 640.369C211.614 640.369 212.132 640.239 212.555 639.979C212.984 639.712 213.342 639.396 213.629 639.031V632.479H215.738V642H213.697L213.658 640.545C213.346 640.942 212.913 641.307 212.359 641.639C211.806 641.971 211.113 642.137 210.279 642.137ZM226.383 642C225.517 642 224.85 641.883 224.381 641.648C223.912 641.408 223.587 641.053 223.404 640.584C223.229 640.109 223.141 639.516 223.141 638.807V634.139H221.549V632.479H223.141V630.262H225.24V632.479H227.457V634.139H225.24V638.68C225.24 639.227 225.312 639.64 225.455 639.92C225.605 640.2 225.95 640.34 226.49 640.34H227.457V642H226.383ZM232.027 642.166C231.48 642.166 230.976 642.065 230.514 641.863C230.058 641.655 229.69 641.346 229.41 640.936C229.13 640.519 228.99 640.001 228.99 639.383C228.99 638.517 229.254 637.863 229.781 637.42C230.315 636.977 231.061 636.674 232.018 636.512C232.981 636.349 234.107 636.258 235.396 636.238V635.652C235.396 634.943 235.221 634.454 234.869 634.188C234.518 633.921 234.072 633.787 233.531 633.787C232.945 633.787 232.457 633.93 232.066 634.217C231.676 634.503 231.48 634.962 231.48 635.594H229.479C229.479 634.799 229.648 634.165 229.986 633.689C230.331 633.208 230.807 632.859 231.412 632.645C232.024 632.43 232.73 632.322 233.531 632.322C234.072 632.322 234.579 632.371 235.055 632.469C235.53 632.566 235.947 632.739 236.305 632.986C236.669 633.227 236.952 633.562 237.154 633.992C237.363 634.415 237.467 634.959 237.467 635.623V642H235.494L235.416 640.662C234.999 641.131 234.511 641.499 233.951 641.766C233.398 642.033 232.757 642.166 232.027 642.166ZM232.662 640.662C233.235 640.662 233.756 640.522 234.225 640.242C234.693 639.962 235.077 639.62 235.377 639.217V637.488C233.827 637.495 232.727 637.638 232.076 637.918C231.425 638.198 231.1 638.65 231.1 639.275C231.1 639.718 231.236 640.06 231.51 640.301C231.79 640.542 232.174 640.662 232.662 640.662ZM240.338 642V632.479H242.35L242.398 634.109C242.659 633.582 243.03 633.159 243.512 632.84C244 632.514 244.612 632.352 245.348 632.352H245.533V634.197H245.309C244.872 634.197 244.475 634.246 244.117 634.344C243.766 634.435 243.453 634.578 243.18 634.773C242.906 634.962 242.665 635.2 242.457 635.486V642H240.338ZM245.543 645.496V643.807H246.031C246.48 643.807 246.816 643.699 247.037 643.484C247.258 643.276 247.369 642.928 247.369 642.439V632.479H249.488V642.273C249.488 643.315 249.234 644.113 248.727 644.666C248.225 645.219 247.424 645.496 246.324 645.496H245.543ZM248.434 630.955C248.036 630.955 247.73 630.851 247.516 630.643C247.301 630.434 247.193 630.174 247.193 629.861C247.193 629.536 247.301 629.269 247.516 629.061C247.73 628.852 248.036 628.748 248.434 628.748C248.824 628.748 249.127 628.852 249.342 629.061C249.563 629.269 249.674 629.536 249.674 629.861C249.674 630.174 249.563 630.434 249.342 630.643C249.127 630.851 248.824 630.955 248.434 630.955ZM256.617 642.176C255.576 642.176 254.706 641.971 254.01 641.561C253.32 641.144 252.802 640.564 252.457 639.822C252.112 639.074 251.939 638.208 251.939 637.225C251.939 636.235 252.105 635.376 252.438 634.646C252.776 633.911 253.277 633.341 253.941 632.938C254.612 632.527 255.449 632.322 256.451 632.322C257.805 632.322 258.873 632.726 259.654 633.533C260.436 634.34 260.826 635.493 260.826 636.99C260.826 637.081 260.82 637.195 260.807 637.332C260.8 637.462 260.79 637.557 260.777 637.615H254.049C254.055 638.156 254.143 638.654 254.312 639.109C254.488 639.559 254.765 639.92 255.143 640.193C255.52 640.467 256.012 640.604 256.617 640.604C257.268 640.604 257.779 640.46 258.15 640.174C258.521 639.881 258.717 639.451 258.736 638.885H260.816C260.784 639.588 260.592 640.187 260.24 640.682C259.895 641.17 259.413 641.541 258.795 641.795C258.183 642.049 257.457 642.176 256.617 642.176ZM254.068 636.199H258.727C258.707 635.431 258.492 634.848 258.082 634.451C257.678 634.048 257.135 633.846 256.451 633.846C255.748 633.846 255.188 634.048 254.771 634.451C254.361 634.855 254.127 635.438 254.068 636.199ZM266.91 642C266.044 642 265.377 641.883 264.908 641.648C264.439 641.408 264.114 641.053 263.932 640.584C263.756 640.109 263.668 639.516 263.668 638.807V634.139H262.076V632.479H263.668V630.262H265.768V632.479H267.984V634.139H265.768V638.68C265.768 639.227 265.839 639.64 265.982 639.92C266.132 640.2 266.477 640.34 267.018 640.34H267.984V642H266.91ZM272.555 642.166C272.008 642.166 271.503 642.065 271.041 641.863C270.585 641.655 270.217 641.346 269.938 640.936C269.658 640.519 269.518 640.001 269.518 639.383C269.518 638.517 269.781 637.863 270.309 637.42C270.842 636.977 271.588 636.674 272.545 636.512C273.508 636.349 274.635 636.258 275.924 636.238V635.652C275.924 634.943 275.748 634.454 275.396 634.188C275.045 633.921 274.599 633.787 274.059 633.787C273.473 633.787 272.984 633.93 272.594 634.217C272.203 634.503 272.008 634.962 272.008 635.594H270.006C270.006 634.799 270.175 634.165 270.514 633.689C270.859 633.208 271.334 632.859 271.939 632.645C272.551 632.43 273.258 632.322 274.059 632.322C274.599 632.322 275.107 632.371 275.582 632.469C276.057 632.566 276.474 632.739 276.832 632.986C277.197 633.227 277.48 633.562 277.682 633.992C277.89 634.415 277.994 634.959 277.994 635.623V642H276.021L275.943 640.662C275.527 641.131 275.038 641.499 274.479 641.766C273.925 642.033 273.284 642.166 272.555 642.166ZM273.189 640.662C273.762 640.662 274.283 640.522 274.752 640.242C275.221 639.962 275.605 639.62 275.904 639.217V637.488C274.355 637.495 273.255 637.638 272.604 637.918C271.952 638.198 271.627 638.65 271.627 639.275C271.627 639.718 271.764 640.06 272.037 640.301C272.317 640.542 272.701 640.662 273.189 640.662ZM285.104 642V628.855H287.34L293.971 638.514V628.855H296.09V642H293.854L287.213 632.303V642H285.104ZM299.4 642V628.855H307.789V630.73H301.646V634.363H307.174V636.17H301.646V642H299.4ZM315.611 642.176C314.264 642.176 313.118 641.896 312.174 641.336C311.23 640.77 310.51 639.982 310.016 638.973C309.521 637.964 309.273 636.785 309.273 635.438C309.273 634.09 309.521 632.911 310.016 631.902C310.51 630.887 311.23 630.096 312.174 629.529C313.118 628.963 314.264 628.68 315.611 628.68C316.568 628.68 317.464 628.846 318.297 629.178C319.13 629.51 319.814 630.011 320.348 630.682C320.882 631.346 321.184 632.179 321.256 633.182H318.971C318.899 632.583 318.704 632.091 318.385 631.707C318.066 631.316 317.665 631.027 317.184 630.838C316.702 630.643 316.178 630.545 315.611 630.545C314.654 630.545 313.88 630.77 313.287 631.219C312.695 631.661 312.265 632.254 311.998 632.996C311.731 633.732 311.598 634.546 311.598 635.438C311.598 636.323 311.731 637.137 311.998 637.879C312.265 638.615 312.695 639.204 313.287 639.646C313.88 640.089 314.654 640.311 315.611 640.311C316.594 640.311 317.382 640.063 317.975 639.568C318.574 639.067 318.915 638.341 319 637.391H321.295C321.204 638.439 320.911 639.321 320.416 640.037C319.921 640.747 319.264 641.281 318.443 641.639C317.623 641.997 316.679 642.176 315.611 642.176Z" fill="white"/>
<path d="M227.854 674.604C227.329 675.129 227.329 675.942 227.854 676.467C228.379 676.992 229.193 676.992 229.718 676.467C231.214 674.971 233.786 674.971 235.283 676.467C235.401 676.591 235.544 676.69 235.702 676.757C235.86 676.825 236.03 676.859 236.201 676.859C236.373 676.859 236.543 676.825 236.701 676.757C236.859 676.69 237.001 676.591 237.12 676.467C237.645 675.942 237.645 675.129 237.12 674.604C234.653 672.11 230.321 672.11 227.828 674.604H227.854Z" fill="white"/>
<path d="M225.99 672.766C226.842 671.911 227.855 671.233 228.97 670.77C230.085 670.308 231.28 670.069 232.487 670.069C233.694 670.069 234.889 670.308 236.004 670.77C237.119 671.233 238.131 671.911 238.984 672.766C239.103 672.89 239.245 672.988 239.403 673.056C239.561 673.123 239.731 673.158 239.903 673.158C240.074 673.158 240.244 673.123 240.402 673.056C240.56 672.988 240.702 672.89 240.821 672.766C241.346 672.241 241.346 671.427 240.821 670.902C238.603 668.697 235.602 667.458 232.474 667.458C229.346 667.458 226.344 668.697 224.126 670.902C223.601 671.427 223.601 672.241 224.126 672.766C224.651 673.291 225.465 673.291 225.99 672.766ZM232.001 680.457C232.159 680.536 232.316 680.562 232.5 680.562C232.684 680.562 232.841 680.562 232.999 680.457C233.156 680.405 233.314 680.3 233.419 680.169C233.55 680.064 233.655 679.906 233.708 679.749C233.786 679.591 233.812 679.434 233.812 679.25C233.812 679.092 233.786 678.909 233.708 678.751C233.652 678.587 233.552 678.442 233.419 678.331C233.173 678.091 232.844 677.956 232.5 677.956C232.156 677.956 231.827 678.091 231.581 678.331C231.45 678.436 231.345 678.594 231.292 678.751C231.214 678.909 231.188 679.066 231.188 679.25C231.188 679.434 231.188 679.591 231.292 679.749C231.345 679.906 231.45 680.064 231.581 680.169C231.686 680.3 231.844 680.405 232.001 680.457ZM235.125 688.437C235.86 688.437 236.438 687.86 236.438 687.125C236.438 686.39 235.86 685.812 235.125 685.812H229.875C229.14 685.812 228.562 686.39 228.562 687.125V697.625C228.562 698.36 229.14 698.937 229.875 698.937C230.61 698.937 231.188 698.36 231.188 697.625V693.687H235.125C235.86 693.687 236.438 693.11 236.438 692.375C236.438 691.64 235.86 691.062 235.125 691.062H231.188V688.437H235.125ZM216.75 698.937C217.485 698.937 218.062 698.36 218.062 697.625V691.062L223.575 698.412C223.838 698.754 224.231 698.937 224.625 698.937C224.756 698.937 224.914 698.937 225.045 698.859C225.57 698.675 225.938 698.176 225.938 697.625V687.125C225.938 686.39 225.36 685.812 224.625 685.812C223.89 685.812 223.312 686.39 223.312 687.125V693.687L217.8 686.337C217.633 686.118 217.401 685.957 217.137 685.877C216.873 685.797 216.591 685.802 216.33 685.891C215.805 686.075 215.438 686.574 215.438 687.125V697.625C215.438 698.36 216.015 698.937 216.75 698.937ZM239.062 692.375C239.062 694.115 239.754 695.784 240.985 697.015C242.215 698.246 243.885 698.937 245.625 698.937C246.78 698.937 247.909 698.622 248.906 698.045C249.536 697.677 249.746 696.864 249.379 696.26C249.293 696.111 249.179 695.981 249.042 695.877C248.906 695.773 248.75 695.696 248.584 695.652C248.419 695.608 248.246 695.598 248.076 695.621C247.906 695.644 247.742 695.701 247.594 695.787C246.995 696.13 246.316 696.31 245.625 696.309C244.935 696.308 244.257 696.125 243.659 695.78C243.061 695.434 242.564 694.938 242.219 694.341C241.873 693.743 241.689 693.065 241.688 692.375C241.688 690.196 243.446 688.437 245.625 688.437C246.308 688.437 246.99 688.621 247.594 688.989C248.224 689.356 249.011 689.146 249.405 688.542C249.773 687.912 249.562 687.125 248.932 686.757C247.935 686.154 246.78 685.839 245.625 685.839C243.885 685.839 242.215 686.53 240.985 687.761C239.754 688.991 239.062 690.661 239.062 692.401V692.375Z" fill="white"/>
<path d="M232.5 712.062C247.699 712.062 260.062 699.699 260.062 684.5C260.062 669.301 247.699 656.938 232.5 656.938C217.301 656.938 204.938 669.301 204.938 684.5C204.938 699.699 217.301 712.062 232.5 712.062ZM232.5 659.562C246.255 659.562 257.438 670.745 257.438 684.5C257.438 698.255 246.255 709.438 232.5 709.438C218.745 709.438 207.562 698.255 207.562 684.5C207.562 670.745 218.745 659.562 232.5 659.562Z" fill="white"/>
</g>
</g>
<rect width="19" height="19" transform="translate(461 70)" fill="white"/>
<defs>
<filter id="filter0_d_35_4606" x="176" y="31" width="127.881" height="50.0005" filterUnits="userSpaceOnUse" color-interpolation-filters="sRGB">
<feFlood flood-opacity="0" result="BackgroundImageFix"/>
<feColorMatrix in="SourceAlpha" type="matrix" values="0 0 0 0 0 0 0 0 0 0 0 0 0 0 0 0 0 0 127 0" result="hardAlpha"/>
<feOffset dy="4"/>
<feGaussianBlur stdDeviation="2"/>
<feColorMatrix type="matrix" values="0 0 0 0 0 0 0 0 0 0 0 0 0 0 0 0 0 0 0.08 0"/>
<feBlend mode="normal" in2="BackgroundImageFix" result="effect1_dropShadow_35_4606"/>
<feBlend mode="normal" in="SourceGraphic" in2="effect1_dropShadow_35_4606" result="shape"/>
</filter>
<filter id="filter1_d_35_4606" x="295.776" y="547.009" width="56.487" height="56.4824" filterUnits="userSpaceOnUse" color-interpolation-filters="sRGB">
<feFlood flood-opacity="0" result="BackgroundImageFix"/>
<feColorMatrix in="SourceAlpha" type="matrix" values="0 0 0 0 0 0 0 0 0 0 0 0 0 0 0 0 0 0 127 0" result="hardAlpha"/>
<feOffset/>
<feGaussianBlur stdDeviation="4"/>
<feComposite in2="hardAlpha" operator="out"/>
<feColorMatrix type="matrix" values="0 0 0 0 0 0 0 0 0 0 0 0 0 0 0 0 0 0 0.16 0"/>
<feBlend mode="normal" in2="BackgroundImageFix" result="effect1_dropShadow_35_4606"/>
<feBlend mode="normal" in="SourceGraphic" in2="effect1_dropShadow_35_4606" result="shape"/>
</filter>
<filter id="filter2_f_35_4606" x="-118" y="596" width="337" height="337" filterUnits="userSpaceOnUse" color-interpolation-filters="sRGB">
<feFlood flood-opacity="0" result="BackgroundImageFix"/>
<feBlend mode="normal" in="SourceGraphic" in2="BackgroundImageFix" result="shape"/>
<feGaussianBlur stdDeviation="30" result="effect1_foregroundBlur_35_4606"/>
</filter>
<filter id="filter3_f_35_4606" x="243" y="615" width="318" height="318" filterUnits="userSpaceOnUse" color-interpolation-filters="sRGB">
<feFlood flood-opacity="0" result="BackgroundImageFix"/>
<feBlend mode="normal" in="SourceGraphic" in2="BackgroundImageFix" result="shape"/>
<feGaussianBlur stdDeviation="30" result="effect1_foregroundBlur_35_4606"/>
</filter>
<linearGradient id="paint0_linear_35_4606" x1="20" y1="54.0278" x2="459.5" y2="557.858" gradientUnits="userSpaceOnUse">
<stop stop-color="#111018"/>
<stop offset="0.534137" stop-color="#343442"/>
<stop offset="1" stop-color="#21222B"/>
</linearGradient>
<radialGradient id="paint1_radial_35_4606" cx="0" cy="0" r="1" gradientUnits="userSpaceOnUse" gradientTransform="translate(303.778 595.513) scale(35.4059 35.4173)">
<stop stop-color="#2D76FF"/>
<stop offset="1" stop-color="#00E2CD"/>
</radialGradient>
<linearGradient id="paint2_linear_35_4606" x1="378.088" y1="587.655" x2="399.446" y2="564.96" gradientUnits="userSpaceOnUse">
<stop stop-color="#61167B"/>
<stop offset="1" stop-color="#9934AC"/>
</linearGradient>
<clipPath id="clip0_35_4606">
<rect x="20" y="20" width="440" height="700" rx="52" fill="white"/>
</clipPath>
<clipPath id="clip1_35_4606">
<rect x="10" y="606" width="450" height="114" rx="24" fill="white"/>
</clipPath>
<clipPath id="clip2_35_4606">
<rect width="445" height="220" fill="white" transform="translate(10 606)"/>
</clipPath>
</defs>
</svg>
