<svg width="20" height="25" viewBox="0 0 20 25" fill="none" xmlns="http://www.w3.org/2000/svg">
<path d="M12.0742 2.11695C14.6602 4.81226 16.25 8.46851 16.25 12.4998C16.25 16.531 14.6602 20.1873 12.0742 22.8826C11.5977 23.3826 11.6133 24.1716 12.1094 24.6482C12.6055 25.1248 13.3984 25.1091 13.875 24.613C16.8945 21.4724 18.75 17.2029 18.75 12.4998C18.75 7.79664 16.8945 3.5271 13.8789 0.382573C13.3984 -0.113521 12.6094 -0.129146 12.1094 0.347416C11.6094 0.823979 11.5938 1.61695 12.0742 2.11304V2.11695M10 12.4998C10 14.7185 9.17578 16.7419 7.8125 18.2888C7.35547 18.8084 7.40625 19.5974 7.92188 20.0544Cnan nan 9.23047 20.4607 9.6875 19.9451C11.4375 17.9607 12.5 15.3513 12.5 12.4998C12.5 9.6482 11.4375 7.03882 9.6875 5.05835C9.23047 4.53882 8.44141 4.49195 7.92188 4.94898Cnan nan 7.35547 6.19507 7.8125 6.7146C9.17578 8.25757 10 10.281 10 12.5037V12.4998M3.75 14.9998C5.12979 14.9998 6.25 13.8795 6.25 12.4998C6.25 11.12 5.12979 9.99976 3.75 9.99976C2.37021 9.99976 1.25 11.12 1.25 12.4998C1.25 13.8795 2.37021 14.9998 3.75 14.9998V14.9998" fill="white"/>
</svg>
