<svg width="96" height="96" viewBox="0 0 96 96" fill="none" xmlns="http://www.w3.org/2000/svg">
<path fill-rule="evenodd" clip-rule="evenodd" d="M23.801 63.0323H15.562L9.38382 38.7688C9.09058 37.6527 8.46793 36.666 7.55205 36.2009C5.26635 35.0322 2.74766 34.1021 0 33.633V32.6989H13.2723C15.1041 32.6989 16.4779 34.1021 16.7069 35.7318L19.9125 53.2339L28.1474 32.6989H36.1574L23.801 63.0323ZM40.7344 63.0323H32.9534L39.3606 32.6989H47.1416L40.7344 63.0323ZM57.2134 41.1026C57.4423 39.4689 58.8162 38.5347 60.419 38.5347C62.9377 38.3002 65.6813 38.7693 67.971 39.9339L69.3448 33.403C67.0551 32.4688 64.5364 31.9998 62.2507 31.9998C54.6987 31.9998 49.2034 36.2014 49.2034 42.0327C49.2034 46.4689 53.0959 48.7982 55.8435 50.2014C58.8162 51.6006 59.961 52.5348 59.732 53.934C59.732 56.0327 57.4423 56.9669 55.1566 56.9669C52.409 56.9669 49.6613 56.2673 47.1466 55.0986L45.7728 61.6336C48.5205 62.7982 51.4931 63.2673 54.2407 63.2673C62.7087 63.4978 67.971 59.3002 67.971 52.9998C67.971 45.0656 57.2134 44.6006 57.2134 41.1026V41.1026ZM95.202 63.0323L89.0237 32.6989H82.3876C81.0137 32.6989 79.6399 33.633 79.182 35.0322L67.7414 63.0323H75.7514L77.3502 58.6002H87.192L88.1078 63.0323H95.202ZM83.5284 40.8672L85.8141 52.2993H79.4069L83.5284 40.8672Z" fill="#15185B"/>
</svg>
