<svg width="720" height="673" viewBox="0 0 720 673" fill="none" xmlns="http://www.w3.org/2000/svg">
<rect width="720" height="228" transform="translate(-0.5 24)" fill="white"/>
<path d="M236.461 48.1914H223.151V96.5722H236.461V48.1914Z" fill="#FF4240"/>
<path d="M235.64 26.419C234.825 25.6127 234.01 25.0751 232.923 24.5376C231.837 24 230.75 24 229.664 24C228.577 24 227.491 24.2688 226.404 24.5376C225.318 25.0751 224.503 25.6127 223.688 26.419C222.873 27.2254 222.33 28.0317 221.787 29.1069C221.244 30.182 221.244 31.2571 221.244 32.3322C221.244 33.4074 221.515 34.4825 221.787 35.5576C222.33 36.6328 222.873 37.4391 223.688 38.2455C224.503 39.0518 225.318 39.5894 226.404 40.1269C227.491 40.6645 228.577 40.6645 229.664 40.6645C230.75 40.6645 231.837 40.3957 232.923 40.1269C234.01 39.5894 234.825 39.0518 235.64 38.2455C236.455 37.4391 236.998 36.6328 237.541 35.5576C238.084 34.4825 238.084 33.4074 238.084 32.3322C238.084 31.2571 237.813 30.182 237.541 29.1069C236.998 28.0317 236.183 27.2254 235.64 26.419Z" fill="#FF4240"/>
<path d="M314.139 26.419C313.324 25.6127 312.509 25.0751 311.423 24.5376C310.336 24 309.25 24 308.163 24C307.077 24 305.99 24.2688 304.904 24.5376C303.818 25.0751 303.003 25.6127 302.188 26.419C301.373 27.2254 300.83 28.0317 300.286 29.1069C299.743 30.182 299.743 31.2571 299.743 32.3322C299.743 33.4074 300.015 34.4825 300.286 35.5576C300.83 36.6328 301.373 37.4391 302.188 38.2455C303.003 39.0518 303.818 39.5894 304.904 40.1269C305.99 40.6645 307.077 40.6645 308.163 40.6645C309.25 40.6645 310.336 40.3957 311.423 40.1269C312.509 39.5894 313.324 39.0518 314.139 38.2455C314.954 37.4391 315.497 36.6328 316.04 35.5576C316.584 34.4825 316.584 33.4074 316.584 32.3322C316.584 31.2571 316.312 30.182 316.04 29.1069C315.497 28.0317 314.954 27.2254 314.139 26.419Z" fill="#FF4240"/>
<path d="M314.955 48.1914H301.646V96.5722H314.955V48.1914Z" fill="#FF4240"/>
<path d="M370.637 54.3724C368.464 52.2221 366.02 50.3406 363.032 48.9967C360.044 47.6528 357.056 47.1152 353.525 47.1152C350.266 47.1152 347.278 47.6528 344.833 48.9967C342.389 50.3406 340.487 51.9533 338.858 53.8348V48.4591H326.091V116.999H339.129V92.0019C340.759 93.8833 342.66 95.496 345.105 96.5712C347.549 97.6463 350.266 98.1839 353.525 98.1839C356.785 98.1839 360.044 97.6463 363.032 96.3024C366.02 94.9585 368.464 93.3458 370.637 90.9267C372.81 88.7765 374.44 86.0887 375.527 82.8633C376.613 79.6379 377.428 76.4125 377.428 72.6495C377.428 68.8866 376.885 65.6612 375.527 62.4358C374.44 59.2104 372.81 56.5226 370.637 54.3724ZM363.032 77.7564C362.489 79.3691 361.674 80.713 360.587 82.0569C359.501 83.1321 358.143 84.2072 356.513 85.0135C354.883 85.8199 353.254 86.0887 351.352 86.0887C349.451 86.0887 347.821 85.8199 346.191 85.0135C344.562 84.476 343.204 83.4008 342.117 82.3257C341.031 81.2506 340.216 79.6379 339.672 78.0252C339.129 76.4125 338.858 74.531 338.858 72.6495C338.858 70.7681 339.129 68.8866 339.672 67.2739C340.216 65.6612 341.031 64.3173 342.117 62.9734C343.204 61.8983 344.562 60.8231 346.191 60.2856C347.821 59.748 349.451 59.2104 351.352 59.2104C353.254 59.2104 355.155 59.4792 356.513 60.2856C358.143 61.0919 359.501 61.8983 360.587 63.2422C361.674 64.3173 362.489 65.93 363.032 67.5427C363.575 69.1554 363.847 71.0368 363.847 72.6495C363.847 74.2622 363.575 76.1437 363.032 77.7564Z" fill="#3DD2CE"/>
<path d="M423.058 53.5672C421.428 51.6857 419.527 50.073 417.082 48.7291C414.637 47.3852 411.921 46.8477 408.39 46.8477C405.131 46.8477 401.871 47.3852 398.883 48.7291C395.895 50.073 393.451 51.6857 391.278 54.1048C389.105 56.255 387.475 58.9429 386.389 62.1682C385.302 65.3936 384.487 68.619 384.487 72.382C384.487 76.1449 385.031 79.3703 386.389 82.5957C387.475 85.8211 389.377 88.5089 391.278 90.6592C393.451 92.8094 395.895 94.6909 398.883 96.0348C401.871 97.3787 404.859 97.9163 408.39 97.9163C411.649 97.9163 414.637 97.3787 417.082 96.0348C419.527 94.6909 421.428 93.347 423.058 91.1967V96.5724H435.824V48.1916H423.058V53.5672ZM422.514 77.7576C421.971 79.3703 421.156 80.7142 420.07 82.0581C418.983 83.1333 417.625 84.2084 415.995 84.7459C414.366 85.2835 412.736 85.8211 410.835 85.8211C408.933 85.8211 407.304 85.5523 405.674 84.7459C404.044 83.9396 402.686 83.1333 401.599 81.7893C400.513 80.7142 399.698 79.1015 399.155 77.4888C398.612 75.8761 398.34 73.9947 398.34 72.382C398.34 70.5005 398.612 68.8878 399.155 67.2751C399.698 65.6624 400.513 64.3185 401.599 62.9746C402.686 61.8995 404.044 60.8243 405.674 60.018C407.304 59.2116 408.933 58.9429 410.835 58.9429C412.736 58.9429 414.366 59.2116 415.995 60.018C417.625 60.5555 418.983 61.6307 420.07 62.7058C421.156 63.7809 421.971 65.3936 422.514 67.0063C423.058 68.619 423.329 70.5005 423.329 72.382C423.329 74.2634 423.058 76.1449 422.514 77.7576Z" fill="#3DD2CE"/>
<path d="M483.36 48.1914L470.323 73.1882L456.741 48.1914H441.802L462.989 86.3585L445.877 117H460.273L497.756 48.1914H483.36Z" fill="#3DD2CE"/>
<path d="M262.528 85.8216L267.689 80.9835L261.985 71.5762L246.774 85.8216L249.491 96.5729L291.049 96.8417L288.333 85.8216H262.528Z" fill="#FF4240"/>
<path d="M291.052 59.4791L288.336 48.459H247.864L250.852 59.2103L275.298 59.4791L270.137 64.0484L275.57 73.7245L291.052 59.4791Z" fill="#FF4240"/>
<path d="M320.315 144.942V149.206H316.649V147.126C316.233 146.84 315.375 146.632 314.335 146.632C312.177 146.632 311.527 147.542 311.527 153.756C311.527 159.97 312.151 160.932 314.257 160.932C316.051 160.932 316.779 160.178 316.779 158.462V157.968H320.263V158.488C320.263 162.908 318.053 164.39 314.023 164.39C309.213 164.39 307.601 162.258 307.601 153.756C307.601 145.15 309.239 143.174 314.257 143.174C317.455 143.174 319.301 143.954 320.315 144.942ZM329.182 143.278C334.46 143.278 335.812 143.954 335.812 153.808C335.812 163.662 334.46 164.286 329.182 164.286C323.93 164.286 322.604 163.662 322.604 153.808C322.604 143.954 323.93 143.278 329.182 143.278ZM329.182 146.658C326.894 146.658 326.478 146.97 326.478 153.808C326.478 160.646 326.894 160.932 329.182 160.932C331.496 160.932 331.964 160.646 331.964 153.808C331.964 146.97 331.496 146.658 329.182 146.658ZM337.477 143.564H340.753L344.367 151.39L347.955 143.564H351.257V164H347.747V150.22L345.043 156.694H343.743L340.987 150.194V164H337.477V143.564ZM353.26 143.564H359.136C364.804 143.564 366.286 145.15 366.286 150.584C366.286 156.044 364.804 157.578 359.136 157.578H357.238V164H353.26V143.564ZM357.238 147.022V154.25H359.474C361.788 154.25 362.386 153.73 362.386 150.662C362.386 147.568 361.788 147.022 359.474 147.022H357.238ZM368.392 143.564H374.424C379.962 143.564 381.418 144.994 381.418 149.778C381.418 153.418 380.586 154.952 377.804 155.498L381.938 164H377.674L373.748 155.732H372.37V164H368.392V143.564ZM372.37 146.814V152.872H374.788C376.946 152.872 377.518 152.508 377.518 149.882C377.518 147.334 376.972 146.814 374.788 146.814H372.37ZM387.945 143.564H391.793L396.785 164H392.937L392.287 160.88H387.061L386.333 164H382.719L387.945 143.564ZM389.817 149.232L387.789 157.812H391.793L389.817 149.232ZM407.316 148.868V147.178C406.51 146.762 405.73 146.606 404.846 146.606C403.078 146.606 402.012 147.386 402.012 148.738C402.012 151.442 405.574 151.078 408.616 152.534C410.696 153.522 411.554 155.056 411.554 157.578C411.554 162.076 409.084 164.39 404.456 164.39C399.386 164.39 398.112 161.608 398.112 158.28V157.968H401.83V158.28C401.83 159.554 402.324 160.906 404.612 160.906C406.926 160.906 407.628 159.45 407.628 157.682C407.628 156.668 407.342 156.018 406.146 155.55C403.52 154.354 398.164 154.354 398.164 149.024C398.164 144.604 401.31 143.174 405.132 143.174C407.316 143.174 409.5 143.616 410.956 144.968V148.868H407.316ZM217.558 169.564H229.024V172.554H225.28V187.01H229.024V190H217.558V187.01H221.302V172.554H217.558V169.564ZM232.197 169.564H238.255C243.507 169.564 244.885 172.84 244.885 179.808C244.885 186.776 243.507 190 238.255 190H232.197V169.564ZM236.045 173.022V186.542H238.255C240.413 186.542 240.959 184.696 240.959 179.808C240.959 174.92 240.413 173.022 238.255 173.022H236.045ZM250.918 186.698C250.918 184.93 251.75 184.046 253.57 184.046C255.364 184.046 256.222 184.93 256.222 186.698C256.222 188.518 255.364 189.428 253.57 189.428C251.75 189.428 250.918 188.518 250.918 186.698ZM250.918 177.078C250.918 175.31 251.75 174.426 253.57 174.426C255.364 174.426 256.222 175.31 256.222 177.078C256.222 178.898 255.364 179.808 253.57 179.808C251.75 179.808 250.918 178.898 250.918 177.078ZM268.547 169.174C273.591 169.174 274.865 175.18 274.865 179.782C274.865 184.488 273.513 190.39 268.599 190.39C263.425 190.39 262.229 183.838 262.229 179.548C262.229 175.232 263.477 169.174 268.547 169.174ZM268.547 172.112C266.805 172.112 266.103 174.764 266.103 179.756C266.103 184.748 266.805 187.478 268.573 187.478C270.237 187.478 270.965 184.878 270.965 179.808C270.965 174.738 270.263 172.112 268.547 172.112ZM277.648 174.868V170.942C278.844 169.902 280.664 169.174 283.472 169.174C287.996 169.174 290.05 170.942 290.05 174.972C290.05 177.234 289.14 178.508 287.866 179.236C289.322 179.938 290.362 181.29 290.362 183.864C290.362 189.142 287.294 190.39 283.706 190.39C279.754 190.39 277.518 188.882 277.518 184.488V183.968H280.976V184.462C280.976 186.204 281.704 187.27 283.732 187.27C285.734 187.27 286.644 186.204 286.644 183.942C286.644 181.394 285.708 180.926 283.654 180.926H281.444V178.014H283.654C285.604 178.014 286.488 177.364 286.488 175.284C286.488 173.152 285.5 172.268 283.602 172.268C282.406 172.268 281.704 172.554 281.08 172.918V174.868H277.648ZM298.812 169.174C303.856 169.174 305.13 175.18 305.13 179.782C305.13 184.488 303.778 190.39 298.864 190.39C293.69 190.39 292.494 183.838 292.494 179.548C292.494 175.232 293.742 169.174 298.812 169.174ZM298.812 172.112C297.07 172.112 296.368 174.764 296.368 179.756C296.368 184.748 297.07 187.478 298.838 187.478C300.502 187.478 301.23 184.878 301.23 179.808C301.23 174.738 300.528 172.112 298.812 172.112ZM311.007 190C313.373 187.244 314.829 184.982 315.739 182.98C314.881 183.396 313.867 183.682 312.749 183.682C309.655 183.682 307.367 181.498 307.367 176.272C307.367 170.942 309.733 169.174 314.127 169.174C319.015 169.174 320.627 171.358 320.627 176.298C320.627 180.952 319.145 184.748 315.089 190H311.007ZM313.945 180.588C314.959 180.588 315.947 180.302 316.779 179.834C317.013 178.742 317.091 177.702 317.091 176.636C317.091 173.568 316.415 172.268 314.023 172.268C312.021 172.268 310.981 173.126 310.981 176.454C310.981 179.496 311.891 180.588 313.945 180.588ZM323.67 173.49H324.788C327.076 173.49 328.064 172.268 328.064 170.318V169.564H331.314V186.906H335.058V190H323.462V186.906H327.57V175.83C326.816 176.22 325.984 176.402 325.048 176.402H323.67V173.49ZM346.239 169.564H349.437V182.174H351.257V185.268H349.437V190H345.849V185.268H337.477V182.122L346.239 169.564ZM340.831 182.174H345.849V174.972L340.831 182.174ZM355.132 169.564H365.376V172.658H358.096L357.524 176.168C358.382 175.804 359.318 175.596 360.332 175.596C363.894 175.596 365.974 177.728 365.974 182.85C365.974 188.648 363.296 190.39 359.214 190.39C355.366 190.39 353.13 188.83 353.13 184.488V183.968H356.562V184.462C356.562 186.178 357.368 187.27 359.318 187.27C361.32 187.27 362.23 186.1 362.23 182.954C362.23 179.522 361.346 178.716 359.422 178.716C357.966 178.716 357.238 179.314 356.406 180.224L353.546 179.652L355.132 169.564ZM369.068 173.49H370.186C372.474 173.49 373.462 172.268 373.462 170.318V169.564H376.712V186.906H380.456V190H368.86V186.906H372.968V175.83C372.214 176.22 371.382 176.402 370.446 176.402H369.068V173.49ZM385.397 169.564H395.641V172.658H388.361L387.789 176.168C388.647 175.804 389.583 175.596 390.597 175.596C394.159 175.596 396.239 177.728 396.239 182.85C396.239 188.648 393.561 190.39 389.479 190.39C385.631 190.39 383.395 188.83 383.395 184.488V183.968H386.827V184.462C386.827 186.178 387.633 187.27 389.583 187.27C391.585 187.27 392.495 186.1 392.495 182.954C392.495 179.522 391.611 178.716 389.687 178.716C388.231 178.716 387.503 179.314 386.671 180.224L383.811 179.652L385.397 169.564ZM398.71 174.868V170.942C399.906 169.902 401.726 169.174 404.534 169.174C409.058 169.174 411.112 170.942 411.112 174.972C411.112 177.234 410.202 178.508 408.928 179.236C410.384 179.938 411.424 181.29 411.424 183.864C411.424 189.142 408.356 190.39 404.768 190.39C400.816 190.39 398.58 188.882 398.58 184.488V183.968H402.038V184.462C402.038 186.204 402.766 187.27 404.794 187.27C406.796 187.27 407.706 186.204 407.706 183.942C407.706 181.394 406.77 180.926 404.716 180.926H402.506V178.014H404.716C406.666 178.014 407.55 177.364 407.55 175.284C407.55 173.152 406.562 172.268 404.664 172.268C403.468 172.268 402.766 172.554 402.142 172.918V174.868H398.71ZM413.843 174.868V170.942C415.039 169.902 416.859 169.174 419.667 169.174C424.191 169.174 426.245 170.942 426.245 174.972C426.245 177.234 425.335 178.508 424.061 179.236C425.517 179.938 426.557 181.29 426.557 183.864C426.557 189.142 423.489 190.39 419.901 190.39C415.949 190.39 413.713 188.882 413.713 184.488V183.968H417.171V184.462C417.171 186.204 417.899 187.27 419.927 187.27C421.929 187.27 422.839 186.204 422.839 183.942C422.839 181.394 421.903 180.926 419.849 180.926H417.639V178.014H419.849C421.799 178.014 422.683 177.364 422.683 175.284C422.683 173.152 421.695 172.268 419.797 172.268C418.601 172.268 417.899 172.554 417.275 172.918V174.868H413.843ZM428.794 169.564H441.482V172.502L434.696 190H430.718L437.686 172.658H428.794V169.564ZM444.108 174.868V170.968C445.564 169.564 447.982 169.174 450.036 169.174C453.858 169.174 456.588 170.552 456.588 175.492C456.588 178.664 454.664 181.81 448.736 186.906H456.874V190H444.212V187.036C451.024 181.446 452.87 178.43 452.87 175.284C452.87 172.996 451.752 172.268 450.062 172.268C448.996 172.268 448.242 172.502 447.54 172.918V174.868H444.108ZM458.721 184.176C458.721 181.654 459.787 180.094 461.425 179.262C459.917 178.404 459.033 176.948 459.033 174.842C459.033 171.15 461.867 169.174 465.429 169.174C468.965 169.174 471.799 171.15 471.799 174.842C471.799 176.948 470.915 178.404 469.433 179.262C471.045 180.094 472.111 181.654 472.111 184.176C472.111 188.622 468.783 190.39 465.429 190.39C462.049 190.39 458.721 188.622 458.721 184.176ZM465.429 180.926C463.713 180.926 462.361 181.68 462.361 183.994C462.361 186.308 463.765 187.27 465.429 187.27C467.067 187.27 468.497 186.308 468.497 183.994C468.497 181.68 467.119 180.926 465.429 180.926ZM465.429 172.268C463.765 172.268 462.517 173.022 462.517 175.154C462.517 177.156 463.661 178.014 465.429 178.014C467.197 178.014 468.315 177.156 468.315 175.154C468.315 173.022 467.067 172.268 465.429 172.268ZM476.194 169.564H486.438V172.658H479.158L478.586 176.168C479.444 175.804 480.38 175.596 481.394 175.596C484.956 175.596 487.036 177.728 487.036 182.85C487.036 188.648 484.358 190.39 480.276 190.39C476.428 190.39 474.192 188.83 474.192 184.488V183.968H477.624V184.462C477.624 186.178 478.43 187.27 480.38 187.27C482.382 187.27 483.292 186.1 483.292 182.954C483.292 179.522 482.408 178.716 480.484 178.716C479.028 178.716 478.3 179.314 477.468 180.224L474.608 179.652L476.194 169.564ZM498.477 174.868V172.788C498.139 172.476 497.255 172.268 496.397 172.268C494.161 172.268 493.303 174.244 493.095 177.39C494.239 176.87 495.487 176.662 496.657 176.662C500.765 176.662 502.273 179.08 502.273 183.214C502.273 189.09 499.179 190.39 495.721 190.39C491.457 190.39 489.377 188.44 489.377 180.328C489.377 172.606 491.275 169.174 496.423 169.174C498.789 169.174 500.895 169.902 501.909 170.942V174.868H498.477ZM495.955 179.47C495.071 179.47 494.057 179.73 493.043 180.172C493.121 185.892 493.927 187.27 495.877 187.27C497.593 187.27 498.685 186.126 498.685 183.266C498.685 180.952 497.983 179.47 495.955 179.47Z" fill="#00A09D"/>
<path d="M104.062 205.564H115.528V208.554H111.784V223.01H115.528V226H104.062V223.01H107.806V208.554H104.062V205.564ZM118.935 205.564H130.895V208.71L123.511 222.542H130.895V226H118.935V222.698L126.527 209.022H118.935V205.564ZM134.328 205.564H145.794V208.554H142.05V223.01H145.794V226H134.328V223.01H138.072V208.554H134.328V205.564ZM163.449 205.564H166.725L170.339 213.39L173.927 205.564H177.229V226H173.719V212.22L171.015 218.694H169.715L166.959 212.194V226H163.449V205.564ZM183.652 205.564H187.5L192.492 226H188.644L187.994 222.88H182.768L182.04 226H178.426L183.652 205.564ZM185.524 211.232L183.496 219.812H187.5L185.524 211.232ZM194.365 205.564H200.397C205.935 205.564 207.391 206.994 207.391 211.778C207.391 215.418 206.559 216.952 203.777 217.498L207.911 226H203.647L199.721 217.732H198.343V226H194.365V205.564ZM198.343 208.814V214.872H200.761C202.919 214.872 203.491 214.508 203.491 211.882C203.491 209.334 202.945 208.814 200.761 208.814H198.343ZM209.992 205.564H221.458V208.554H217.714V223.01H221.458V226H209.992V223.01H213.736V208.554H209.992V205.564ZM229.051 205.564H232.899L237.891 226H234.043L233.393 222.88H228.167L227.439 226H223.825L229.051 205.564ZM230.923 211.232L228.895 219.812H232.899L230.923 211.232ZM254.896 205.564H260.928C266.466 205.564 267.922 206.994 267.922 211.778C267.922 215.418 267.09 216.952 264.308 217.498L268.442 226H264.178L260.252 217.732H258.874V226H254.896V205.564ZM258.874 208.814V214.872H261.292C263.45 214.872 264.022 214.508 264.022 211.882C264.022 209.334 263.476 208.814 261.292 208.814H258.874ZM270.029 205.564H282.795V209.022H274.007V213.676H282.457V216.978H274.007V222.542H282.847V226H270.029V205.564ZM293.82 210.868V209.178C293.014 208.762 292.234 208.606 291.35 208.606C289.582 208.606 288.516 209.386 288.516 210.738C288.516 213.442 292.078 213.078 295.12 214.534C297.2 215.522 298.058 217.056 298.058 219.578C298.058 224.076 295.588 226.39 290.96 226.39C285.89 226.39 284.616 223.608 284.616 220.28V219.968H288.334V220.28C288.334 221.554 288.828 222.906 291.116 222.906C293.43 222.906 294.132 221.45 294.132 219.682C294.132 218.668 293.846 218.018 292.65 217.55C290.024 216.354 284.668 216.354 284.668 211.024C284.668 206.604 287.814 205.174 291.636 205.174C293.82 205.174 296.004 205.616 297.46 206.968V210.868H293.82ZM299.801 205.564H313.243V209.022H308.511V226H304.559V209.022H299.801V205.564ZM319.848 205.564H323.696L328.688 226H324.84L324.19 222.88H318.964L318.236 226H314.622L319.848 205.564ZM321.72 211.232L319.692 219.812H323.696L321.72 211.232ZM330.56 205.564H334.538V219.526C334.538 222.516 334.98 222.802 336.852 222.802C338.724 222.802 339.244 222.516 339.244 219.526V205.564H343.014V219.292C343.014 225.324 341.74 226.286 336.8 226.286C331.808 226.286 330.56 225.324 330.56 219.292V205.564ZM345.693 205.564H351.725C357.263 205.564 358.719 206.994 358.719 211.778C358.719 215.418 357.887 216.952 355.105 217.498L359.239 226H354.975L351.049 217.732H349.671V226H345.693V205.564ZM349.671 208.814V214.872H352.089C354.247 214.872 354.819 214.508 354.819 211.882C354.819 209.334 354.273 208.814 352.089 208.814H349.671ZM365.246 205.564H369.094L374.086 226H370.238L369.588 222.88H364.362L363.634 226H360.02L365.246 205.564ZM367.118 211.232L365.09 219.812H369.094L367.118 211.232ZM375.777 205.564H379.599L385.085 217.576V205.564H388.595V226H385.683L379.313 212.74V226H375.777V205.564ZM390.598 205.564H404.04V209.022H399.308V226H395.356V209.022H390.598V205.564ZM406.224 205.564H418.99V209.022H410.202V213.676H418.652V216.978H410.202V222.542H419.042V226H406.224V205.564ZM445.148 210.868V209.178C444.342 208.762 443.562 208.606 442.678 208.606C440.91 208.606 439.844 209.386 439.844 210.738C439.844 213.442 443.406 213.078 446.448 214.534C448.528 215.522 449.386 217.056 449.386 219.578C449.386 224.076 446.916 226.39 442.288 226.39C437.218 226.39 435.944 223.608 435.944 220.28V219.968H439.662V220.28C439.662 221.554 440.156 222.906 442.444 222.906C444.758 222.906 445.46 221.45 445.46 219.682C445.46 218.668 445.174 218.018 443.978 217.55C441.352 216.354 435.996 216.354 435.996 211.024C435.996 206.604 439.142 205.174 442.964 205.174C445.148 205.174 447.332 205.616 448.788 206.968V210.868H445.148ZM456.043 205.564H459.891L464.883 226H461.035L460.385 222.88H455.159L454.431 226H450.817L456.043 205.564ZM457.915 211.232L455.887 219.812H459.891L457.915 211.232ZM479.21 206.942V211.206H475.544V209.126C475.128 208.84 474.27 208.632 473.23 208.632C471.072 208.632 470.422 209.542 470.422 215.756C470.422 221.97 471.046 222.932 473.152 222.932C474.946 222.932 475.674 222.178 475.674 220.462V219.968H479.158V220.488C479.158 224.908 476.948 226.39 472.918 226.39C468.108 226.39 466.496 224.258 466.496 215.756C466.496 207.15 468.134 205.174 473.152 205.174C476.35 205.174 478.196 205.954 479.21 206.942ZM490.495 200.494H494.525C490.339 204.576 488.285 210.218 488.285 215.912C488.285 221.606 490.339 227.222 494.525 231.304H490.495C486.491 227.872 484.047 221.84 484.047 215.912C484.047 209.984 486.491 203.926 490.495 200.494ZM496.553 220.176C496.553 217.654 497.619 216.094 499.257 215.262C497.749 214.404 496.865 212.948 496.865 210.842C496.865 207.15 499.699 205.174 503.261 205.174C506.797 205.174 509.631 207.15 509.631 210.842C509.631 212.948 508.747 214.404 507.265 215.262C508.877 216.094 509.943 217.654 509.943 220.176C509.943 224.622 506.615 226.39 503.261 226.39C499.881 226.39 496.553 224.622 496.553 220.176ZM503.261 216.926C501.545 216.926 500.193 217.68 500.193 219.994C500.193 222.308 501.597 223.27 503.261 223.27C504.899 223.27 506.329 222.308 506.329 219.994C506.329 217.68 504.951 216.926 503.261 216.926ZM503.261 208.268C501.597 208.268 500.349 209.022 500.349 211.154C500.349 213.156 501.493 214.014 503.261 214.014C505.029 214.014 506.147 213.156 506.147 211.154C506.147 209.022 504.899 208.268 503.261 208.268ZM512.024 205.564H524.712V208.502L517.926 226H513.948L520.916 208.658H512.024V205.564ZM527.963 209.49H529.081C531.369 209.49 532.357 208.268 532.357 206.318V205.564H535.607V222.906H539.351V226H527.755V222.906H531.863V211.83C531.109 212.22 530.277 212.402 529.341 212.402H527.963V209.49ZM550.532 205.564H553.73V218.174H555.55V221.268H553.73V226H550.142V221.268H541.77V218.122L550.532 205.564ZM545.124 218.174H550.142V210.972L545.124 218.174ZM557.605 210.868V206.942C558.801 205.902 560.621 205.174 563.429 205.174C567.953 205.174 570.007 206.942 570.007 210.972C570.007 213.234 569.097 214.508 567.823 215.236C569.279 215.938 570.319 217.29 570.319 219.864C570.319 225.142 567.251 226.39 563.663 226.39C559.711 226.39 557.475 224.882 557.475 220.488V219.968H560.933V220.462C560.933 222.204 561.661 223.27 563.689 223.27C565.691 223.27 566.601 222.204 566.601 219.942C566.601 217.394 565.665 216.926 563.611 216.926H561.401V214.014H563.611C565.561 214.014 566.445 213.364 566.445 211.284C566.445 209.152 565.457 208.268 563.559 208.268C562.363 208.268 561.661 208.554 561.037 208.918V210.868H557.605ZM572.555 205.564H585.243V208.502L578.457 226H574.479L581.447 208.658H572.555V205.564ZM595.93 205.564H599.128V218.174H600.948V221.268H599.128V226H595.54V221.268H587.168V218.122L595.93 205.564ZM590.522 218.174H595.54V210.972L590.522 218.174ZM602.821 200.494H606.799C610.829 203.926 613.273 209.984 613.273 215.912C613.273 221.84 610.829 227.872 606.799 231.304H602.821C606.981 227.222 609.035 221.606 609.035 215.912C609.035 210.218 606.981 204.576 602.821 200.494ZM175.746 238.708H179.09V249.752C179.09 254.526 177.682 256.33 173.59 256.33C170.202 256.33 168.332 255.076 168.332 251.336V250.896H171.258V251.314C171.258 252.766 171.896 253.404 173.436 253.404C175.174 253.404 175.746 252.59 175.746 249.774V238.708ZM181.796 243.922H184.744V245.77C185.844 244.582 187.186 243.702 188.968 243.702C190.662 243.702 191.828 244.538 192.114 245.484V248.256H189.232V246.716C189.012 246.518 188.462 246.342 187.824 246.342C186.746 246.342 185.69 246.958 184.942 247.684V256H181.796V243.922ZM197.197 253.91C197.197 252.414 197.901 251.666 199.441 251.666C200.959 251.666 201.685 252.414 201.685 253.91C201.685 255.45 200.959 256.22 199.441 256.22C197.901 256.22 197.197 255.45 197.197 253.91ZM220.012 238.708H223.378V253.074H230.462V256H220.012V238.708ZM237.877 243.592C241.507 243.592 242.981 245.308 242.981 249.972C242.981 254.636 241.507 256.33 237.877 256.33C234.247 256.33 232.751 254.636 232.751 249.972C232.751 245.308 234.247 243.592 237.877 243.592ZM237.877 246.32C236.403 246.32 235.853 246.892 235.853 249.972C235.853 253.052 236.403 253.646 237.877 253.646C239.351 253.646 239.901 253.052 239.901 249.972C239.901 246.892 239.351 246.32 237.877 246.32ZM245.512 252.172H248.218V252.414C248.218 253.382 248.79 253.91 250.396 253.91C252.068 253.91 252.772 253.294 252.772 252.26C252.772 249.73 245.556 251.864 245.556 247.2C245.556 244.45 247.91 243.592 250.572 243.592C252.354 243.592 253.894 243.966 255.192 244.934V247.376H252.508V246.21C251.87 245.946 251.232 245.836 250.484 245.836C249.252 245.836 248.372 246.188 248.372 247.046C248.372 248.696 251.584 248.278 253.696 249.114C255.038 249.642 255.654 250.566 255.654 252.15C255.654 254.966 253.74 256.33 250.286 256.33C246.48 256.33 245.512 254.658 245.512 252.48V252.172ZM274.729 238.708H277.985L282.209 256H278.953L278.403 253.36H273.981L273.365 256H270.307L274.729 238.708ZM276.313 243.504L274.597 250.764H277.985L276.313 243.504ZM276.533 234.44H280.141L276.379 237.762H273.761L276.533 234.44ZM285.29 238.708H291.142V253.624H293.958V256H284.938V253.624H287.996V241.084H285.29V238.708ZM300.339 249.026L303.617 248.322V248.102C303.617 246.65 302.979 246.21 301.637 246.21C300.647 246.21 300.185 246.43 299.921 246.628V247.728H297.193V245.484C298.051 244.186 299.811 243.592 301.945 243.592C304.783 243.592 306.543 244.626 306.543 247.574V252.964C306.543 253.536 306.697 253.602 307.203 253.602H307.555V256H305.773C304.541 256 303.925 255.736 303.705 254.922L303.507 255.098C302.473 255.868 301.527 256.242 300.141 256.242C297.633 256.242 296.665 254.856 296.665 252.81C296.665 250.588 297.853 249.554 300.339 249.026ZM300.999 253.844C301.505 253.844 302.077 253.756 303.089 253.118L303.617 252.788V250.434L301.087 251.028C300.119 251.226 299.591 251.6 299.591 252.546C299.591 253.382 300.031 253.844 300.999 253.844ZM308.611 243.922H311.141V244.846C311.625 244.23 312.351 243.702 313.451 243.702C314.507 243.702 315.255 244.186 315.607 245.044C316.487 244.076 317.301 243.702 318.357 243.702C319.897 243.702 320.777 244.45 320.777 246.474V256H318.049V247.376C318.049 246.738 317.829 246.496 317.169 246.496C316.707 246.496 316.311 246.606 315.849 247.046V256H313.495V247.376C313.495 246.76 313.253 246.496 312.637 246.496C311.977 246.496 311.559 246.782 311.295 247.222V256H308.611V243.922ZM327.51 243.592C331.14 243.592 332.614 245.308 332.614 249.972C332.614 254.636 331.14 256.33 327.51 256.33C323.88 256.33 322.384 254.636 322.384 249.972C322.384 245.308 323.88 243.592 327.51 243.592ZM327.51 246.32C326.036 246.32 325.486 246.892 325.486 249.972C325.486 253.052 326.036 253.646 327.51 253.646C328.984 253.646 329.534 253.052 329.534 249.972C329.534 246.892 328.984 246.32 327.51 246.32ZM335.145 252.172H337.851V252.414C337.851 253.382 338.423 253.91 340.029 253.91C341.701 253.91 342.405 253.294 342.405 252.26C342.405 249.73 335.189 251.864 335.189 247.2C335.189 244.45 337.543 243.592 340.205 243.592C341.987 243.592 343.527 243.966 344.825 244.934V247.376H342.141V246.21C341.503 245.946 340.865 245.836 340.117 245.836C338.885 245.836 338.005 246.188 338.005 247.046C338.005 248.696 341.217 248.278 343.329 249.114C344.671 249.642 345.287 250.566 345.287 252.15C345.287 254.966 343.373 256.33 339.919 256.33C336.113 256.33 335.145 254.658 335.145 252.48V252.172ZM360.666 243.196V239.874C361.678 238.994 363.218 238.378 365.594 238.378C369.422 238.378 371.16 239.874 371.16 243.284C371.16 245.198 370.39 246.276 369.312 246.892C370.544 247.486 371.424 248.63 371.424 250.808C371.424 255.274 368.828 256.33 365.792 256.33C362.448 256.33 360.556 255.054 360.556 251.336V250.896H363.482V251.314C363.482 252.788 364.098 253.69 365.814 253.69C367.508 253.69 368.278 252.788 368.278 250.874C368.278 248.718 367.486 248.322 365.748 248.322H363.878V245.858H365.748C367.398 245.858 368.146 245.308 368.146 243.548C368.146 241.744 367.31 240.996 365.704 240.996C364.692 240.996 364.098 241.238 363.57 241.546V243.196H360.666ZM373.317 238.708H384.053V241.194L378.311 256H374.945L380.841 241.326H373.317V238.708ZM385.835 251.072C385.835 248.938 386.737 247.618 388.123 246.914C386.847 246.188 386.099 244.956 386.099 243.174C386.099 240.05 388.497 238.378 391.511 238.378C394.503 238.378 396.901 240.05 396.901 243.174C396.901 244.956 396.153 246.188 394.899 246.914C396.263 247.618 397.165 248.938 397.165 251.072C397.165 254.834 394.349 256.33 391.511 256.33C388.651 256.33 385.835 254.834 385.835 251.072ZM391.511 248.322C390.059 248.322 388.915 248.96 388.915 250.918C388.915 252.876 390.103 253.69 391.511 253.69C392.897 253.69 394.107 252.876 394.107 250.918C394.107 248.96 392.941 248.322 391.511 248.322ZM391.511 240.996C390.103 240.996 389.047 241.634 389.047 243.438C389.047 245.132 390.015 245.858 391.511 245.858C393.007 245.858 393.953 245.132 393.953 243.438C393.953 241.634 392.897 240.996 391.511 240.996ZM415.581 238.708H418.837L423.061 256H419.805L419.255 253.36H414.833L414.217 256H411.159L415.581 238.708ZM417.165 243.504L415.449 250.764H418.837L417.165 243.504ZM424.029 244.736H425.855V241.348H429.023V244.736H434.545V247.112H429.023V252.348C429.023 253.382 429.463 253.822 430.827 253.822C432.257 253.822 432.565 253.36 432.565 252.392V252.018H435.205V252.282C435.205 254.834 434.633 256.33 430.607 256.33C427.175 256.33 425.855 255.054 425.855 252.238V247.112H424.029V244.736ZM447.592 250.698H440.53C440.64 253.272 441.366 253.756 442.818 253.756C444.248 253.756 444.864 253.25 444.864 252.568V252.348H447.636V252.634C447.636 255.164 445.678 256.33 442.73 256.33C439.122 256.33 437.626 254.592 437.626 249.994C437.626 245.44 439.122 243.592 442.818 243.592C446.646 243.592 447.702 245.55 447.702 249.114C447.702 249.686 447.658 250.368 447.592 250.698ZM442.774 246.188C441.498 246.188 440.772 246.606 440.574 248.608H444.974C444.996 248.542 444.996 248.498 444.996 248.256C444.974 246.87 444.402 246.188 442.774 246.188ZM462.378 238.708H465.854L468.296 250.808L471.046 238.708H474.28L469.88 256H466.624L462.378 238.708ZM477.36 243.922H483.146V253.624H486.028V256H477.008V253.624H480V246.32H477.36V243.922ZM479.428 240.314C479.428 238.95 480.088 238.268 481.474 238.268C482.86 238.268 483.52 238.95 483.52 240.314C483.52 241.7 482.86 242.404 481.474 242.404C480.088 242.404 479.428 241.7 479.428 240.314ZM488.053 244.736H489.879V241.348H493.047V244.736H498.569V247.112H493.047V252.348C493.047 253.382 493.487 253.822 494.851 253.822C496.281 253.822 496.589 253.36 496.589 252.392V252.018H499.229V252.282C499.229 254.834 498.657 256.33 494.631 256.33C491.199 256.33 489.879 255.054 489.879 252.238V247.112H488.053V244.736ZM505.214 249.026L508.492 248.322V248.102C508.492 246.65 507.854 246.21 506.512 246.21C505.522 246.21 505.06 246.43 504.796 246.628V247.728H502.068V245.484C502.926 244.186 504.686 243.592 506.82 243.592C509.658 243.592 511.418 244.626 511.418 247.574V252.964C511.418 253.536 511.572 253.602 512.078 253.602H512.43V256H510.648C509.416 256 508.8 255.736 508.58 254.922L508.382 255.098C507.348 255.868 506.402 256.242 505.016 256.242C502.508 256.242 501.54 254.856 501.54 252.81C501.54 250.588 502.728 249.554 505.214 249.026ZM505.874 253.844C506.38 253.844 506.952 253.756 507.964 253.118L508.492 252.788V250.434L505.962 251.028C504.994 251.226 504.466 251.6 504.466 252.546C504.466 253.382 504.906 253.844 505.874 253.844ZM514.718 243.922H517.666V245.77C518.766 244.582 520.108 243.702 521.89 243.702C523.584 243.702 524.75 244.538 525.036 245.484V248.256H522.154V246.716C521.934 246.518 521.384 246.342 520.746 246.342C519.668 246.342 518.612 246.958 517.864 247.684V256H514.718V243.922ZM526.467 244.736H528.293V241.348H531.461V244.736H536.983V247.112H531.461V252.348C531.461 253.382 531.901 253.822 533.265 253.822C534.695 253.822 535.003 253.36 535.003 252.392V252.018H537.643V252.282C537.643 254.834 537.071 256.33 533.045 256.33C529.613 256.33 528.293 255.054 528.293 252.238V247.112H526.467V244.736ZM550.03 250.698H542.968C543.078 253.272 543.804 253.756 545.256 253.756C546.686 253.756 547.302 253.25 547.302 252.568V252.348H550.074V252.634C550.074 255.164 548.116 256.33 545.168 256.33C541.56 256.33 540.064 254.592 540.064 249.994C540.064 245.44 541.56 243.592 545.256 243.592C549.084 243.592 550.14 245.55 550.14 249.114C550.14 249.686 550.096 250.368 550.03 250.698ZM545.212 246.188C543.936 246.188 543.21 246.606 543.012 248.608H547.412C547.434 248.542 547.434 248.498 547.434 248.256C547.412 246.87 546.84 246.188 545.212 246.188Z" fill="#424649"/>
<rect width="721" height="238" transform="translate(-1 276)" fill="white"/>
<path d="M210.824 280.644L214.724 283.53L214.23 278.564H217.116L216.674 283.504L220.626 280.566L221.978 283.192L217.636 285.22L221.978 287.274L220.626 289.874L216.726 287.014L217.194 291.954H214.308L214.776 287.04L210.824 289.926L209.472 287.326L213.814 285.298L209.446 283.244L210.824 280.644ZM225.957 280.644L229.857 283.53L229.363 278.564H232.249L231.807 283.504L235.759 280.566L237.111 283.192L232.769 285.22L237.111 287.274L235.759 289.874L231.859 287.014L232.327 291.954H229.441L229.909 287.04L225.957 289.926L224.605 287.326L228.947 285.298L224.579 283.244L225.957 280.644ZM241.09 280.644L244.99 283.53L244.496 278.564H247.382L246.94 283.504L250.892 280.566L252.244 283.192L247.902 285.22L252.244 287.274L250.892 289.874L246.992 287.014L247.46 291.954H244.574L245.042 287.04L241.09 289.926L239.738 287.326L244.08 285.298L239.712 283.244L241.09 280.644ZM256.222 280.644L260.122 283.53L259.628 278.564H262.514L262.072 283.504L266.024 280.566L267.376 283.192L263.034 285.22L267.376 287.274L266.024 289.874L262.124 287.014L262.592 291.954H259.706L260.174 287.04L256.222 289.926L254.87 287.326L259.212 285.298L254.844 283.244L256.222 280.644ZM271.355 280.644L275.255 283.53L274.761 278.564H277.647L277.205 283.504L281.157 280.566L282.509 283.192L278.167 285.22L282.509 287.274L281.157 289.874L277.257 287.014L277.725 291.954H274.839L275.307 287.04L271.355 289.926L270.003 287.326L274.345 285.298L269.977 283.244L271.355 280.644ZM286.488 280.644L290.388 283.53L289.894 278.564H292.78L292.338 283.504L296.29 280.566L297.642 283.192L293.3 285.22L297.642 287.274L296.29 289.874L292.39 287.014L292.858 291.954H289.972L290.44 287.04L286.488 289.926L285.136 287.326L289.478 285.298L285.11 283.244L286.488 280.644ZM301.621 280.644L305.521 283.53L305.027 278.564H307.913L307.471 283.504L311.423 280.566L312.775 283.192L308.433 285.22L312.775 287.274L311.423 289.874L307.523 287.014L307.991 291.954H305.105L305.573 287.04L301.621 289.926L300.269 287.326L304.611 285.298L300.243 283.244L301.621 280.644ZM316.754 280.644L320.654 283.53L320.16 278.564H323.046L322.604 283.504L326.556 280.566L327.908 283.192L323.566 285.22L327.908 287.274L326.556 289.874L322.656 287.014L323.124 291.954H320.238L320.706 287.04L316.754 289.926L315.402 287.326L319.744 285.298L315.376 283.244L316.754 280.644ZM331.886 280.644L335.786 283.53L335.292 278.564H338.178L337.736 283.504L341.688 280.566L343.04 283.192L338.698 285.22L343.04 287.274L341.688 289.874L337.788 287.014L338.256 291.954H335.37L335.838 287.04L331.886 289.926L330.534 287.326L334.876 285.298L330.508 283.244L331.886 280.644ZM347.019 280.644L350.919 283.53L350.425 278.564H353.311L352.869 283.504L356.821 280.566L358.173 283.192L353.831 285.22L358.173 287.274L356.821 289.874L352.921 287.014L353.389 291.954H350.503L350.971 287.04L347.019 289.926L345.667 287.326L350.009 285.298L345.641 283.244L347.019 280.644ZM362.152 280.644L366.052 283.53L365.558 278.564H368.444L368.002 283.504L371.954 280.566L373.306 283.192L368.964 285.22L373.306 287.274L371.954 289.874L368.054 287.014L368.522 291.954H365.636L366.104 287.04L362.152 289.926L360.8 287.326L365.142 285.298L360.774 283.244L362.152 280.644ZM377.285 280.644L381.185 283.53L380.691 278.564H383.577L383.135 283.504L387.087 280.566L388.439 283.192L384.097 285.22L388.439 287.274L387.087 289.874L383.187 287.014L383.655 291.954H380.769L381.237 287.04L377.285 289.926L375.933 287.326L380.275 285.298L375.907 283.244L377.285 280.644ZM391.768 282.49H392.886C395.174 282.49 396.162 281.268 396.162 279.318V278.564H399.412V295.906H403.156V299H391.56V295.906H395.668V284.83C394.914 285.22 394.082 285.402 393.146 285.402H391.768V282.49ZM406.276 283.868V279.968C407.732 278.564 410.15 278.174 412.204 278.174C416.026 278.174 418.756 279.552 418.756 284.492C418.756 287.664 416.832 290.81 410.904 295.906H419.042V299H406.38V296.036C413.192 290.446 415.038 287.43 415.038 284.284C415.038 281.996 413.92 281.268 412.23 281.268C411.164 281.268 410.41 281.502 409.708 281.918V283.868H406.276ZM422.033 282.49H423.151C425.439 282.49 426.427 281.268 426.427 279.318V278.564H429.677V295.906H433.421V299H421.825V295.906H425.933V284.83C425.179 285.22 424.347 285.402 423.411 285.402H422.033V282.49ZM436.542 283.868V279.942C437.738 278.902 439.558 278.174 442.366 278.174C446.89 278.174 448.944 279.942 448.944 283.972C448.944 286.234 448.034 287.508 446.76 288.236C448.216 288.938 449.256 290.29 449.256 292.864C449.256 298.142 446.188 299.39 442.6 299.39C438.648 299.39 436.412 297.882 436.412 293.488V292.968H439.87V293.462C439.87 295.204 440.598 296.27 442.626 296.27C444.628 296.27 445.538 295.204 445.538 292.942C445.538 290.394 444.602 289.926 442.548 289.926H440.338V287.014H442.548C444.498 287.014 445.382 286.364 445.382 284.284C445.382 282.152 444.394 281.268 442.496 281.268C441.3 281.268 440.598 281.554 439.974 281.918V283.868H436.542ZM475.362 273.494H479.392C475.206 277.576 473.152 283.218 473.152 288.912C473.152 294.606 475.206 300.222 479.392 304.304H475.362C471.358 300.872 468.914 294.84 468.914 288.912C468.914 282.984 471.358 276.926 475.362 273.494ZM488.155 278.174C493.407 278.174 494.785 279.63 494.785 288.574C494.785 296.062 493.823 298.194 490.417 298.688L490.911 299.728C491.223 300.404 491.509 300.638 492.523 300.612H495.175V303.992H492.783C490.053 303.992 489.299 303.264 488.649 301.184L487.921 298.818C482.825 298.792 481.551 297.388 481.551 288.574C481.551 279.63 482.877 278.174 488.155 278.174ZM488.155 281.632C485.919 281.632 485.451 282.256 485.451 288.6C485.451 294.944 485.919 295.49 488.155 295.49C490.365 295.49 490.911 294.944 490.911 288.6C490.911 282.256 490.365 281.632 488.155 281.632ZM496.891 273.494H500.869C504.899 276.926 507.343 282.984 507.343 288.912C507.343 294.84 504.899 300.872 500.869 304.304H496.891C501.051 300.222 503.105 294.606 503.105 288.912C503.105 283.218 501.051 277.576 496.891 273.494Z" fill="#00A09D"/>
<path d="M334.331 306.708H337.257L340.249 319.886L343.505 306.708H346.233L341.591 324H338.863L334.331 306.708ZM348.235 306.708H357.937V308.886H354.505V321.822H357.937V324H348.235V321.822H351.689V308.886H348.235V306.708ZM368.454 311.196V309.436C367.684 309.018 366.87 308.842 365.902 308.842C364.142 308.842 362.932 309.546 362.932 311.042C362.932 313.55 366.034 313.198 368.894 314.43C370.72 315.222 371.534 316.41 371.534 318.654C371.534 322.372 369.51 324.33 365.528 324.33C361.172 324.33 360.16 321.998 360.16 319.16V318.896H362.8V319.16C362.8 320.524 363.262 321.822 365.638 321.822C367.97 321.822 368.762 320.524 368.762 318.72C368.762 317.62 368.41 317.048 367.2 316.608C365.88 316.058 363.768 315.816 362.294 314.914C360.908 314.21 360.204 313.044 360.204 311.218C360.204 307.588 362.888 306.378 366.1 306.378C368.014 306.378 369.774 306.796 371.028 307.896V311.196H368.454ZM377.409 306.708H380.137L384.647 324H381.897L381.193 320.986H376.111L375.341 324H372.745L377.409 306.708ZM378.751 310.602L376.661 318.764H380.665L378.751 310.602Z" fill="#424649"/>
<rect width="721" height="78" transform="translate(-1 347)" fill="white"/>
<rect width="721" height="78" transform="translate(-1 347)" fill="white"/>
<path d="M118.532 347.064H121.756L127.086 367.5H123.836L123.004 363.938H116.998L116.088 367.5H113.02L118.532 347.064ZM120.118 351.666L117.648 361.312H122.38L120.118 351.666ZM132.599 357.724V363.496C133.249 364.51 134.211 365.134 135.693 365.134C137.071 365.134 138.293 364.562 138.293 360.558C138.293 356.528 137.071 356.086 135.771 356.086C134.211 356.086 133.249 356.684 132.599 357.724ZM129.479 353.538H132.417V355.254C133.327 353.902 135.017 353.304 136.941 353.304C139.489 353.304 141.387 354.396 141.387 360.532C141.387 366.642 139.489 367.786 136.941 367.786C134.809 367.786 132.989 366.98 132.703 365.966L132.599 372.804H129.479V353.538ZM147.992 364.406C147.992 362.768 148.72 361.962 150.332 361.962C151.918 361.962 152.672 362.768 152.672 364.406C152.672 366.07 151.918 366.902 150.332 366.902C148.72 366.902 147.992 366.07 147.992 364.406ZM147.992 354.786C147.992 353.148 148.72 352.342 150.332 352.342C151.918 352.342 152.672 353.148 152.672 354.786C152.672 356.45 151.918 357.282 150.332 357.282C148.72 357.282 147.992 356.45 147.992 354.786Z" fill="#00A09D"/>
<path d="M159.826 347.064H166.04C171.448 347.064 172.852 348.468 172.852 353.2C172.852 357.022 171.942 358.478 168.744 358.92L173.372 367.5H169.758L165.286 359.05H163.154V367.5H159.826V347.064ZM163.154 349.846V356.606H166.326C168.9 356.606 169.576 356.138 169.576 353.278C169.576 350.444 168.926 349.846 166.326 349.846H163.154ZM181.043 346.674C186.087 346.674 187.361 352.68 187.361 357.282C187.361 361.988 186.009 367.89 181.095 367.89C175.921 367.89 174.725 361.338 174.725 357.048C174.725 352.732 175.973 346.674 181.043 346.674ZM181.043 349.196C178.729 349.196 177.975 352.446 177.975 357.23C177.975 361.962 178.729 365.394 181.069 365.394C183.279 365.394 184.111 362.196 184.111 357.308C184.111 352.446 183.305 349.196 181.043 349.196ZM193.446 367.5C195.994 364.692 197.58 362.43 198.542 360.35C197.606 360.818 196.436 361.182 195.136 361.182C191.886 361.182 189.598 358.998 189.598 353.772C189.598 348.442 191.964 346.674 196.384 346.674C201.272 346.674 202.858 348.858 202.858 353.798C202.858 358.686 201.272 362.43 196.956 367.5H193.446ZM196.124 358.556C197.372 358.556 198.542 358.192 199.504 357.568C199.764 356.398 199.868 355.254 199.868 354.058C199.868 350.73 199.062 349.3 196.28 349.3C193.914 349.3 192.64 350.288 192.64 353.928C192.64 357.256 193.758 358.556 196.124 358.556ZM213.83 347.064H216.534V359.908H218.354V362.534H216.534V367.5H213.518V362.534H204.574V359.83L213.83 347.064ZM207.434 359.908H213.518V351.536L207.434 359.908ZM220.409 352.368V348.442C221.761 347.324 223.581 346.674 226.259 346.674C230.731 346.674 232.811 348.468 232.811 352.42C232.811 354.786 231.849 356.034 230.523 356.736C232.031 357.412 233.123 358.764 233.123 361.442C233.123 366.642 230.055 367.89 226.467 367.89C222.515 367.89 220.279 366.382 220.279 361.988V361.468H223.191V361.962C223.191 364.12 224.101 365.238 226.493 365.238C228.781 365.238 230.003 364.172 230.003 361.468C230.003 358.686 228.885 358.192 226.441 358.192H224.205V355.67H226.441C228.807 355.67 229.795 354.942 229.795 352.68C229.795 350.288 228.677 349.3 226.363 349.3C224.881 349.3 223.997 349.664 223.295 350.106V352.368H220.409ZM238.844 367.5C241.392 364.692 242.978 362.43 243.94 360.35C243.004 360.818 241.834 361.182 240.534 361.182C237.284 361.182 234.996 358.998 234.996 353.772C234.996 348.442 237.362 346.674 241.782 346.674C246.67 346.674 248.256 348.858 248.256 353.798C248.256 358.686 246.67 362.43 242.354 367.5H238.844ZM241.522 358.556C242.77 358.556 243.94 358.192 244.902 357.568C245.162 356.398 245.266 355.254 245.266 354.058C245.266 350.73 244.46 349.3 241.678 349.3C239.312 349.3 238.038 350.288 238.038 353.928C238.038 357.256 239.156 358.556 241.522 358.556Z" fill="#00A09D"/>
<path d="M113.622 377.208H124.446V379.672H116.438V384.49H124.27V386.932H116.438V394.5H113.622V377.208ZM136.591 389.198H129.045C129.155 391.97 130.013 392.63 131.795 392.63C133.423 392.63 134.259 392.058 134.259 391.156V390.914H136.613V391.222C136.613 393.686 134.655 394.808 131.707 394.808C128.121 394.808 126.603 393.136 126.603 388.648C126.603 384.182 128.099 382.378 131.773 382.378C135.601 382.378 136.679 384.314 136.679 387.746C136.679 388.274 136.635 388.868 136.591 389.198ZM131.751 384.578C130.167 384.578 129.309 385.172 129.089 387.372H134.369C134.391 387.306 134.391 387.262 134.391 387.042C134.347 385.436 133.709 384.578 131.751 384.578ZM146.975 386.756V385.282C146.601 384.952 145.897 384.688 144.687 384.688C142.707 384.688 142.003 385.37 142.003 388.582C142.003 391.816 142.707 392.52 144.643 392.52C146.183 392.52 147.063 392.058 147.063 390.826V390.54H149.417V390.958C149.417 393.752 147.459 394.808 144.533 394.808C140.903 394.808 139.407 393.18 139.407 388.604C139.407 384.028 140.903 382.378 144.555 382.378C147.503 382.378 148.801 383.456 149.417 384.204V386.756H146.975ZM152.476 377.208H155.116V384.116C155.754 383.214 157.03 382.488 158.922 382.488C161.078 382.488 162.288 383.434 162.288 386.69V394.5H159.648V386.844C159.648 385.238 159.098 384.842 157.91 384.842C156.48 384.842 155.622 385.414 155.116 386.228V394.5H152.476V377.208ZM168.647 387.68L172.321 386.932V386.668C172.321 385.106 171.507 384.6 169.923 384.6C168.647 384.6 168.075 384.908 167.745 385.172V386.426H165.435V384.204C166.293 382.95 168.053 382.378 170.187 382.378C173.025 382.378 174.785 383.39 174.785 386.272V391.816C174.785 392.366 174.939 392.432 175.423 392.432H175.775V394.5H174.323C173.135 394.5 172.541 394.17 172.365 393.29L172.233 393.4C170.979 394.302 169.945 394.742 168.427 394.742C165.941 394.742 164.907 393.4 164.907 391.398C164.907 389.198 166.161 388.186 168.647 387.68ZM169.131 392.674C169.791 392.696 170.517 392.476 171.925 391.618L172.321 391.376V388.758L169.241 389.44C168.009 389.682 167.371 390.122 167.371 391.178C167.371 392.146 167.943 392.674 169.131 392.674ZM180.945 391.882C180.945 390.496 181.561 389.814 182.925 389.814C184.267 389.814 184.905 390.496 184.905 391.882C184.905 393.29 184.267 393.994 182.925 393.994C181.561 393.994 180.945 393.29 180.945 391.882ZM180.945 383.742C180.945 382.356 181.561 381.674 182.925 381.674C184.267 381.674 184.905 382.356 184.905 383.742C184.905 385.15 184.267 385.854 182.925 385.854C181.561 385.854 180.945 385.15 180.945 383.742Z" fill="#373737"/>
<path d="M191.194 380.684H192.184C194.296 380.684 195.066 379.738 195.066 377.846V377.208H197.42V392.278H200.83V394.5H191.018V392.278H194.758V382.224C194.098 382.62 193.306 382.796 192.404 382.796H191.194V380.684ZM203.031 389.638C203.031 387.438 203.999 386.096 205.473 385.436C204.109 384.732 203.295 383.434 203.295 381.63C203.295 378.528 205.693 376.878 208.707 376.878C211.699 376.878 214.097 378.528 214.097 381.63C214.097 383.434 213.283 384.732 211.919 385.436C213.371 386.118 214.361 387.438 214.361 389.638C214.361 393.334 211.567 394.83 208.707 394.83C205.847 394.83 203.031 393.334 203.031 389.638ZM208.707 386.624C207.013 386.624 205.627 387.328 205.627 389.484C205.627 391.684 207.079 392.586 208.707 392.586C210.313 392.586 211.787 391.684 211.787 389.484C211.787 387.328 210.379 386.624 208.707 386.624ZM208.707 379.1C207.057 379.1 205.781 379.892 205.781 381.828C205.781 383.676 206.969 384.512 208.707 384.512C210.423 384.512 211.611 383.676 211.611 381.828C211.611 379.892 210.335 379.1 208.707 379.1ZM225.471 374.392H227.913L217.551 397.69H215.109L225.471 374.392ZM234.184 376.878C238.452 376.878 239.53 381.96 239.53 385.854C239.53 389.836 238.386 394.83 234.228 394.83C229.85 394.83 228.838 389.286 228.838 385.656C228.838 382.004 229.894 376.878 234.184 376.878ZM234.184 379.012C232.226 379.012 231.588 381.762 231.588 385.81C231.588 389.814 232.226 392.718 234.206 392.718C236.076 392.718 236.78 390.012 236.78 385.876C236.78 381.762 236.098 379.012 234.184 379.012ZM249.123 377.208H251.411V388.076H252.951V390.298H251.411V394.5H248.859V390.298H241.291V388.01L249.123 377.208ZM243.711 388.076H248.859V380.992L243.711 388.076ZM263.885 374.392H266.327L255.965 397.69H253.523L263.885 374.392ZM267.494 381.696V378.396C268.748 377.23 270.706 376.878 272.51 376.878C275.722 376.878 278.054 378.044 278.054 382.158C278.054 385.238 276.14 387.966 270.882 392.278H278.296V394.5H267.582V392.344C273.61 387.636 275.414 384.952 275.414 382.048C275.414 379.804 274.226 379.1 272.532 379.1C271.432 379.1 270.662 379.342 269.936 379.782V381.696H267.494ZM280.299 381.696V378.396C281.553 377.23 283.511 376.878 285.315 376.878C288.527 376.878 290.859 378.044 290.859 382.158C290.859 385.238 288.945 387.966 283.687 392.278H291.101V394.5H280.387V392.344C286.415 387.636 288.219 384.952 288.219 382.048C288.219 379.804 287.031 379.1 285.337 379.1C284.237 379.1 283.467 379.342 282.741 379.782V381.696H280.299Z" fill="#373737"/>
<path d="M113.204 404.708H124.578V407.172H120.31V422H117.494V407.172H113.204V404.708ZM127.923 410.186H133.423V419.954H136.591V422H127.571V419.954H130.761V412.254H127.923V410.186ZM130.167 406.622C130.167 405.346 130.761 404.708 132.015 404.708C133.247 404.708 133.841 405.346 133.841 406.622C133.841 407.898 133.247 408.558 132.015 408.558C130.761 408.558 130.167 407.898 130.167 406.622ZM142.311 413.728V418.612C142.861 419.47 143.675 419.998 144.929 419.998C146.095 419.998 147.129 419.514 147.129 416.126C147.129 412.716 146.095 412.342 144.995 412.342C143.675 412.342 142.861 412.848 142.311 413.728ZM139.671 410.186H142.157V411.638C142.927 410.494 144.357 409.988 145.985 409.988C148.141 409.988 149.747 410.912 149.747 416.104C149.747 421.274 148.141 422.242 145.985 422.242C144.181 422.242 142.641 421.56 142.399 420.702L142.311 426.488H139.671V410.186ZM157.338 409.878C160.968 409.878 162.442 411.55 162.442 416.104C162.442 420.68 160.968 422.308 157.338 422.308C153.708 422.308 152.212 420.68 152.212 416.104C152.212 411.55 153.708 409.878 157.338 409.878ZM157.338 412.188C155.512 412.188 154.808 412.936 154.808 416.104C154.808 419.294 155.512 420.02 157.338 420.02C159.164 420.02 159.868 419.294 159.868 416.104C159.868 412.936 159.164 412.188 157.338 412.188ZM168.141 419.382C168.141 417.996 168.757 417.314 170.121 417.314C171.463 417.314 172.101 417.996 172.101 419.382C172.101 420.79 171.463 421.494 170.121 421.494C168.757 421.494 168.141 420.79 168.141 419.382ZM168.141 411.242C168.141 409.856 168.757 409.174 170.121 409.174C171.463 409.174 172.101 409.856 172.101 411.242C172.101 412.65 171.463 413.354 170.121 413.354C168.757 413.354 168.141 412.65 168.141 411.242Z" fill="#373737"/>
<path d="M178.072 404.708H180.426L183.902 411.99L187.334 404.708H189.732V422H187.224V409.328L184.386 415.796H183.44L180.58 409.328V422H178.072V404.708ZM201.965 405.874V409.482H199.369V407.392C198.885 407.084 198.027 406.864 196.905 406.864C194.661 406.864 193.979 407.766 193.979 413.332C193.979 418.854 194.661 419.866 196.795 419.866C198.599 419.866 199.435 419.118 199.435 417.314V416.896H201.921V417.336C201.921 421.076 200.051 422.33 196.641 422.33C192.571 422.33 191.207 420.526 191.207 413.332C191.207 406.05 192.593 404.378 196.861 404.378C199.545 404.378 201.107 405.038 201.965 405.874Z" fill="#373737"/>
<path d="M305.826 347.064H312.04C317.448 347.064 318.852 348.468 318.852 353.2C318.852 357.022 317.942 358.478 314.744 358.92L319.372 367.5H315.758L311.286 359.05H309.154V367.5H305.826V347.064ZM309.154 349.846V356.606H312.326C314.9 356.606 315.576 356.138 315.576 353.278C315.576 350.444 314.926 349.846 312.326 349.846H309.154ZM332.971 361.234H324.053C324.183 364.51 325.197 365.29 327.303 365.29C329.227 365.29 330.215 364.614 330.215 363.548V363.262H332.997V363.626C332.997 366.538 330.683 367.864 327.199 367.864C322.961 367.864 321.167 365.888 321.167 360.584C321.167 355.306 322.935 353.174 327.277 353.174C331.801 353.174 333.075 355.462 333.075 359.518C333.075 360.142 333.023 360.844 332.971 361.234ZM327.251 355.774C325.379 355.774 324.365 356.476 324.105 359.076H330.345C330.371 358.998 330.371 358.946 330.371 358.686C330.319 356.788 329.565 355.774 327.251 355.774ZM340.668 351.406V354.292H347.792V356.71H340.668V367.5H337.522V356.71H335.338V354.292H337.522V351.406C337.522 348.156 339.082 346.7 343.138 346.7C346.648 346.7 348.052 347.792 348.598 348.546V351.64H345.816V349.768C345.426 349.508 344.672 349.222 343.346 349.222C341.344 349.222 340.668 349.898 340.668 351.406ZM355.124 364.406C355.124 362.768 355.852 361.962 357.464 361.962C359.05 361.962 359.804 362.768 359.804 364.406C359.804 366.07 359.05 366.902 357.464 366.902C355.852 366.902 355.124 366.07 355.124 364.406ZM355.124 354.786C355.124 353.148 355.852 352.342 357.464 352.342C359.05 352.342 359.804 353.148 359.804 354.786C359.804 356.45 359.05 357.282 357.464 357.282C355.852 357.282 355.124 356.45 355.124 354.786Z" fill="#00A09D"/>
<path d="M372.91 346.674C377.954 346.674 379.228 352.68 379.228 357.282C379.228 361.988 377.876 367.89 372.962 367.89C367.788 367.89 366.592 361.338 366.592 357.048C366.592 352.732 367.84 346.674 372.91 346.674ZM372.91 349.196C370.596 349.196 369.842 352.446 369.842 357.23C369.842 361.962 370.596 365.394 372.936 365.394C375.146 365.394 375.978 362.196 375.978 357.308C375.978 352.446 375.172 349.196 372.91 349.196ZM388.043 346.674C393.087 346.674 394.361 352.68 394.361 357.282C394.361 361.988 393.009 367.89 388.095 367.89C382.921 367.89 381.725 361.338 381.725 357.048C381.725 352.732 382.973 346.674 388.043 346.674ZM388.043 349.196C385.729 349.196 384.975 352.446 384.975 357.23C384.975 361.962 385.729 365.394 388.069 365.394C390.279 365.394 391.111 362.196 391.111 357.308C391.111 352.446 390.305 349.196 388.043 349.196ZM403.176 346.674C408.22 346.674 409.494 352.68 409.494 357.282C409.494 361.988 408.142 367.89 403.228 367.89C398.054 367.89 396.858 361.338 396.858 357.048C396.858 352.732 398.106 346.674 403.176 346.674ZM403.176 349.196C400.862 349.196 400.108 352.446 400.108 357.23C400.108 361.962 400.862 365.394 403.202 365.394C405.412 365.394 406.244 362.196 406.244 357.308C406.244 352.446 405.438 349.196 403.176 349.196ZM420.83 347.064H423.534V359.908H425.354V362.534H423.534V367.5H420.518V362.534H411.574V359.83L420.83 347.064ZM414.434 359.908H420.518V351.536L414.434 359.908Z" fill="#00A09D"/>
<path d="M305.622 376.708H308.438V383.77H313.366V376.708H316.16V394H313.366V386.168H308.438V394H305.622V376.708ZM323.729 381.878C327.359 381.878 328.833 383.55 328.833 388.104C328.833 392.68 327.359 394.308 323.729 394.308C320.099 394.308 318.603 392.68 318.603 388.104C318.603 383.55 320.099 381.878 323.729 381.878ZM323.729 384.188C321.903 384.188 321.199 384.936 321.199 388.104C321.199 391.294 321.903 392.02 323.729 392.02C325.555 392.02 326.259 391.294 326.259 388.104C326.259 384.936 325.555 384.188 323.729 384.188ZM331.671 382.186H334.157V384.342C335.433 382.934 336.929 381.988 338.777 381.988C340.449 381.988 341.703 382.802 341.989 383.704V386.41H339.547V384.738C339.327 384.474 338.689 384.232 337.897 384.232C336.665 384.232 335.433 384.914 334.311 386.102V394H331.671V382.186ZM347.842 387.18L351.516 386.432V386.168C351.516 384.606 350.702 384.1 349.118 384.1C347.842 384.1 347.27 384.408 346.94 384.672V385.926H344.63V383.704C345.488 382.45 347.248 381.878 349.382 381.878C352.22 381.878 353.98 382.89 353.98 385.772V391.316C353.98 391.866 354.134 391.932 354.618 391.932H354.97V394H353.518C352.33 394 351.736 393.67 351.56 392.79L351.428 392.9C350.174 393.802 349.14 394.242 347.622 394.242C345.136 394.242 344.102 392.9 344.102 390.898C344.102 388.698 345.356 387.686 347.842 387.18ZM348.326 392.174C348.986 392.196 349.712 391.976 351.12 391.118L351.516 390.876V388.258L348.436 388.94C347.204 389.182 346.566 389.622 346.566 390.678C346.566 391.646 347.138 392.174 348.326 392.174ZM360.141 391.382C360.141 389.996 360.757 389.314 362.121 389.314C363.463 389.314 364.101 389.996 364.101 391.382C364.101 392.79 363.463 393.494 362.121 393.494C360.757 393.494 360.141 392.79 360.141 391.382ZM360.141 383.242C360.141 381.856 360.757 381.174 362.121 381.174C363.463 381.174 364.101 381.856 364.101 383.242C364.101 384.65 363.463 385.354 362.121 385.354C360.757 385.354 360.141 384.65 360.141 383.242Z" fill="#373737"/>
<path d="M371.194 380.184H372.184C374.296 380.184 375.066 379.238 375.066 377.346V376.708H377.42V391.778H380.83V394H371.018V391.778H374.758V381.724C374.098 382.12 373.306 382.296 372.404 382.296H371.194V380.184ZM383.471 381.196V377.896C384.725 376.73 386.683 376.378 388.487 376.378C391.699 376.378 394.031 377.544 394.031 381.658C394.031 384.738 392.117 387.466 386.859 391.778H394.273V394H383.559V391.844C389.587 387.136 391.391 384.452 391.391 381.548C391.391 379.304 390.203 378.6 388.509 378.6C387.409 378.6 386.639 378.842 385.913 379.282V381.196H383.471ZM399.531 391.382C399.531 389.996 400.147 389.314 401.511 389.314C402.853 389.314 403.491 389.996 403.491 391.382C403.491 392.79 402.853 393.494 401.511 393.494C400.147 393.494 399.531 392.79 399.531 391.382ZM399.531 383.242C399.531 381.856 400.147 381.174 401.511 381.174C402.853 381.174 403.491 381.856 403.491 383.242C403.491 384.65 402.853 385.354 401.511 385.354C400.147 385.354 399.531 384.65 399.531 383.242ZM409.08 381.196V377.874C410.224 376.928 411.764 376.378 414.03 376.378C417.814 376.378 419.574 377.896 419.574 381.24C419.574 383.242 418.76 384.298 417.638 384.892C418.914 385.464 419.838 386.608 419.838 388.874C419.838 393.274 417.242 394.33 414.206 394.33C410.862 394.33 408.97 393.054 408.97 389.336V388.896H411.434V389.314C411.434 391.14 412.204 392.086 414.228 392.086C416.164 392.086 417.198 391.184 417.198 388.896C417.198 386.542 416.252 386.124 414.184 386.124H412.292V383.99H414.184C416.186 383.99 417.022 383.374 417.022 381.46C417.022 379.436 416.076 378.6 414.118 378.6C412.864 378.6 412.116 378.908 411.522 379.282V381.196H409.08ZM426.989 376.378C431.257 376.378 432.335 381.46 432.335 385.354C432.335 389.336 431.191 394.33 427.033 394.33C422.655 394.33 421.643 388.786 421.643 385.156C421.643 381.504 422.699 376.378 426.989 376.378ZM426.989 378.512C425.031 378.512 424.393 381.262 424.393 385.31C424.393 389.314 425.031 392.218 427.011 392.218C428.881 392.218 429.585 389.512 429.585 385.376C429.585 381.262 428.903 378.512 426.989 378.512Z" fill="#373737"/>
<path d="M305.622 403.708H311.276C314.84 403.708 316.16 404.874 316.16 407.954C316.16 410 315.566 411.232 314.686 411.892C315.83 412.53 316.644 413.828 316.644 416.358C316.644 419.746 315.214 421 311.54 421H305.622V403.708ZM308.438 413.08V418.646H311.188C313.212 418.646 313.872 418.074 313.872 415.83C313.872 413.41 313.036 413.08 311.188 413.08H308.438ZM308.438 406.062V411.056H311.232C312.97 411.056 313.608 410.66 313.608 408.57C313.608 406.568 313.014 406.062 311.122 406.062H308.438ZM319.923 409.186H325.423V418.954H328.591V421H319.571V418.954H322.761V411.254H319.923V409.186ZM322.167 405.622C322.167 404.346 322.761 403.708 324.015 403.708C325.247 403.708 325.841 404.346 325.841 405.622C325.841 406.898 325.247 407.558 324.015 407.558C322.761 407.558 322.167 406.898 322.167 405.622ZM332.727 403.708H338.337V418.954H341.395V421H332.375V418.954H335.675V405.754H332.727V403.708ZM345.532 403.708H351.142V418.954H354.2V421H345.18V418.954H348.48V405.754H345.532V403.708ZM367.005 415.698H359.459C359.569 418.47 360.427 419.13 362.209 419.13C363.837 419.13 364.673 418.558 364.673 417.656V417.414H367.027V417.722C367.027 420.186 365.069 421.308 362.121 421.308C358.535 421.308 357.017 419.636 357.017 415.148C357.017 410.682 358.513 408.878 362.187 408.878C366.015 408.878 367.093 410.814 367.093 414.246C367.093 414.774 367.049 415.368 367.005 415.698ZM362.165 411.078C360.581 411.078 359.723 411.672 359.503 413.872H364.783C364.805 413.806 364.805 413.762 364.805 413.542C364.761 411.936 364.123 411.078 362.165 411.078ZM369.007 409.824H370.855V406.524H373.517V409.824H379.545V411.87H373.517V417.392C373.517 418.646 374.089 419.174 375.783 419.174C377.631 419.174 377.961 418.58 377.961 417.436V417.106H380.205V417.37C380.205 419.856 379.633 421.308 375.607 421.308C372.175 421.308 370.855 420.076 370.855 417.326V411.87H369.007V409.824ZM392.614 415.698H385.068C385.178 418.47 386.036 419.13 387.818 419.13C389.446 419.13 390.282 418.558 390.282 417.656V417.414H392.636V417.722C392.636 420.186 390.678 421.308 387.73 421.308C384.144 421.308 382.626 419.636 382.626 415.148C382.626 410.682 384.122 408.878 387.796 408.878C391.624 408.878 392.702 410.814 392.702 414.246C392.702 414.774 392.658 415.368 392.614 415.698ZM387.774 411.078C386.19 411.078 385.332 411.672 385.112 413.872H390.392C390.414 413.806 390.414 413.762 390.414 413.542C390.37 411.936 389.732 411.078 387.774 411.078ZM395.695 409.186H398.181V411.342C399.457 409.934 400.953 408.988 402.801 408.988C404.473 408.988 405.727 409.802 406.013 410.704V413.41H403.571V411.738C403.351 411.474 402.713 411.232 401.921 411.232C400.689 411.232 399.457 411.914 398.335 413.102V421H395.695V409.186ZM411.866 414.18L415.54 413.432V413.168C415.54 411.606 414.726 411.1 413.142 411.1C411.866 411.1 411.294 411.408 410.964 411.672V412.926H408.654V410.704C409.512 409.45 411.272 408.878 413.405 408.878C416.244 408.878 418.004 409.89 418.004 412.772V418.316C418.004 418.866 418.158 418.932 418.642 418.932H418.994V421H417.542C416.354 421 415.76 420.67 415.584 419.79L415.452 419.9C414.198 420.802 413.164 421.242 411.646 421.242C409.16 421.242 408.126 419.9 408.126 417.898C408.126 415.698 409.38 414.686 411.866 414.18ZM412.35 419.174C413.01 419.196 413.736 418.976 415.144 418.118L415.54 417.876V415.258L412.46 415.94C411.228 416.182 410.59 416.622 410.59 417.678C410.59 418.646 411.162 419.174 412.35 419.174ZM424.164 418.382C424.164 416.996 424.78 416.314 426.144 416.314C427.486 416.314 428.124 416.996 428.124 418.382C428.124 419.79 427.486 420.494 426.144 420.494C424.78 420.494 424.164 419.79 424.164 418.382ZM424.164 410.242C424.164 408.856 424.78 408.174 426.144 408.174C427.486 408.174 428.124 408.856 428.124 410.242C428.124 411.65 427.486 412.354 426.144 412.354C424.78 412.354 424.164 411.65 424.164 410.242Z" fill="#373737"/>
<path d="M457.112 348.064H460.44V365.588H469.462V368.5H457.112V348.064ZM478.225 354.174C482.515 354.174 484.257 356.15 484.257 361.532C484.257 366.94 482.515 368.864 478.225 368.864C473.935 368.864 472.167 366.94 472.167 361.532C472.167 356.15 473.935 354.174 478.225 354.174ZM478.225 356.904C476.067 356.904 475.235 357.788 475.235 361.532C475.235 365.302 476.067 366.16 478.225 366.16C480.383 366.16 481.215 365.302 481.215 361.532C481.215 357.788 480.383 356.904 478.225 356.904ZM486.338 355.292H488.522V351.392H491.668V355.292H498.792V357.71H491.668V364.236C491.668 365.718 492.344 366.342 494.346 366.342C496.53 366.342 496.92 365.64 496.92 364.288V363.898H499.572V364.21C499.572 367.148 498.896 368.864 494.138 368.864C490.082 368.864 488.522 367.408 488.522 364.158V357.71H486.338V355.292ZM514.236 362.234H505.318C505.448 365.51 506.462 366.29 508.568 366.29C510.492 366.29 511.48 365.614 511.48 364.548V364.262H514.262V364.626C514.262 367.538 511.948 368.864 508.464 368.864C504.226 368.864 502.432 366.888 502.432 361.584C502.432 356.306 504.2 354.174 508.542 354.174C513.066 354.174 514.34 356.462 514.34 360.518C514.34 361.142 514.288 361.844 514.236 362.234ZM508.516 356.774C506.644 356.774 505.63 357.476 505.37 360.076H511.61C511.636 359.998 511.636 359.946 511.636 359.686C511.584 357.788 510.83 356.774 508.516 356.774ZM521.257 365.406C521.257 363.768 521.985 362.962 523.597 362.962C525.183 362.962 525.937 363.768 525.937 365.406C525.937 367.07 525.183 367.902 523.597 367.902C521.985 367.902 521.257 367.07 521.257 365.406ZM521.257 355.786C521.257 354.148 521.985 353.342 523.597 353.342C525.183 353.342 525.937 354.148 525.937 355.786C525.937 357.45 525.183 358.282 523.597 358.282C521.985 358.282 521.257 357.45 521.257 355.786Z" fill="#00A09D"/>
<path d="M538.91 347.674C543.954 347.674 545.228 353.68 545.228 358.282C545.228 362.988 543.876 368.89 538.962 368.89C533.788 368.89 532.592 362.338 532.592 358.048C532.592 353.732 533.84 347.674 538.91 347.674ZM538.91 350.196C536.596 350.196 535.842 353.446 535.842 358.23C535.842 362.962 536.596 366.394 538.936 366.394C541.146 366.394 541.978 363.196 541.978 358.308C541.978 353.446 541.172 350.196 538.91 350.196ZM554.043 347.674C559.087 347.674 560.361 353.68 560.361 358.282C560.361 362.988 559.009 368.89 554.095 368.89C548.921 368.89 547.725 362.338 547.725 358.048C547.725 353.732 548.973 347.674 554.043 347.674ZM554.043 350.196C551.729 350.196 550.975 353.446 550.975 358.23C550.975 362.962 551.729 366.394 554.069 366.394C556.279 366.394 557.111 363.196 557.111 358.308C557.111 353.446 556.305 350.196 554.043 350.196ZM569.176 347.674C574.22 347.674 575.494 353.68 575.494 358.282C575.494 362.988 574.142 368.89 569.228 368.89C564.054 368.89 562.858 362.338 562.858 358.048C562.858 353.732 564.106 347.674 569.176 347.674ZM569.176 350.196C566.862 350.196 566.108 353.446 566.108 358.23C566.108 362.962 566.862 366.394 569.202 366.394C571.412 366.394 572.244 363.196 572.244 358.308C572.244 353.446 571.438 350.196 569.176 350.196ZM578.9 352.172H580.07C582.566 352.172 583.476 351.054 583.476 348.818V348.064H586.258V365.874H590.288V368.5H578.692V365.874H583.112V353.992C582.332 354.46 581.396 354.668 580.33 354.668H578.9V352.172Z" fill="#00A09D"/>
<path d="M456.204 375.208H467.578V377.672H463.31V392.5H460.494V377.672H456.204V375.208ZM479.591 387.198H472.045C472.155 389.97 473.013 390.63 474.795 390.63C476.423 390.63 477.259 390.058 477.259 389.156V388.914H479.613V389.222C479.613 391.686 477.655 392.808 474.707 392.808C471.121 392.808 469.603 391.136 469.603 386.648C469.603 382.182 471.099 380.378 474.773 380.378C478.601 380.378 479.679 382.314 479.679 385.746C479.679 386.274 479.635 386.868 479.591 387.198ZM474.751 382.578C473.167 382.578 472.309 383.172 472.089 385.372H477.369C477.391 385.306 477.391 385.262 477.391 385.042C477.347 383.436 476.709 382.578 474.751 382.578ZM482.671 380.686H485.157V382.842C486.433 381.434 487.929 380.488 489.777 380.488C491.449 380.488 492.703 381.302 492.989 382.204V384.91H490.547V383.238C490.327 382.974 489.689 382.732 488.897 382.732C487.665 382.732 486.433 383.414 485.311 384.602V392.5H482.671V380.686ZM494.244 380.686H496.4V381.83C496.928 381.082 497.676 380.488 498.886 380.488C500.008 380.488 500.8 381.016 501.13 381.962C501.966 380.95 502.78 380.488 503.946 380.488C505.508 380.488 506.41 381.28 506.41 383.216V392.5H504.1V383.92C504.1 383.194 503.814 382.842 503.022 382.842C502.428 382.842 501.9 383.04 501.328 383.744V392.5H499.304V383.92C499.304 383.216 498.996 382.842 498.248 382.842C497.456 382.842 496.906 383.282 496.51 384.052V392.5H494.244V380.686ZM511.141 389.882C511.141 388.496 511.757 387.814 513.121 387.814C514.463 387.814 515.101 388.496 515.101 389.882C515.101 391.29 514.463 391.994 513.121 391.994C511.757 391.994 511.141 391.29 511.141 389.882ZM511.141 381.742C511.141 380.356 511.757 379.674 513.121 379.674C514.463 379.674 515.101 380.356 515.101 381.742C515.101 383.15 514.463 383.854 513.121 383.854C511.757 383.854 511.141 383.15 511.141 381.742Z" fill="#373737"/>
<path d="M525.604 375.208H528.332L532.842 392.5H530.092L529.388 389.486H524.306L523.536 392.5H520.94L525.604 375.208ZM526.946 379.102L524.856 387.264H528.86L526.946 379.102ZM538.409 375.208H541.137L545.647 392.5H542.897L542.193 389.486H537.111L536.341 392.5H533.745L538.409 375.208ZM539.751 379.102L537.661 387.264H541.665L539.751 379.102ZM552.379 374.878C556.647 374.878 557.725 379.96 557.725 383.854C557.725 387.836 556.581 392.83 552.423 392.83C548.045 392.83 547.033 387.286 547.033 383.656C547.033 380.004 548.089 374.878 552.379 374.878ZM552.379 377.012C550.421 377.012 549.783 379.762 549.783 383.81C549.783 387.814 550.421 390.718 552.401 390.718C554.271 390.718 554.975 388.012 554.975 383.876C554.975 379.762 554.293 377.012 552.379 377.012ZM560.08 379.696V376.374C561.224 375.428 562.764 374.878 565.03 374.878C568.814 374.878 570.574 376.396 570.574 379.74C570.574 381.742 569.76 382.798 568.638 383.392C569.914 383.964 570.838 385.108 570.838 387.374C570.838 391.774 568.242 392.83 565.206 392.83C561.862 392.83 559.97 391.554 559.97 387.836V387.396H562.434V387.814C562.434 389.64 563.204 390.586 565.228 390.586C567.164 390.586 568.198 389.684 568.198 387.396C568.198 385.042 567.252 384.624 565.184 384.624H563.292V382.49H565.184C567.186 382.49 568.022 381.874 568.022 379.96C568.022 377.936 567.076 377.1 565.118 377.1C563.864 377.1 563.116 377.408 562.522 377.782V379.696H560.08ZM580.937 379.696V377.694C580.607 377.364 579.683 377.1 578.737 377.1C576.471 377.1 575.591 378.926 575.415 382.094C576.493 381.5 577.703 381.214 578.913 381.214C582.367 381.214 583.687 383.216 583.687 386.758C583.687 391.73 581.069 392.83 578.143 392.83C574.535 392.83 572.775 391.18 572.775 384.316C572.775 377.782 574.381 374.878 578.737 374.878C580.739 374.878 582.521 375.494 583.379 376.374V379.696H580.937ZM578.473 383.26C577.461 383.26 576.405 383.568 575.393 384.14C575.437 389.31 576.273 390.586 578.275 390.586C579.969 390.586 581.135 389.618 581.135 386.802C581.135 384.58 580.431 383.26 578.473 383.26ZM588.483 392.5C590.639 390.124 591.981 388.21 592.795 386.45C592.003 386.846 591.013 387.154 589.913 387.154C587.163 387.154 585.227 385.306 585.227 380.884C585.227 376.374 587.229 374.878 590.969 374.878C595.105 374.878 596.447 376.726 596.447 380.906C596.447 385.042 595.105 388.21 591.453 392.5H588.483ZM590.749 384.932C591.805 384.932 592.795 384.624 593.609 384.096C593.829 383.106 593.917 382.138 593.917 381.126C593.917 378.31 593.235 377.1 590.881 377.1C588.879 377.1 587.801 377.936 587.801 381.016C587.801 383.832 588.747 384.932 590.749 384.932ZM601.288 392.5C603.444 390.124 604.786 388.21 605.6 386.45C604.808 386.846 603.818 387.154 602.718 387.154C599.968 387.154 598.032 385.306 598.032 380.884C598.032 376.374 600.034 374.878 603.774 374.878C607.91 374.878 609.252 376.726 609.252 380.906C609.252 385.042 607.91 388.21 604.258 392.5H601.288ZM603.554 384.932C604.61 384.932 605.6 384.624 606.414 384.096C606.634 383.106 606.722 382.138 606.722 381.126C606.722 378.31 606.04 377.1 603.686 377.1C601.684 377.1 600.606 377.936 600.606 381.016C600.606 383.832 601.552 384.932 603.554 384.932ZM612.839 375.208H621.507V377.43H614.951L614.379 380.928C615.193 380.532 616.117 380.312 617.151 380.312C620.275 380.312 622.013 382.116 622.013 386.45C622.013 391.356 619.769 392.83 616.315 392.83C613.037 392.83 611.145 391.51 611.145 387.836V387.396H613.587V387.814C613.587 389.618 614.467 390.586 616.359 390.586C618.339 390.586 619.351 389.552 619.351 386.472C619.351 383.392 618.471 382.578 616.557 382.578C615.215 382.578 614.379 383.062 613.543 384.008L611.519 383.59L612.839 375.208Z" fill="#373737"/>
<path d="M456.622 402.208H461.748C466.192 402.208 467.358 404.98 467.358 410.876C467.358 416.772 466.192 419.5 461.748 419.5H456.622V402.208ZM459.35 404.672V417.036H461.748C464.014 417.036 464.586 415.254 464.586 410.876C464.586 406.498 464.014 404.672 461.748 404.672H459.35ZM470.923 407.686H476.423V417.454H479.591V419.5H470.571V417.454H473.761V409.754H470.923V407.686ZM473.167 404.122C473.167 402.846 473.761 402.208 475.015 402.208C476.247 402.208 476.841 402.846 476.841 404.122C476.841 405.398 476.247 406.058 475.015 406.058C473.761 406.058 473.167 405.398 473.167 404.122ZM482.671 407.686H485.157V409.27C485.927 408.192 487.225 407.488 489.117 407.488C491.273 407.488 492.483 408.434 492.483 411.69V419.5H489.843V411.844C489.843 410.238 489.293 409.842 488.105 409.842C486.675 409.842 485.817 410.414 485.311 411.228V419.5H482.671V407.686ZM505.2 414.198H497.654C497.764 416.97 498.622 417.63 500.404 417.63C502.032 417.63 502.868 417.058 502.868 416.156V415.914H505.222V416.222C505.222 418.686 503.264 419.808 500.316 419.808C496.73 419.808 495.212 418.136 495.212 413.648C495.212 409.182 496.708 407.378 500.382 407.378C504.21 407.378 505.288 409.314 505.288 412.746C505.288 413.274 505.244 413.868 505.2 414.198ZM500.36 409.578C498.776 409.578 497.918 410.172 497.698 412.372H502.978C503 412.306 503 412.262 503 412.042C502.956 410.436 502.318 409.578 500.36 409.578ZM508.281 407.686H510.767V409.842C512.043 408.434 513.539 407.488 515.387 407.488C517.059 407.488 518.313 408.302 518.599 409.204V411.91H516.157V410.238C515.937 409.974 515.299 409.732 514.507 409.732C513.275 409.732 512.043 410.414 510.921 411.602V419.5H508.281V407.686ZM520.777 415.76H523.087V416.002C523.087 417.08 523.703 417.74 525.639 417.74C527.597 417.74 528.477 417.036 528.477 415.848C528.477 412.966 520.821 415.584 520.821 410.854C520.821 408.192 523.175 407.378 525.815 407.378C527.619 407.378 529.159 407.73 530.457 408.676V411.052H528.191V409.798C527.443 409.446 526.673 409.314 525.771 409.314C524.297 409.314 523.219 409.71 523.219 410.744C523.219 412.592 526.761 411.998 528.939 412.812C530.325 413.34 530.919 414.264 530.919 415.782C530.919 418.466 529.005 419.808 525.551 419.808C521.745 419.808 520.777 418.202 520.777 416.046V415.76ZM543.988 403.374V406.982H541.392V404.892C540.908 404.584 540.05 404.364 538.928 404.364C536.684 404.364 536.002 405.266 536.002 410.832C536.002 416.354 536.684 417.366 538.818 417.366C540.622 417.366 541.458 416.618 541.458 414.814V414.396H543.944V414.836C543.944 418.576 542.074 419.83 538.664 419.83C534.594 419.83 533.23 418.026 533.23 410.832C533.23 403.55 534.616 401.878 538.884 401.878C541.568 401.878 543.13 402.538 543.988 403.374ZM547.751 402.208H553.361V417.454H556.419V419.5H547.399V417.454H550.699V404.254H547.751V402.208ZM559.368 407.686H562.008V415.342C562.008 416.948 562.558 417.344 563.745 417.344C565.176 417.344 566.034 416.772 566.54 415.98V407.686H569.18V419.5H566.694V417.938C565.924 418.994 564.648 419.72 562.734 419.72C560.578 419.72 559.368 418.752 559.368 415.496V407.686ZM572.304 402.208H574.944V408.984C575.582 408.082 576.924 407.488 578.574 407.488C580.774 407.488 582.38 408.412 582.38 413.604C582.38 418.796 580.774 419.742 578.64 419.742C576.946 419.742 575.054 418.73 574.79 418.268V419.5H572.304V402.208ZM574.944 411.096V416.002C575.56 416.86 576.506 417.366 577.628 417.366C578.728 417.366 579.762 416.992 579.762 413.582C579.762 410.194 578.728 409.732 577.584 409.732C576.528 409.732 575.582 410.238 574.944 411.096Z" fill="#373737"/>
<rect width="721" height="65" transform="translate(-1 449)" fill="#E6F6F5"/>
<path d="M173.832 470.564H187.274V474.022H182.542V491H178.59V474.022H173.832V470.564ZM195.465 476.336C199.755 476.336 201.497 478.364 201.497 483.876C201.497 489.388 199.755 491.39 195.465 491.39C191.175 491.39 189.407 489.388 189.407 483.876C189.407 478.364 191.175 476.336 195.465 476.336ZM195.465 479.56C193.723 479.56 193.073 480.236 193.073 483.876C193.073 487.516 193.723 488.218 195.465 488.218C197.207 488.218 197.857 487.516 197.857 483.876C197.857 480.236 197.207 479.56 195.465 479.56ZM203.344 477.688H205.502V473.684H209.246V477.688H215.772V480.496H209.246V486.684C209.246 487.906 209.766 488.426 211.378 488.426C213.068 488.426 213.432 487.88 213.432 486.736V486.294H216.552V486.606C216.552 489.622 215.876 491.39 211.118 491.39C207.062 491.39 205.502 489.882 205.502 486.554V480.496H203.344V477.688ZM223.364 482.758L227.238 481.926V481.666C227.238 479.95 226.484 479.43 224.898 479.43C223.728 479.43 223.182 479.69 222.87 479.924V481.224H219.646V478.572C220.66 477.038 222.74 476.336 225.262 476.336C228.616 476.336 230.696 477.558 230.696 481.042V487.412C230.696 488.088 230.878 488.166 231.476 488.166H231.892V491H229.786C228.33 491 227.602 490.688 227.342 489.726L227.108 489.934C225.886 490.844 224.768 491.286 223.13 491.286C220.166 491.286 219.022 489.648 219.022 487.23C219.022 484.604 220.426 483.382 223.364 482.758ZM224.144 488.452C224.742 488.452 225.418 488.348 226.614 487.594L227.238 487.204V484.422L224.248 485.124C223.104 485.358 222.48 485.8 222.48 486.918C222.48 487.906 223 488.452 224.144 488.452ZM235.585 470.564H242.501V488.192H245.829V491H235.169V488.192H238.783V473.372H235.585V470.564ZM252.278 487.698C252.278 485.93 253.11 485.046 254.93 485.046C256.724 485.046 257.582 485.93 257.582 487.698C257.582 489.518 256.724 490.428 254.93 490.428C253.11 490.428 252.278 489.518 252.278 487.698ZM252.278 478.078C252.278 476.31 253.11 475.426 254.93 475.426C256.724 475.426 257.582 476.31 257.582 478.078C257.582 479.898 256.724 480.808 254.93 480.808C253.11 480.808 252.278 479.898 252.278 478.078Z" fill="#373737"/>
<path d="M389.523 475.868V474.178C388.717 473.762 387.937 473.606 387.053 473.606C385.285 473.606 384.219 474.386 384.219 475.738C384.219 478.442 387.781 478.078 390.823 479.534C392.903 480.522 393.761 482.056 393.761 484.578C393.761 489.076 391.291 491.39 386.663 491.39C381.593 491.39 380.319 488.608 380.319 485.28V484.968H384.037V485.28C384.037 486.554 384.531 487.906 386.819 487.906C389.133 487.906 389.835 486.45 389.835 484.682C389.835 483.668 389.549 483.018 388.353 482.55C385.727 481.354 380.371 481.354 380.371 476.024C380.371 471.604 383.517 470.174 387.339 470.174C389.523 470.174 391.707 470.616 393.163 471.968V475.868H389.523ZM406.398 467.236H409.804L398.078 494.77H394.672L406.398 467.236ZM426.316 475.868V471.968C427.772 470.564 430.19 470.174 432.244 470.174C436.066 470.174 438.796 471.552 438.796 476.492C438.796 479.664 436.872 482.81 430.944 487.906H439.082V491H426.42V488.036C433.232 482.446 435.078 479.43 435.078 476.284C435.078 473.996 433.96 473.268 432.27 473.268C431.204 473.268 430.45 473.502 429.748 473.918V475.868H426.316ZM445.738 494.822C446.414 493.574 447.012 492.248 447.35 490.948C445.998 490.948 444.984 489.856 444.984 488.218C444.984 486.762 445.816 485.878 447.636 485.878C449.56 485.878 450.288 486.84 450.288 488.556C450.288 490.766 449.092 493.6 448.494 494.822H445.738ZM458.401 470.564H468.645V473.658H461.365L460.793 477.168C461.651 476.804 462.587 476.596 463.601 476.596C467.163 476.596 469.243 478.728 469.243 483.85C469.243 489.648 466.565 491.39 462.483 491.39C458.635 491.39 456.399 489.83 456.399 485.488V484.968H459.831V485.462C459.831 487.178 460.637 488.27 462.587 488.27C464.589 488.27 465.499 487.1 465.499 483.954C465.499 480.522 464.615 479.716 462.691 479.716C461.235 479.716 460.507 480.314 459.675 481.224L456.815 480.652L458.401 470.564ZM477.746 470.174C482.79 470.174 484.064 476.18 484.064 480.782C484.064 485.488 482.712 491.39 477.798 491.39C472.624 491.39 471.428 484.838 471.428 480.548C471.428 476.232 472.676 470.174 477.746 470.174ZM477.746 473.112C476.004 473.112 475.302 475.764 475.302 480.756C475.302 485.748 476.004 488.478 477.772 488.478C479.436 488.478 480.164 485.878 480.164 480.808C480.164 475.738 479.462 473.112 477.746 473.112ZM492.879 470.174C497.923 470.174 499.197 476.18 499.197 480.782C499.197 485.488 497.845 491.39 492.931 491.39C487.757 491.39 486.561 484.838 486.561 480.548C486.561 476.232 487.809 470.174 492.879 470.174ZM492.879 473.112C491.137 473.112 490.435 475.764 490.435 480.756C490.435 485.748 491.137 488.478 492.905 488.478C494.569 488.478 495.297 485.878 495.297 480.808C495.297 475.738 494.595 473.112 492.879 473.112ZM505.516 488.53C505.516 486.762 506.348 485.878 508.168 485.878C509.962 485.878 510.82 486.762 510.82 488.53C510.82 490.35 509.962 491.26 508.168 491.26C506.348 491.26 505.516 490.35 505.516 488.53ZM523.144 470.174C528.188 470.174 529.462 476.18 529.462 480.782C529.462 485.488 528.11 491.39 523.196 491.39C518.022 491.39 516.826 484.838 516.826 480.548C516.826 476.232 518.074 470.174 523.144 470.174ZM523.144 473.112C521.402 473.112 520.7 475.764 520.7 480.756C520.7 485.748 521.402 488.478 523.17 488.478C524.834 488.478 525.562 485.878 525.562 480.808C525.562 475.738 524.86 473.112 523.144 473.112ZM538.277 470.174C543.321 470.174 544.595 476.18 544.595 480.782C544.595 485.488 543.243 491.39 538.329 491.39C533.155 491.39 531.959 484.838 531.959 480.548C531.959 476.232 533.207 470.174 538.277 470.174ZM538.277 473.112C536.535 473.112 535.833 475.764 535.833 480.756C535.833 485.748 536.535 488.478 538.303 488.478C539.967 488.478 540.695 485.878 540.695 480.808C540.695 475.738 539.993 473.112 538.277 473.112Z" fill="#00A09D"/>
<path d="M162.149 539.708H172.951V542.172H164.965V546.77H172.665V549.168H164.965V554.536H172.995V557H162.149V539.708ZM175.086 553.26H177.396V553.502C177.396 554.58 178.012 555.24 179.948 555.24C181.906 555.24 182.786 554.536 182.786 553.348C182.786 550.466 175.13 553.084 175.13 548.354C175.13 545.692 177.484 544.878 180.124 544.878C181.928 544.878 183.468 545.23 184.766 546.176V548.552H182.5V547.298C181.752 546.946 180.982 546.814 180.08 546.814C178.606 546.814 177.528 547.21 177.528 548.244C177.528 550.092 181.07 549.498 183.248 550.312C184.634 550.84 185.228 551.764 185.228 553.282C185.228 555.966 183.314 557.308 179.86 557.308C176.054 557.308 175.086 555.702 175.086 553.546V553.26ZM187.121 545.824H188.969V542.524H191.631V545.824H197.659V547.87H191.631V553.392C191.631 554.646 192.203 555.174 193.897 555.174C195.745 555.174 196.075 554.58 196.075 553.436V553.106H198.319V553.37C198.319 555.856 197.747 557.308 193.721 557.308C190.289 557.308 188.969 556.076 188.969 553.326V547.87H187.121V545.824ZM204.369 550.18L208.043 549.432V549.168C208.043 547.606 207.229 547.1 205.645 547.1C204.369 547.1 203.797 547.408 203.467 547.672V548.926H201.157V546.704C202.015 545.45 203.775 544.878 205.909 544.878C208.747 544.878 210.507 545.89 210.507 548.772V554.316C210.507 554.866 210.661 554.932 211.145 554.932H211.497V557H210.045C208.857 557 208.263 556.67 208.087 555.79L207.955 555.9C206.701 556.802 205.667 557.242 204.149 557.242C201.663 557.242 200.629 555.9 200.629 553.898C200.629 551.698 201.883 550.686 204.369 550.18ZM204.853 555.174C205.513 555.196 206.239 554.976 207.647 554.118L208.043 553.876V551.258L204.963 551.94C203.731 552.182 203.093 552.622 203.093 553.678C203.093 554.646 203.665 555.174 204.853 555.174ZM225.491 545.186H228.329L231.387 553.942L234.709 545.186H237.393L232.685 557H230.089L225.491 545.186ZM249.141 551.698H241.595C241.705 554.47 242.563 555.13 244.345 555.13C245.973 555.13 246.809 554.558 246.809 553.656V553.414H249.163V553.722C249.163 556.186 247.205 557.308 244.257 557.308C240.671 557.308 239.153 555.636 239.153 551.148C239.153 546.682 240.649 544.878 244.323 544.878C248.151 544.878 249.229 546.814 249.229 550.246C249.229 550.774 249.185 551.368 249.141 551.698ZM244.301 547.078C242.717 547.078 241.859 547.672 241.639 549.872H246.919C246.941 549.806 246.941 549.762 246.941 549.542C246.897 547.936 246.259 547.078 244.301 547.078ZM252.222 545.186H254.708V546.77C255.478 545.692 256.776 544.988 258.668 544.988C260.824 544.988 262.034 545.934 262.034 549.19V557H259.394V549.344C259.394 547.738 258.844 547.342 257.656 547.342C256.226 547.342 255.368 547.914 254.862 548.728V557H252.222V545.186ZM263.949 545.824H265.797V542.524H268.459V545.824H274.487V547.87H268.459V553.392C268.459 554.646 269.031 555.174 270.725 555.174C272.573 555.174 272.903 554.58 272.903 553.436V553.106H275.147V553.37C275.147 555.856 274.575 557.308 270.549 557.308C267.117 557.308 265.797 556.076 265.797 553.326V547.87H263.949V545.824ZM281.198 550.18L284.872 549.432V549.168C284.872 547.606 284.058 547.1 282.474 547.1C281.198 547.1 280.626 547.408 280.296 547.672V548.926H277.986V546.704C278.844 545.45 280.604 544.878 282.738 544.878C285.576 544.878 287.336 545.89 287.336 548.772V554.316C287.336 554.866 287.49 554.932 287.974 554.932H288.326V557H286.874C285.686 557 285.092 556.67 284.916 555.79L284.784 555.9C283.53 556.802 282.496 557.242 280.978 557.242C278.492 557.242 277.458 555.9 277.458 553.898C277.458 551.698 278.712 550.686 281.198 550.18ZM281.682 555.174C282.342 555.196 283.068 554.976 284.476 554.118L284.872 553.876V551.258L281.792 551.94C280.56 552.182 279.922 552.622 279.922 553.678C279.922 554.646 280.494 555.174 281.682 555.174ZM306.873 543.382V545.824H312.901V547.87H306.873V557H304.211V547.87H302.363V545.824H304.211V543.382C304.211 540.632 305.531 539.4 308.963 539.4C311.933 539.4 313.121 540.324 313.583 540.962V543.58H311.229V541.996C310.899 541.776 310.261 541.534 309.139 541.534C307.445 541.534 306.873 542.106 306.873 543.382ZM316.114 545.186H318.754V552.842C318.754 554.448 319.304 554.844 320.492 554.844C321.922 554.844 322.78 554.272 323.286 553.48V545.186H325.926V557H323.44V555.438C322.67 556.494 321.394 557.22 319.48 557.22C317.324 557.22 316.114 556.252 316.114 552.996V545.186ZM338.774 551.698H331.228C331.338 554.47 332.196 555.13 333.978 555.13C335.606 555.13 336.442 554.558 336.442 553.656V553.414H338.796V553.722C338.796 556.186 336.838 557.308 333.89 557.308C330.304 557.308 328.786 555.636 328.786 551.148C328.786 546.682 330.282 544.878 333.956 544.878C337.784 544.878 338.862 546.814 338.862 550.246C338.862 550.774 338.818 551.368 338.774 551.698ZM333.934 547.078C332.35 547.078 331.492 547.672 331.272 549.872H336.552C336.574 549.806 336.574 549.762 336.574 549.542C336.53 547.936 335.892 547.078 333.934 547.078ZM354.66 545.186H357.146V547.342C358.422 545.934 359.918 544.988 361.766 544.988C363.438 544.988 364.692 545.802 364.978 546.704V549.41H362.536V547.738C362.316 547.474 361.678 547.232 360.886 547.232C359.654 547.232 358.422 547.914 357.3 549.102V557H354.66V545.186ZM377.188 551.698H369.642C369.752 554.47 370.61 555.13 372.392 555.13C374.02 555.13 374.856 554.558 374.856 553.656V553.414H377.21V553.722C377.21 556.186 375.252 557.308 372.304 557.308C368.718 557.308 367.2 555.636 367.2 551.148C367.2 546.682 368.696 544.878 372.37 544.878C376.198 544.878 377.276 546.814 377.276 550.246C377.276 550.774 377.232 551.368 377.188 551.698ZM372.348 547.078C370.764 547.078 369.906 547.672 369.686 549.872H374.966C374.988 549.806 374.988 549.762 374.988 549.542C374.944 547.936 374.306 547.078 372.348 547.078ZM383.635 550.18L387.309 549.432V549.168C387.309 547.606 386.495 547.1 384.911 547.1C383.635 547.1 383.063 547.408 382.733 547.672V548.926H380.423V546.704C381.281 545.45 383.041 544.878 385.175 544.878C388.013 544.878 389.773 545.89 389.773 548.772V554.316C389.773 554.866 389.927 554.932 390.411 554.932H390.763V557H389.311C388.123 557 387.529 556.67 387.353 555.79L387.221 555.9C385.967 556.802 384.933 557.242 383.415 557.242C380.929 557.242 379.895 555.9 379.895 553.898C379.895 551.698 381.149 550.686 383.635 550.18ZM384.119 555.174C384.779 555.196 385.505 554.976 386.913 554.118L387.309 553.876V551.258L384.229 551.94C382.997 552.182 382.359 552.622 382.359 553.678C382.359 554.646 382.931 555.174 384.119 555.174ZM394.13 539.708H399.74V554.954H402.798V557H393.778V554.954H397.078V541.754H394.13V539.708ZM406.934 545.186H412.434V554.954H415.602V557H406.582V554.954H409.772V547.254H406.934V545.186ZM409.178 541.622C409.178 540.346 409.772 539.708 411.026 539.708C412.258 539.708 412.852 540.346 412.852 541.622C412.852 542.898 412.258 543.558 411.026 543.558C409.772 543.558 409.178 542.898 409.178 541.622ZM418.441 545.186H428.561V547.122L421.719 554.712H428.561V557H418.441V554.866L425.085 547.496H418.441V545.186ZM434.854 550.18L438.528 549.432V549.168C438.528 547.606 437.714 547.1 436.13 547.1C434.854 547.1 434.282 547.408 433.952 547.672V548.926H431.642V546.704C432.5 545.45 434.26 544.878 436.394 544.878C439.232 544.878 440.992 545.89 440.992 548.772V554.316C440.992 554.866 441.146 554.932 441.63 554.932H441.982V557H440.53C439.342 557 438.748 556.67 438.572 555.79L438.44 555.9C437.186 556.802 436.152 557.242 434.634 557.242C432.148 557.242 431.114 555.9 431.114 553.898C431.114 551.698 432.368 550.686 434.854 550.18ZM435.338 555.174C435.998 555.196 436.724 554.976 438.132 554.118L438.528 553.876V551.258L435.448 551.94C434.216 552.182 433.578 552.622 433.578 553.678C433.578 554.646 434.15 555.174 435.338 555.174ZM451.332 539.708H453.972V557H451.486V555.57C450.716 556.714 449.264 557.242 447.68 557.242C445.502 557.242 443.896 556.318 443.896 551.104C443.896 545.912 445.502 544.988 447.658 544.988C449.374 544.988 450.694 545.604 451.332 546.484V539.708ZM451.332 553.502V548.596C450.804 547.76 449.946 547.232 448.736 547.232C447.526 547.232 446.492 547.672 446.492 551.082C446.492 554.492 447.526 554.866 448.67 554.866C449.946 554.866 450.782 554.338 451.332 553.502ZM460.463 550.18L464.137 549.432V549.168C464.137 547.606 463.323 547.1 461.739 547.1C460.463 547.1 459.891 547.408 459.561 547.672V548.926H457.251V546.704C458.109 545.45 459.869 544.878 462.003 544.878C464.841 544.878 466.601 545.89 466.601 548.772V554.316C466.601 554.866 466.755 554.932 467.239 554.932H467.591V557H466.139C464.951 557 464.357 556.67 464.181 555.79L464.049 555.9C462.795 556.802 461.761 557.242 460.243 557.242C457.757 557.242 456.723 555.9 456.723 553.898C456.723 551.698 457.977 550.686 460.463 550.18ZM460.947 555.174C461.607 555.196 462.333 554.976 463.741 554.118L464.137 553.876V551.258L461.057 551.94C459.825 552.182 459.187 552.622 459.187 553.678C459.187 554.646 459.759 555.174 460.947 555.174ZM490.011 549.256V547.782C489.637 547.452 488.933 547.188 487.723 547.188C485.743 547.188 485.039 547.87 485.039 551.082C485.039 554.316 485.743 555.02 487.679 555.02C489.219 555.02 490.099 554.558 490.099 553.326V553.04H492.453V553.458C492.453 556.252 490.495 557.308 487.569 557.308C483.939 557.308 482.443 555.68 482.443 551.104C482.443 546.528 483.939 544.878 487.591 544.878C490.539 544.878 491.837 545.956 492.453 546.704V549.256H490.011ZM500.373 544.878C504.003 544.878 505.477 546.55 505.477 551.104C505.477 555.68 504.003 557.308 500.373 557.308C496.743 557.308 495.247 555.68 495.247 551.104C495.247 546.55 496.743 544.878 500.373 544.878ZM500.373 547.188C498.547 547.188 497.843 547.936 497.843 551.104C497.843 554.294 498.547 555.02 500.373 555.02C502.199 555.02 502.903 554.294 502.903 551.104C502.903 547.936 502.199 547.188 500.373 547.188ZM508.316 545.186H510.802V546.77C511.572 545.692 512.87 544.988 514.762 544.988C516.918 544.988 518.128 545.934 518.128 549.19V557H515.488V549.344C515.488 547.738 514.938 547.342 513.75 547.342C512.32 547.342 511.462 547.914 510.956 548.728V557H508.316V545.186ZM538.787 539.378C543.231 539.378 544.397 540.61 544.397 548.2C544.397 554.646 543.539 556.406 540.569 556.78L541.097 557.946C541.383 558.584 541.669 558.804 542.637 558.804H544.727V561.224H542.791C540.613 561.224 539.953 560.652 539.425 558.936L538.787 556.868C534.321 556.868 533.199 555.79 533.199 548.2C533.199 540.61 534.321 539.378 538.787 539.378ZM538.787 541.864C536.477 541.864 535.971 542.502 535.971 548.222C535.971 553.898 536.477 554.492 538.787 554.492C541.097 554.492 541.647 553.898 541.647 548.222C541.647 542.502 541.097 541.864 538.787 541.864ZM546.29 539.708H551.548C556.124 539.708 557.312 540.896 557.312 544.9C557.312 548.134 556.542 549.366 553.836 549.74L557.752 557H554.694L550.91 549.85H549.106V557H546.29V539.708ZM549.106 542.062V547.782H551.79C553.968 547.782 554.54 547.386 554.54 544.966C554.54 542.568 553.99 542.062 551.79 542.062H549.106Z" fill="#767676"/>
<path d="M131.194 575.6L134.67 578.086L134.318 573.708H136.43L136.122 578.064L139.62 575.534L140.632 577.492L136.826 579.34L140.632 581.232L139.62 583.168L136.144 580.682L136.496 585.038H134.362L134.692 580.704L131.194 583.19L130.182 581.254L133.988 579.384L130.182 577.536L131.194 575.6ZM143.998 575.6L147.474 578.086L147.122 573.708H149.234L148.926 578.064L152.424 575.534L153.436 577.492L149.63 579.34L153.436 581.232L152.424 583.168L148.948 580.682L149.3 585.038H147.166L147.496 580.704L143.998 583.19L142.986 581.254L146.792 579.384L142.986 577.536L143.998 575.6ZM156.803 575.6L160.279 578.086L159.927 573.708H162.039L161.731 578.064L165.229 575.534L166.241 577.492L162.435 579.34L166.241 581.232L165.229 583.168L161.753 580.682L162.105 585.038H159.971L160.301 580.704L156.803 583.19L155.791 581.254L159.597 579.384L155.791 577.536L156.803 575.6ZM169.608 575.6L173.084 578.086L172.732 573.708H174.844L174.536 578.064L178.034 575.534L179.046 577.492L175.24 579.34L179.046 581.232L178.034 583.168L174.558 580.682L174.91 585.038H172.776L173.106 580.704L169.608 583.19L168.596 581.254L172.402 579.384L168.596 577.536L169.608 575.6ZM182.412 575.6L185.888 578.086L185.536 573.708H187.648L187.34 578.064L190.838 575.534L191.85 577.492L188.044 579.34L191.85 581.232L190.838 583.168L187.362 580.682L187.714 585.038H185.58L185.91 580.704L182.412 583.19L181.4 581.254L185.206 579.384L181.4 577.536L182.412 575.6ZM195.217 575.6L198.693 578.086L198.341 573.708H200.453L200.145 578.064L203.643 575.534L204.655 577.492L200.849 579.34L204.655 581.232L203.643 583.168L200.167 580.682L200.519 585.038H198.385L198.715 580.704L195.217 583.19L194.205 581.254L198.011 579.384L194.205 577.536L195.217 575.6ZM208.022 575.6L211.498 578.086L211.146 573.708H213.258L212.95 578.064L216.448 575.534L217.46 577.492L213.654 579.34L217.46 581.232L216.448 583.168L212.972 580.682L213.324 585.038H211.19L211.52 580.704L208.022 583.19L207.01 581.254L210.816 579.384L207.01 577.536L208.022 575.6ZM220.826 575.6L224.302 578.086L223.95 573.708H226.062L225.754 578.064L229.252 575.534L230.264 577.492L226.458 579.34L230.264 581.232L229.252 583.168L225.776 580.682L226.128 585.038H223.994L224.324 580.704L220.826 583.19L219.814 581.254L223.62 579.384L219.814 577.536L220.826 575.6ZM233.631 575.6L237.107 578.086L236.755 573.708H238.867L238.559 578.064L242.057 575.534L243.069 577.492L239.263 579.34L243.069 581.232L242.057 583.168L238.581 580.682L238.933 585.038H236.799L237.129 580.704L233.631 583.19L232.619 581.254L236.425 579.384L232.619 577.536L233.631 575.6ZM246.436 575.6L249.912 578.086L249.56 573.708H251.672L251.364 578.064L254.862 575.534L255.874 577.492L252.068 579.34L255.874 581.232L254.862 583.168L251.386 580.682L251.738 585.038H249.604L249.934 580.704L246.436 583.19L245.424 581.254L249.23 579.384L245.424 577.536L246.436 575.6ZM270.307 573.708H273.233L276.225 586.886L279.481 573.708H282.209L277.567 591H274.839L270.307 573.708ZM283.794 573.708H294.596V576.172H286.61V580.77H294.31V583.168H286.61V588.536H294.64V591H283.794V573.708ZM296.599 573.708H301.857C306.433 573.708 307.621 574.896 307.621 578.9C307.621 582.134 306.851 583.366 304.145 583.74L308.061 591H305.003L301.219 583.85H299.415V591H296.599V573.708ZM299.415 576.062V581.782H302.099C304.277 581.782 304.849 581.386 304.849 578.966C304.849 576.568 304.299 576.062 302.099 576.062H299.415ZM317.235 578.196V576.436C316.465 576.018 315.651 575.842 314.683 575.842C312.923 575.842 311.713 576.546 311.713 578.042C311.713 580.55 314.815 580.198 317.675 581.43C319.501 582.222 320.315 583.41 320.315 585.654C320.315 589.372 318.291 591.33 314.309 591.33C309.953 591.33 308.941 588.998 308.941 586.16V585.896H311.581V586.16C311.581 587.524 312.043 588.822 314.419 588.822C316.751 588.822 317.543 587.524 317.543 585.72C317.543 584.62 317.191 584.048 315.981 583.608C314.661 583.058 312.549 582.816 311.075 581.914C309.689 581.21 308.985 580.044 308.985 578.218C308.985 574.588 311.669 573.378 314.881 573.378C316.795 573.378 318.555 573.796 319.809 574.896V578.196H317.235ZM322.626 573.708H332.328V575.886H328.896V588.822H332.328V591H322.626V588.822H326.08V575.886H322.626V573.708ZM340.249 573.466C344.715 573.466 345.859 574.038 345.859 582.376C345.859 590.714 344.715 591.242 340.249 591.242C335.805 591.242 334.683 590.714 334.683 582.376C334.683 574.038 335.805 573.466 340.249 573.466ZM340.249 575.886C337.895 575.886 337.411 576.194 337.411 582.376C337.411 588.536 337.895 588.822 340.249 588.822C342.625 588.822 343.131 588.536 343.131 582.376C343.131 576.194 342.625 575.886 340.249 575.886ZM340.931 569.44H344.033L340.183 572.762H337.895L340.931 569.44ZM347.663 573.708H350.413L356.001 585.214V573.708H358.509V591H356.441L350.171 578.57V591H347.663V573.708ZM377.409 573.708H380.137L384.647 591H381.897L381.193 587.986H376.111L375.341 591H372.745L377.409 573.708ZM378.751 577.602L376.661 585.764H380.665L378.751 577.602ZM385.835 586.138C385.835 583.938 386.803 582.596 388.277 581.936C386.913 581.232 386.099 579.934 386.099 578.13C386.099 575.028 388.497 573.378 391.511 573.378C394.503 573.378 396.901 575.028 396.901 578.13C396.901 579.934 396.087 581.232 394.723 581.936C396.175 582.618 397.165 583.938 397.165 586.138C397.165 589.834 394.371 591.33 391.511 591.33C388.651 591.33 385.835 589.834 385.835 586.138ZM391.511 583.124C389.817 583.124 388.431 583.828 388.431 585.984C388.431 588.184 389.883 589.086 391.511 589.086C393.117 589.086 394.591 588.184 394.591 585.984C394.591 583.828 393.183 583.124 391.511 583.124ZM391.511 575.6C389.861 575.6 388.585 576.392 388.585 578.328C388.585 580.176 389.773 581.012 391.511 581.012C393.227 581.012 394.415 580.176 394.415 578.328C394.415 576.392 393.139 575.6 391.511 575.6ZM399.608 577.184H400.598C402.71 577.184 403.48 576.238 403.48 574.346V573.708H405.834V588.778H409.244V591H399.432V588.778H403.172V578.724C402.512 579.12 401.72 579.296 400.818 579.296H399.608V577.184ZM416.989 573.378C421.257 573.378 422.335 578.46 422.335 582.354C422.335 586.336 421.191 591.33 417.033 591.33C412.655 591.33 411.643 585.786 411.643 582.156C411.643 578.504 412.699 573.378 416.989 573.378ZM416.989 575.512C415.031 575.512 414.393 578.262 414.393 582.31C414.393 586.314 415.031 589.218 417.011 589.218C418.881 589.218 419.585 586.512 419.585 582.376C419.585 578.262 418.903 575.512 416.989 575.512ZM424.689 578.196V574.896C425.943 573.73 427.901 573.378 429.705 573.378C432.917 573.378 435.249 574.544 435.249 578.658C435.249 581.738 433.335 584.466 428.077 588.778H435.491V591H424.777V588.844C430.805 584.136 432.609 581.452 432.609 578.548C432.609 576.304 431.421 575.6 429.727 575.6C428.627 575.6 427.857 575.842 427.131 576.282V578.196H424.689ZM439.034 573.708H447.702V575.93H441.146L440.574 579.428C441.388 579.032 442.312 578.812 443.346 578.812C446.47 578.812 448.208 580.616 448.208 584.95C448.208 589.856 445.964 591.33 442.51 591.33C439.232 591.33 437.34 590.01 437.34 586.336V585.896H439.782V586.314C439.782 588.118 440.662 589.086 442.554 589.086C444.534 589.086 445.546 588.052 445.546 584.972C445.546 581.892 444.666 581.078 442.752 581.078C441.41 581.078 440.574 581.562 439.738 582.508L437.714 582.09L439.034 573.708ZM464.116 575.6L467.591 578.086L467.24 573.708H469.352L469.044 578.064L472.542 575.534L473.553 577.492L469.748 579.34L473.553 581.232L472.542 583.168L469.066 580.682L469.418 585.038H467.284L467.614 580.704L464.116 583.19L463.104 581.254L466.91 579.384L463.104 577.536L464.116 575.6ZM476.92 575.6L480.396 578.086L480.044 573.708H482.156L481.848 578.064L485.346 575.534L486.358 577.492L482.552 579.34L486.358 581.232L485.346 583.168L481.87 580.682L482.222 585.038H480.088L480.418 580.704L476.92 583.19L475.908 581.254L479.714 579.384L475.908 577.536L476.92 575.6ZM489.725 575.6L493.201 578.086L492.849 573.708H494.961L494.653 578.064L498.151 575.534L499.163 577.492L495.357 579.34L499.163 581.232L498.151 583.168L494.675 580.682L495.027 585.038H492.893L493.223 580.704L489.725 583.19L488.713 581.254L492.519 579.384L488.713 577.536L489.725 575.6ZM502.53 575.6L506.006 578.086L505.654 573.708H507.766L507.458 578.064L510.956 575.534L511.968 577.492L508.162 579.34L511.968 581.232L510.956 583.168L507.48 580.682L507.832 585.038H505.698L506.028 580.704L502.53 583.19L501.518 581.254L505.324 579.384L501.518 577.536L502.53 575.6ZM515.334 575.6L518.81 578.086L518.458 573.708H520.57L520.262 578.064L523.76 575.534L524.772 577.492L520.966 579.34L524.772 581.232L523.76 583.168L520.284 580.682L520.636 585.038H518.502L518.832 580.704L515.334 583.19L514.322 581.254L518.128 579.384L514.322 577.536L515.334 575.6ZM528.139 575.6L531.615 578.086L531.263 573.708H533.375L533.067 578.064L536.565 575.534L537.577 577.492L533.771 579.34L537.577 581.232L536.565 583.168L533.089 580.682L533.441 585.038H531.307L531.637 580.704L528.139 583.19L527.127 581.254L530.933 579.384L527.127 577.536L528.139 575.6ZM540.944 575.6L544.42 578.086L544.068 573.708H546.18L545.872 578.064L549.37 575.534L550.382 577.492L546.576 579.34L550.382 581.232L549.37 583.168L545.894 580.682L546.246 585.038H544.112L544.442 580.704L540.944 583.19L539.932 581.254L543.738 579.384L539.932 577.536L540.944 575.6ZM553.748 575.6L557.224 578.086L556.872 573.708H558.984L558.676 578.064L562.174 575.534L563.186 577.492L559.38 579.34L563.186 581.232L562.174 583.168L558.698 580.682L559.05 585.038H556.916L557.246 580.704L553.748 583.19L552.736 581.254L556.542 579.384L552.736 577.536L553.748 575.6ZM566.553 575.6L570.029 578.086L569.677 573.708H571.789L571.481 578.064L574.979 575.534L575.991 577.492L572.185 579.34L575.991 581.232L574.979 583.168L571.503 580.682L571.855 585.038H569.721L570.051 580.704L566.553 583.19L565.541 581.254L569.347 579.384L565.541 577.536L566.553 575.6ZM579.358 575.6L582.834 578.086L582.482 573.708H584.594L584.286 578.064L587.784 575.534L588.796 577.492L584.99 579.34L588.796 581.232L587.784 583.168L584.308 580.682L584.66 585.038H582.526L582.856 580.704L579.358 583.19L578.346 581.254L582.152 579.384L578.346 577.536L579.358 575.6Z" fill="#767676"/>
</svg>
