<svg width="41" height="41" viewBox="0 0 41 41" fill="none" xmlns="http://www.w3.org/2000/svg">
<mask id="mask0_68_4418" style="mask-type:luminance" maskUnits="userSpaceOnUse" x="0" y="0" width="41" height="41">
<path d="M40.487 0H0V40.5H40.487V0Z" fill="white"/>
</mask>
<g mask="url(#mask0_68_4418)">
<path fill-rule="evenodd" clip-rule="evenodd" d="M20.2435 40.5C9.03956 40.5 0 31.4575 0 20.25C0 9.04247 9.03956 0 20.2435 0C31.4477 0 40.4872 9.04247 40.4872 20.25C40.4872 31.4575 31.4477 40.5 20.2435 40.5Z" fill="url(#paint0_linear_68_4418)"/>
<path fill-rule="evenodd" clip-rule="evenodd" d="M25.782 11.2712C25.2728 8.97886 22.9811 7.5779 20.6893 8.08736C18.3976 8.59673 16.9335 10.8892 17.4427 13.118C17.6338 13.8821 17.952 14.5189 18.4613 15.0284C18.7159 15.2831 18.143 16.8114 18.4613 17.0024C18.7159 17.1934 19.8618 16.0472 20.1165 16.1109C20.8803 16.3656 21.7079 16.4293 22.5355 16.2382C24.8272 15.7925 26.2913 13.5637 25.782 11.2712ZM20.6893 14.2642C19.7344 14.2642 19.4162 13.6274 19.3525 13.309V13.0543C19.3525 12.9269 19.4798 12.7996 19.6072 12.7996C19.7344 12.7996 19.8618 12.9269 19.8618 13.0543V13.309C19.8618 13.3727 19.8618 13.4364 19.9254 13.5001C19.9891 13.6911 20.1801 13.8184 20.5621 13.8821C21.135 13.8821 21.2623 13.6911 21.2623 13.5001C21.2623 13.2454 21.1986 13.0543 20.5621 12.7996C19.7981 12.4812 19.3525 12.2902 19.3525 11.6534C19.3525 11.0166 19.9254 10.7619 20.4984 10.7619C20.6257 10.7619 20.753 10.7619 20.8803 10.8255C21.0713 10.8892 21.3259 10.9529 21.5169 11.1439C21.5806 11.2076 21.5806 11.2712 21.6442 11.335V11.3987C21.7079 11.526 21.7079 11.6534 21.7079 11.7807V11.9081V11.9717C21.6442 12.0354 21.5806 12.0991 21.4533 12.0991C21.3896 12.0991 21.2622 12.0354 21.1986 11.9717V11.9081V11.7807V11.717C21.1986 11.6534 21.1986 11.5897 21.135 11.526C21.0077 11.335 20.6893 11.2076 20.4984 11.2076C20.1801 11.2076 19.9254 11.335 19.9254 11.6534C19.9254 11.9717 20.1801 12.0991 20.6893 12.2902C21.5806 12.6086 21.7715 12.9269 21.8989 13.2454C21.9625 13.4364 21.8352 14.2642 20.6893 14.2642ZM24.3179 11.0166L22.5992 14.1369C22.5355 14.2642 22.3445 14.3279 22.2171 14.2642C22.1535 14.1369 22.0899 14.0095 22.1535 13.8821L23.8723 10.7619C23.936 10.6345 24.1269 10.5709 24.2542 10.6345C24.3179 10.6982 24.3816 10.8892 24.3179 11.0166Z" fill="#54D1B3"/>
<path fill-rule="evenodd" clip-rule="evenodd" d="M28.3917 24.7712C28.2644 24.5801 28.137 24.4527 27.437 24.5164C26.7367 24.5164 24.1904 24.8985 23.4901 24.9622C22.7899 25.0259 18.5248 25.6627 17.8245 25.79C17.5062 25.8537 16.9333 25.981 16.2967 26.1084C16.2967 26.1084 18.0155 19.9315 18.0791 19.8042C18.1428 19.6132 18.2702 19.1037 18.0791 19.04C17.8881 18.9764 17.5699 18.9764 17.3153 19.1674C17.0606 19.3584 16.8696 19.5495 16.7423 19.8042C16.6787 20.0589 16.424 20.823 16.2967 21.2051C16.1694 21.5235 15.7875 22.606 15.5328 23.0519C15.2145 23.4976 14.8326 23.816 14.5779 23.6249C14.3233 23.4976 14.4506 22.9882 14.5142 22.6697C14.5779 22.3514 14.7689 21.7782 14.8962 21.4599C14.9598 21.1414 15.1509 20.7594 15.1509 20.5047C15.1509 20.1862 14.9598 19.9315 14.7052 19.8679C14.5142 19.8042 14.2596 19.8042 14.1323 19.9315C14.0686 20.1226 14.1323 20.3773 14.0686 20.632C14.0686 20.8867 13.9413 21.0777 13.8777 21.2688C13.814 21.5235 13.6867 21.7145 13.623 21.9692C13.4957 22.3514 13.432 22.6697 13.3048 23.0519C13.2411 23.4339 13.1774 23.7523 13.1774 24.1344C13.1774 24.3891 13.3048 24.7075 13.5594 24.8985C13.7504 25.0259 14.005 25.0895 14.196 25.0895C14.5779 25.0895 14.9598 24.7712 15.2145 24.5164C15.3419 24.3891 15.5328 24.198 15.5965 24.007C15.3419 24.7712 15.0872 25.5353 14.8326 26.2994C14.8326 26.3419 14.8113 26.3632 14.7689 26.3632C14.7689 26.3632 14.7052 26.4269 14.6416 26.4269C14.6416 26.4269 14.5779 26.4269 14.5779 26.4905C14.387 26.5542 14.196 26.6179 14.005 26.6815C13.5594 26.8726 13.2411 27.1273 12.9228 27.3184C12.5408 27.573 12.1589 27.8914 11.8406 28.2099C11.395 28.6556 11.0767 29.165 10.8221 29.7382C10.6311 30.2476 10.4401 30.8844 10.5674 31.4575C10.6947 32.0306 11.1403 32.4127 11.7133 32.4764C12.0952 32.54 12.5408 32.4127 12.8592 32.2216C13.1774 32.0306 13.4957 31.7122 13.7504 31.4575C14.5142 30.566 15.0235 29.5471 15.4054 28.4009C15.5328 28.1462 15.5965 27.8277 15.7238 27.5094C16.8696 27.191 19.6706 26.6815 20.3708 26.5542C21.0711 26.4269 24.5724 25.981 25.4636 25.8537C26.2911 25.7264 28.0737 25.599 28.2644 25.4079C28.5832 25.2169 28.5191 24.9622 28.3917 24.7712ZM14.2596 28.2099C14.196 28.3372 14.196 28.4645 14.1323 28.5919C14.005 28.8466 13.8777 29.1014 13.814 29.356C13.5594 29.8655 13.2411 30.3749 12.9228 30.757C12.7318 30.948 12.1589 31.5212 11.9043 31.2027C11.6496 30.948 11.9679 30.1202 12.6045 29.2924C13.3684 28.2735 14.4506 27.8914 14.4506 27.8914C14.3233 27.9551 14.2596 28.2099 14.2596 28.2099Z" fill="white"/>
<path fill-rule="evenodd" clip-rule="evenodd" d="M22.0898 22.4786C22.0898 22.4786 21.9625 22.8607 21.5168 22.9881C21.0712 23.1154 21.5168 21.2687 21.5168 21.2687C21.5168 21.2687 21.8988 19.4857 21.9625 19.1673C22.0261 18.9126 22.0261 18.6579 21.7078 18.5305C21.3895 18.4668 21.1349 18.4031 21.0076 18.7216L20.9439 18.9763C20.9439 18.9763 20.6256 18.5305 19.989 18.6579C19.3524 18.7216 18.5886 19.6767 18.0793 21.0776C17.6337 22.4786 17.7609 23.3701 17.8883 23.6885C17.9519 24.0069 18.143 24.5164 18.8431 24.5801C19.4798 24.7074 19.989 24.1979 20.2436 23.5611C20.2436 23.5611 20.2436 24.0706 20.6893 24.2616C21.1349 24.389 21.7714 23.9433 22.0261 23.7522C22.217 23.5611 22.0898 22.4786 22.0898 22.4786ZM20.7529 20.1861C20.6893 20.5683 20.4983 21.2687 20.2436 21.9692C19.989 22.7333 19.7343 23.3701 19.3524 23.2428C18.9068 23.1791 18.8431 22.4786 18.9068 22.1602C18.9068 21.7781 19.0342 21.3324 19.2251 20.9503C19.5434 20.1861 19.989 19.9314 20.3073 19.8041C20.562 19.6767 20.8166 19.7404 20.7529 20.1861Z" fill="white"/>
<path fill-rule="evenodd" clip-rule="evenodd" d="M25.6546 18.4034C25.3363 18.0214 24.7633 18.0214 24.4451 18.2124C24.1268 18.4034 23.7448 18.9129 23.6812 19.0402L23.7448 18.5944C23.7448 18.5944 23.8084 18.4671 23.4902 18.3397C23.1083 18.2761 22.9172 18.2124 22.8536 18.5308C22.7899 18.8492 21.3894 26.2996 21.3894 26.2996C21.3894 26.2996 21.2621 26.7454 21.3894 27.0001C21.5168 27.2549 21.835 27.3822 22.1534 27.0001C22.4716 26.6181 22.599 25.0897 22.7263 24.3893C22.8536 23.6251 22.8536 23.4978 22.8536 23.4978C22.8536 23.4978 23.1082 23.8799 23.7448 24.0072C24.4451 24.1346 25.018 23.5614 25.3999 22.7973C25.7819 22.0331 26.0365 20.8869 26.1002 20.2501C26.0365 19.6134 25.9092 18.7855 25.6546 18.4034ZM24.8907 20.2501C24.827 20.6959 24.7633 21.2053 24.5724 21.5874C24.4451 21.9694 24.3177 22.3516 23.9995 22.6699C23.7448 22.9246 23.2355 23.1157 22.9809 22.7973C22.9809 22.7973 23.1082 22.0331 23.2992 21.3327C23.4902 20.6322 23.6812 19.8044 24.1904 19.4223C24.827 18.9766 24.9543 19.8044 24.8907 20.2501Z" fill="white"/>
<path fill-rule="evenodd" clip-rule="evenodd" d="M29.3466 21.3962C29.1559 21.3325 29.0286 21.5872 28.9012 21.7145C28.7738 21.8419 28.6465 21.9693 28.5191 22.033C28.2644 22.2877 27.6281 22.6697 27.2461 22.3513C27.1188 22.224 27.0551 21.9055 27.1188 21.6508C27.1188 21.4598 27.2461 21.1415 27.2461 21.1415C27.5644 21.1415 27.8823 21.014 28.0096 20.9504C28.5191 20.7593 28.9012 20.441 29.2192 19.9952C29.6013 19.3584 30.1107 18.2758 29.3466 17.7027C29.2192 17.639 29.0918 17.5754 28.9645 17.5754C28.5191 17.5117 28.0737 17.5754 27.6917 17.8938C27.1824 18.3395 27.0551 18.5305 26.6095 19.2947C26.1639 20.1862 25.8456 21.2688 25.9093 22.224C25.9093 22.4787 25.9729 22.7334 26.0366 22.9245C26.1003 23.1792 26.2275 23.3702 26.4822 23.4975C26.8005 23.7523 27.1824 23.7523 27.5644 23.6886C28.0096 23.5612 28.5191 23.2428 28.6465 23.1155C28.7738 22.9881 29.4107 22.415 29.4739 22.2877C29.538 22.0966 29.4107 21.8419 29.4107 21.8419C29.6013 21.7145 29.4739 21.4598 29.3466 21.3962ZM28.2644 18.7853C28.3285 18.7216 28.4558 18.658 28.5191 18.5943C28.6465 18.5305 28.8379 18.658 28.8379 18.7853C28.9012 19.04 28.7738 19.2947 28.5832 19.4858C28.4558 19.6768 28.2644 19.8042 28.0738 19.9315C28.0096 19.9952 27.8823 20.0589 27.819 20.0589C27.5644 20.1862 27.5008 20.1225 27.5008 20.1862C27.5644 19.9315 27.8823 19.1673 28.2644 18.7853Z" fill="white"/>
</g>
<defs>
<linearGradient id="paint0_linear_68_4418" x1="8.57488" y1="32.6547" x2="29.9333" y2="9.95991" gradientUnits="userSpaceOnUse">
<stop stop-color="#61167B"/>
<stop offset="1" stop-color="#9934AC"/>
</linearGradient>
</defs>
</svg>
